G04 #@! TF.GenerationSoftware,KiCad,Pcbnew,5.1.7-a382d34a8~88~ubuntu20.04.1*
G04 #@! TF.CreationDate,2020-12-13T10:37:33-08:00*
G04 #@! TF.ProjectId,smd-sun,736d642d-7375-46e2-9e6b-696361645f70,rev?*
G04 #@! TF.SameCoordinates,Original*
G04 #@! TF.FileFunction,Legend,Top*
G04 #@! TF.FilePolarity,Positive*
%FSLAX46Y46*%
G04 Gerber Fmt 4.6, Leading zero omitted, Abs format (unit mm)*
G04 Created by KiCad (PCBNEW 5.1.7-a382d34a8~88~ubuntu20.04.1) date 2020-12-13 10:37:33*
%MOMM*%
%LPD*%
G01*
G04 APERTURE LIST*
%ADD10C,2.500000*%
%ADD11C,1.500000*%
%ADD12C,1.000000*%
%ADD13C,0.120000*%
%ADD14C,0.500000*%
%ADD15C,0.200000*%
%ADD16C,0.250000*%
G04 APERTURE END LIST*
D10*
X8660127Y-6499780D02*
G75*
G02*
X-8660000Y-6500000I-8660127J4999780D01*
G01*
D11*
X5598784Y9187920D02*
G75*
G02*
X9397999Y8000000I1401216J-2187920D01*
G01*
X-5598784Y9187920D02*
G75*
G03*
X-9397999Y8000000I-1401216J-2187920D01*
G01*
D12*
X13979233Y0D02*
G75*
G03*
X13979233Y0I-13979233J0D01*
G01*
D13*
X11750000Y0D02*
G75*
G03*
X11750000Y0I-1750000J0D01*
G01*
X-8250000Y0D02*
G75*
G03*
X-8250000Y0I-1750000J0D01*
G01*
D14*
X-3560000Y-6000000D02*
G75*
G03*
X-3560000Y-6000000I-250000J0D01*
G01*
D13*
X-5060000Y-5000000D02*
X-5060000Y-8450000D01*
X-5060000Y-5000000D02*
X-5060000Y-3050000D01*
X5060000Y-5000000D02*
X5060000Y-6950000D01*
X5060000Y-5000000D02*
X5060000Y-3050000D01*
D14*
X-1020000Y3556000D02*
G75*
G03*
X-1020000Y3556000I-250000J0D01*
G01*
D13*
X0Y4846000D02*
X-3450000Y4846000D01*
X0Y4846000D02*
X1950000Y4846000D01*
X0Y-274000D02*
X-1950000Y-274000D01*
X0Y-274000D02*
X1950000Y-274000D01*
X5848490Y6228233D02*
X8665040Y5731599D01*
X8665040Y5731599D02*
X8998445Y7622430D01*
X8998445Y7622430D02*
X6181894Y8119064D01*
D15*
X5030384Y7347296D02*
X3553173Y7607769D01*
X3379525Y6622961D02*
X3726821Y8592576D01*
D13*
X-6181894Y8119064D02*
X-8998445Y7622430D01*
X-8998445Y7622430D02*
X-8665040Y5731599D01*
X-8665040Y5731599D02*
X-5848490Y6228233D01*
D15*
X-5030384Y7347296D02*
X-3553173Y7607769D01*
X-3726821Y8592576D02*
X-3379525Y6622961D01*
D13*
X-261252Y-14790000D02*
X261252Y-14790000D01*
X-261252Y-16210000D02*
X261252Y-16210000D01*
X-7310000Y-4325252D02*
X-7310000Y-3802748D01*
X-5890000Y-4325252D02*
X-5890000Y-3802748D01*
X7310000Y515252D02*
X7310000Y-7252D01*
X5890000Y515252D02*
X5890000Y-7252D01*
X15527716Y14170071D02*
X17550041Y16192396D01*
X17550041Y16192396D02*
X16192396Y17550041D01*
X16192396Y17550041D02*
X14170071Y15527716D01*
D15*
X14141786Y14141786D02*
X13081126Y13081126D01*
X13788233Y12374019D02*
X12374019Y13788233D01*
D13*
X21000000Y-960000D02*
X23860000Y-960000D01*
X23860000Y-960000D02*
X23860000Y960000D01*
X23860000Y960000D02*
X21000000Y960000D01*
D15*
X20000000Y0D02*
X18500000Y0D01*
X18500000Y-1000000D02*
X18500000Y1000000D01*
D13*
X14170071Y-15527716D02*
X16192396Y-17550041D01*
X16192396Y-17550041D02*
X17550041Y-16192396D01*
X17550041Y-16192396D02*
X15527716Y-14170071D01*
D15*
X14141786Y-14141786D02*
X13081126Y-13081126D01*
X12374019Y-13788233D02*
X13788233Y-12374019D01*
D13*
X-960000Y-21000000D02*
X-960000Y-23860000D01*
X-960000Y-23860000D02*
X960000Y-23860000D01*
X960000Y-23860000D02*
X960000Y-21000000D01*
D15*
X0Y-20000000D02*
X0Y-18500000D01*
X-1000000Y-18500000D02*
X1000000Y-18500000D01*
D13*
X-15527716Y-14170071D02*
X-17550041Y-16192396D01*
X-17550041Y-16192396D02*
X-16192396Y-17550041D01*
X-16192396Y-17550041D02*
X-14170071Y-15527716D01*
D15*
X-14141786Y-14141786D02*
X-13081126Y-13081126D01*
X-13788233Y-12374019D02*
X-12374019Y-13788233D01*
D13*
X-21000000Y960000D02*
X-23860000Y960000D01*
X-23860000Y960000D02*
X-23860000Y-960000D01*
X-23860000Y-960000D02*
X-21000000Y-960000D01*
D15*
X-20000000Y0D02*
X-18500000Y0D01*
X-18500000Y1000000D02*
X-18500000Y-1000000D01*
D13*
X-14170071Y15527716D02*
X-16192396Y17550041D01*
X-16192396Y17550041D02*
X-17550041Y16192396D01*
X-17550041Y16192396D02*
X-15527716Y14170071D01*
D15*
X-14141786Y14141786D02*
X-13081126Y13081126D01*
X-12374019Y13788233D02*
X-13788233Y12374019D01*
D13*
X960000Y21000000D02*
X960000Y23860000D01*
X960000Y23860000D02*
X-960000Y23860000D01*
X-960000Y23860000D02*
X-960000Y21000000D01*
D15*
X0Y20000000D02*
X0Y18500000D01*
X1000000Y18500000D02*
X-1000000Y18500000D01*
D13*
X-7310000Y-7252D02*
X-7310000Y515252D01*
X-5890000Y-7252D02*
X-5890000Y515252D01*
X7310000Y-3802748D02*
X7310000Y-4325252D01*
X5890000Y-3802748D02*
X5890000Y-4325252D01*
D16*
X-1142857Y-4258571D02*
X-1142857Y-5472857D01*
X-1071428Y-5615714D01*
X-999999Y-5687142D01*
X-857142Y-5758571D01*
X-571428Y-5758571D01*
X-428571Y-5687142D01*
X-357142Y-5615714D01*
X-285714Y-5472857D01*
X-285714Y-4258571D01*
X357142Y-4401428D02*
X428571Y-4330000D01*
X571428Y-4258571D01*
X928571Y-4258571D01*
X1071428Y-4330000D01*
X1142857Y-4401428D01*
X1214285Y-4544285D01*
X1214285Y-4687142D01*
X1142857Y-4901428D01*
X285714Y-5758571D01*
X1214285Y-5758571D01*
X-888857Y2345428D02*
X-888857Y1131142D01*
X-817428Y988285D01*
X-745999Y916857D01*
X-603142Y845428D01*
X-317428Y845428D01*
X-174571Y916857D01*
X-103142Y988285D01*
X-31714Y1131142D01*
X-31714Y2345428D01*
X1468285Y845428D02*
X611142Y845428D01*
X1039714Y845428D02*
X1039714Y2345428D01*
X896857Y2131142D01*
X753999Y1988285D01*
X611142Y1916857D01*
X-250000Y-17950571D02*
X-749999Y-17236285D01*
X-1107142Y-17950571D02*
X-1107142Y-16450571D01*
X-535714Y-16450571D01*
X-392857Y-16522000D01*
X-321428Y-16593428D01*
X-250000Y-16736285D01*
X-250000Y-16950571D01*
X-321428Y-17093428D01*
X-392857Y-17164857D01*
X-535714Y-17236285D01*
X-1107142Y-17236285D01*
X250000Y-16450571D02*
X1178571Y-16450571D01*
X678571Y-17022000D01*
X892857Y-17022000D01*
X1035714Y-17093428D01*
X1107142Y-17164857D01*
X1178571Y-17307714D01*
X1178571Y-17664857D01*
X1107142Y-17807714D01*
X1035714Y-17879142D01*
X892857Y-17950571D01*
X464285Y-17950571D01*
X321428Y-17879142D01*
X250000Y-17807714D01*
X-3552000Y-5250571D02*
X-4052000Y-4536285D01*
X-4409142Y-5250571D02*
X-4409142Y-3750571D01*
X-3837714Y-3750571D01*
X-3694857Y-3822000D01*
X-3623428Y-3893428D01*
X-3552000Y-4036285D01*
X-3552000Y-4250571D01*
X-3623428Y-4393428D01*
X-3694857Y-4464857D01*
X-3837714Y-4536285D01*
X-4409142Y-4536285D01*
X-2980571Y-3893428D02*
X-2909142Y-3822000D01*
X-2766285Y-3750571D01*
X-2409142Y-3750571D01*
X-2266285Y-3822000D01*
X-2194857Y-3893428D01*
X-2123428Y-4036285D01*
X-2123428Y-4179142D01*
X-2194857Y-4393428D01*
X-3052000Y-5250571D01*
X-2123428Y-5250571D01*
X5250571Y766000D02*
X4536285Y266000D01*
X5250571Y-91142D02*
X3750571Y-91142D01*
X3750571Y480285D01*
X3822000Y623142D01*
X3893428Y694571D01*
X4036285Y766000D01*
X4250571Y766000D01*
X4393428Y694571D01*
X4464857Y623142D01*
X4536285Y480285D01*
X4536285Y-91142D01*
X5250571Y2194571D02*
X5250571Y1337428D01*
X5250571Y1766000D02*
X3750571Y1766000D01*
X3964857Y1623142D01*
X4107714Y1480285D01*
X4179142Y1337428D01*
X-4036285Y766000D02*
X-3964857Y694571D01*
X-3893428Y480285D01*
X-3893428Y337428D01*
X-3964857Y123142D01*
X-4107714Y-19714D01*
X-4250571Y-91142D01*
X-4536285Y-162571D01*
X-4750571Y-162571D01*
X-5036285Y-91142D01*
X-5179142Y-19714D01*
X-5322000Y123142D01*
X-5393428Y337428D01*
X-5393428Y480285D01*
X-5322000Y694571D01*
X-5250571Y766000D01*
X-5250571Y1337428D02*
X-5322000Y1408857D01*
X-5393428Y1551714D01*
X-5393428Y1908857D01*
X-5322000Y2051714D01*
X-5250571Y2123142D01*
X-5107714Y2194571D01*
X-4964857Y2194571D01*
X-4750571Y2123142D01*
X-3893428Y1266000D01*
X-3893428Y2194571D01*
X3052000Y-5107714D02*
X2980571Y-5179142D01*
X2766285Y-5250571D01*
X2623428Y-5250571D01*
X2409142Y-5179142D01*
X2266285Y-5036285D01*
X2194857Y-4893428D01*
X2123428Y-4607714D01*
X2123428Y-4393428D01*
X2194857Y-4107714D01*
X2266285Y-3964857D01*
X2409142Y-3822000D01*
X2623428Y-3750571D01*
X2766285Y-3750571D01*
X2980571Y-3822000D01*
X3052000Y-3893428D01*
X4480571Y-5250571D02*
X3623428Y-5250571D01*
X4052000Y-5250571D02*
X4052000Y-3750571D01*
X3909142Y-3964857D01*
X3766285Y-4107714D01*
X3623428Y-4179142D01*
M02*
