G04 #@! TF.GenerationSoftware,KiCad,Pcbnew,5.1.7-a382d34a8~88~ubuntu20.04.1*
G04 #@! TF.CreationDate,2020-12-13T21:22:30-08:00*
G04 #@! TF.ProjectId,smd-sun,736d642d-7375-46e2-9e6b-696361645f70,rev?*
G04 #@! TF.SameCoordinates,Original*
G04 #@! TF.FileFunction,Copper,L2,Bot*
G04 #@! TF.FilePolarity,Positive*
%FSLAX46Y46*%
G04 Gerber Fmt 4.6, Leading zero omitted, Abs format (unit mm)*
G04 Created by KiCad (PCBNEW 5.1.7-a382d34a8~88~ubuntu20.04.1) date 2020-12-13 21:22:30*
%MOMM*%
%LPD*%
G01*
G04 APERTURE LIST*
G04 #@! TA.AperFunction,SMDPad,CuDef*
%ADD10R,12.000000X12.000000*%
G04 #@! TD*
G04 #@! TA.AperFunction,SMDPad,CuDef*
%ADD11R,6.070000X6.070000*%
G04 #@! TD*
G04 #@! TA.AperFunction,ViaPad*
%ADD12C,0.800000*%
G04 #@! TD*
G04 #@! TA.AperFunction,ViaPad*
%ADD13C,5.010000*%
G04 #@! TD*
G04 #@! TA.AperFunction,Conductor*
%ADD14C,0.250000*%
G04 #@! TD*
G04 #@! TA.AperFunction,Conductor*
%ADD15C,0.127000*%
G04 #@! TD*
G04 #@! TA.AperFunction,Conductor*
%ADD16C,0.254000*%
G04 #@! TD*
G04 #@! TA.AperFunction,Conductor*
%ADD17C,0.100000*%
G04 #@! TD*
G04 APERTURE END LIST*
D10*
X0Y-1016000D03*
D11*
X12330000Y-1016000D03*
X-12330000Y-1016000D03*
D12*
X0Y-508000D03*
X1270000Y-9398000D03*
X4572000Y-4918958D03*
X5105072Y-7443418D03*
X-244548Y2935990D03*
X11100000Y2619002D03*
X12330000Y-1016000D03*
X-12330000Y-1016000D03*
X0Y24250000D03*
X0Y-24250000D03*
X24250000Y0D03*
X-24250000Y0D03*
X-17147000Y-17147000D03*
X17147000Y17147000D03*
X17147000Y-17147000D03*
X-17147000Y17147000D03*
X-2286000Y-15494000D03*
X9144000Y6604000D03*
X11181409Y-6646797D03*
D13*
X0Y17272000D03*
D12*
X16765070Y-2033070D03*
X-8972077Y6432077D03*
X-11000000Y-11600000D03*
X-11000000Y-9800000D03*
D14*
X1270000Y-2286000D02*
X0Y-1016000D01*
X1270000Y-9398000D02*
X1270000Y-2286000D01*
X5105072Y-7443418D02*
X5105072Y-5452030D01*
X5105072Y-5452030D02*
X4572000Y-4918958D01*
X0Y-4301000D02*
X617958Y-4918958D01*
X0Y-1016000D02*
X0Y-4301000D01*
X617958Y-4918958D02*
X4572000Y-4918958D01*
X0Y-1016000D02*
X0Y2691442D01*
X0Y2691442D02*
X-244548Y2935990D01*
X3635002Y2619002D02*
X0Y-1016000D01*
X11100000Y2619002D02*
X3635002Y2619002D01*
X4064000Y-14732000D02*
X4064000Y-13970000D01*
X8636000Y-13208000D02*
X9906000Y-14478000D01*
X4826000Y-13208000D02*
X8636000Y-13208000D01*
X4064000Y-13970000D02*
X4826000Y-13208000D01*
X-4064000Y-14478000D02*
X-4064000Y-14456297D01*
X-5470191Y-13050107D02*
X-8986107Y-13050107D01*
X-4064000Y-14456297D02*
X-5470191Y-13050107D01*
X-8986107Y-13050107D02*
X-10414000Y-14478000D01*
D15*
X-11000000Y-11600000D02*
X-11000000Y-9800000D01*
D16*
X1071420Y-24169991D02*
X885482Y-24322721D01*
X611703Y-24469521D01*
X314624Y-24560347D01*
X5553Y-24591741D01*
X-303720Y-24562506D01*
X-601427Y-24473756D01*
X-876230Y-24328869D01*
X-1070988Y-24171157D01*
X-4707830Y-14351000D01*
X4707829Y-14351000D01*
X1071420Y-24169991D01*
G04 #@! TA.AperFunction,Conductor*
D17*
G36*
X1071420Y-24169991D02*
G01*
X885482Y-24322721D01*
X611703Y-24469521D01*
X314624Y-24560347D01*
X5553Y-24591741D01*
X-303720Y-24562506D01*
X-601427Y-24473756D01*
X-876230Y-24328869D01*
X-1070988Y-24171157D01*
X-4707830Y-14351000D01*
X4707829Y-14351000D01*
X1071420Y-24169991D01*
G37*
G04 #@! TD.AperFunction*
D16*
X14257785Y-4742351D02*
X14257778Y-4742353D01*
X14257688Y-4742387D01*
X14239300Y-4749197D01*
X14219260Y-4758948D01*
X14213050Y-4761277D01*
X14207979Y-4763811D01*
X14021696Y-4858551D01*
X13990673Y-4878359D01*
X13959395Y-4897719D01*
X13954912Y-4901190D01*
X13790579Y-5030307D01*
X13763988Y-5055768D01*
X13737068Y-5080834D01*
X13733351Y-5085103D01*
X13733347Y-5085107D01*
X13733346Y-5085109D01*
X13597221Y-5243687D01*
X13576087Y-5273820D01*
X13554546Y-5303641D01*
X13551724Y-5308558D01*
X13448992Y-5490557D01*
X13434106Y-5524239D01*
X13418773Y-5557662D01*
X13416965Y-5563021D01*
X13416961Y-5563031D01*
X13416959Y-5563040D01*
X13351537Y-5761520D01*
X13343484Y-5797418D01*
X13334928Y-5833213D01*
X13334195Y-5838826D01*
X13334193Y-5838835D01*
X13334193Y-5838844D01*
X13308568Y-6046248D01*
X13307641Y-6083039D01*
X13306201Y-6119804D01*
X13306572Y-6125461D01*
X13321721Y-6333901D01*
X13327960Y-6370186D01*
X13333686Y-6406515D01*
X13335149Y-6411992D01*
X13383391Y-6587649D01*
X13385172Y-6600665D01*
X13404727Y-6657323D01*
X17848223Y-16332662D01*
X17824733Y-16572230D01*
X17734926Y-16869684D01*
X17589056Y-17144025D01*
X17392675Y-17384813D01*
X17153265Y-17582871D01*
X16879948Y-17730654D01*
X16583128Y-17822535D01*
X16333791Y-17848742D01*
X8717753Y-14351000D01*
X10555000Y-14351000D01*
X10579776Y-14348560D01*
X10603601Y-14341333D01*
X10625557Y-14329597D01*
X10644803Y-14313803D01*
X10660597Y-14294557D01*
X10672333Y-14272601D01*
X10679560Y-14248776D01*
X10682000Y-14224000D01*
X10682000Y-4433843D01*
X15090815Y-4433843D01*
X14257785Y-4742351D01*
G04 #@! TA.AperFunction,Conductor*
D17*
G36*
X14257785Y-4742351D02*
G01*
X14257778Y-4742353D01*
X14257688Y-4742387D01*
X14239300Y-4749197D01*
X14219260Y-4758948D01*
X14213050Y-4761277D01*
X14207979Y-4763811D01*
X14021696Y-4858551D01*
X13990673Y-4878359D01*
X13959395Y-4897719D01*
X13954912Y-4901190D01*
X13790579Y-5030307D01*
X13763988Y-5055768D01*
X13737068Y-5080834D01*
X13733351Y-5085103D01*
X13733347Y-5085107D01*
X13733346Y-5085109D01*
X13597221Y-5243687D01*
X13576087Y-5273820D01*
X13554546Y-5303641D01*
X13551724Y-5308558D01*
X13448992Y-5490557D01*
X13434106Y-5524239D01*
X13418773Y-5557662D01*
X13416965Y-5563021D01*
X13416961Y-5563031D01*
X13416959Y-5563040D01*
X13351537Y-5761520D01*
X13343484Y-5797418D01*
X13334928Y-5833213D01*
X13334195Y-5838826D01*
X13334193Y-5838835D01*
X13334193Y-5838844D01*
X13308568Y-6046248D01*
X13307641Y-6083039D01*
X13306201Y-6119804D01*
X13306572Y-6125461D01*
X13321721Y-6333901D01*
X13327960Y-6370186D01*
X13333686Y-6406515D01*
X13335149Y-6411992D01*
X13383391Y-6587649D01*
X13385172Y-6600665D01*
X13404727Y-6657323D01*
X17848223Y-16332662D01*
X17824733Y-16572230D01*
X17734926Y-16869684D01*
X17589056Y-17144025D01*
X17392675Y-17384813D01*
X17153265Y-17582871D01*
X16879948Y-17730654D01*
X16583128Y-17822535D01*
X16333791Y-17848742D01*
X8717753Y-14351000D01*
X10555000Y-14351000D01*
X10579776Y-14348560D01*
X10603601Y-14341333D01*
X10625557Y-14329597D01*
X10644803Y-14313803D01*
X10660597Y-14294557D01*
X10672333Y-14272601D01*
X10679560Y-14248776D01*
X10682000Y-14224000D01*
X10682000Y-4433843D01*
X15090815Y-4433843D01*
X14257785Y-4742351D01*
G37*
G04 #@! TD.AperFunction*
D16*
X-10682000Y-9086372D02*
X-10772191Y-9049013D01*
X-10923078Y-9019000D01*
X-11076922Y-9019000D01*
X-11227809Y-9049013D01*
X-11369942Y-9107887D01*
X-11497859Y-9193358D01*
X-11606642Y-9302141D01*
X-11692113Y-9430058D01*
X-11750987Y-9572191D01*
X-11781000Y-9723078D01*
X-11781000Y-9876922D01*
X-11750987Y-10027809D01*
X-11692113Y-10169942D01*
X-11606642Y-10297859D01*
X-11497859Y-10406642D01*
X-11444499Y-10442296D01*
X-11444500Y-10957705D01*
X-11497859Y-10993358D01*
X-11606642Y-11102141D01*
X-11692113Y-11230058D01*
X-11750987Y-11372191D01*
X-11781000Y-11523078D01*
X-11781000Y-11676922D01*
X-11750987Y-11827809D01*
X-11692113Y-11969942D01*
X-11606642Y-12097859D01*
X-11497859Y-12206642D01*
X-11369942Y-12292113D01*
X-11227809Y-12350987D01*
X-11076922Y-12381000D01*
X-10923078Y-12381000D01*
X-10772191Y-12350987D01*
X-10682000Y-12313628D01*
X-10682000Y-14224000D01*
X-10679560Y-14248776D01*
X-10672333Y-14272601D01*
X-10660597Y-14294557D01*
X-10644803Y-14313803D01*
X-10625557Y-14329597D01*
X-10603601Y-14341333D01*
X-10579776Y-14348560D01*
X-10555000Y-14351000D01*
X-8717752Y-14351000D01*
X-16332660Y-17848223D01*
X-16572230Y-17824733D01*
X-16869684Y-17734926D01*
X-17144025Y-17589056D01*
X-17384813Y-17392675D01*
X-17582871Y-17153265D01*
X-17730654Y-16879948D01*
X-17822535Y-16583128D01*
X-17848742Y-16333790D01*
X-13404728Y-6657324D01*
X-13400213Y-6644242D01*
X-13399692Y-6642868D01*
X-13399523Y-6642244D01*
X-13385172Y-6600666D01*
X-13384019Y-6592237D01*
X-13333167Y-6401884D01*
X-13327175Y-6365519D01*
X-13320696Y-6329356D01*
X-13320286Y-6323713D01*
X-13320284Y-6323702D01*
X-13320284Y-6323692D01*
X-13306591Y-6115161D01*
X-13307773Y-6078415D01*
X-13308444Y-6041589D01*
X-13309139Y-6035962D01*
X-13336213Y-5828732D01*
X-13344526Y-5792848D01*
X-13352321Y-5756926D01*
X-13354095Y-5751542D01*
X-13420903Y-5553518D01*
X-13436030Y-5519927D01*
X-13450654Y-5486203D01*
X-13453440Y-5481266D01*
X-13557440Y-5299990D01*
X-13578784Y-5270004D01*
X-13599695Y-5239740D01*
X-13603388Y-5235438D01*
X-13603389Y-5235436D01*
X-13603393Y-5235432D01*
X-13740616Y-5077814D01*
X-13767392Y-5052531D01*
X-13793773Y-5026916D01*
X-13798230Y-5023413D01*
X-13963462Y-4895446D01*
X-13994629Y-4875852D01*
X-14025489Y-4855844D01*
X-14030542Y-4853274D01*
X-14183668Y-4776738D01*
X-14185404Y-4775421D01*
X-14239300Y-4749196D01*
X-15090813Y-4433843D01*
X-10682000Y-4433843D01*
X-10682000Y-9086372D01*
G04 #@! TA.AperFunction,Conductor*
D17*
G36*
X-10682000Y-9086372D02*
G01*
X-10772191Y-9049013D01*
X-10923078Y-9019000D01*
X-11076922Y-9019000D01*
X-11227809Y-9049013D01*
X-11369942Y-9107887D01*
X-11497859Y-9193358D01*
X-11606642Y-9302141D01*
X-11692113Y-9430058D01*
X-11750987Y-9572191D01*
X-11781000Y-9723078D01*
X-11781000Y-9876922D01*
X-11750987Y-10027809D01*
X-11692113Y-10169942D01*
X-11606642Y-10297859D01*
X-11497859Y-10406642D01*
X-11444499Y-10442296D01*
X-11444500Y-10957705D01*
X-11497859Y-10993358D01*
X-11606642Y-11102141D01*
X-11692113Y-11230058D01*
X-11750987Y-11372191D01*
X-11781000Y-11523078D01*
X-11781000Y-11676922D01*
X-11750987Y-11827809D01*
X-11692113Y-11969942D01*
X-11606642Y-12097859D01*
X-11497859Y-12206642D01*
X-11369942Y-12292113D01*
X-11227809Y-12350987D01*
X-11076922Y-12381000D01*
X-10923078Y-12381000D01*
X-10772191Y-12350987D01*
X-10682000Y-12313628D01*
X-10682000Y-14224000D01*
X-10679560Y-14248776D01*
X-10672333Y-14272601D01*
X-10660597Y-14294557D01*
X-10644803Y-14313803D01*
X-10625557Y-14329597D01*
X-10603601Y-14341333D01*
X-10579776Y-14348560D01*
X-10555000Y-14351000D01*
X-8717752Y-14351000D01*
X-16332660Y-17848223D01*
X-16572230Y-17824733D01*
X-16869684Y-17734926D01*
X-17144025Y-17589056D01*
X-17384813Y-17392675D01*
X-17582871Y-17153265D01*
X-17730654Y-16879948D01*
X-17822535Y-16583128D01*
X-17848742Y-16333790D01*
X-13404728Y-6657324D01*
X-13400213Y-6644242D01*
X-13399692Y-6642868D01*
X-13399523Y-6642244D01*
X-13385172Y-6600666D01*
X-13384019Y-6592237D01*
X-13333167Y-6401884D01*
X-13327175Y-6365519D01*
X-13320696Y-6329356D01*
X-13320286Y-6323713D01*
X-13320284Y-6323702D01*
X-13320284Y-6323692D01*
X-13306591Y-6115161D01*
X-13307773Y-6078415D01*
X-13308444Y-6041589D01*
X-13309139Y-6035962D01*
X-13336213Y-5828732D01*
X-13344526Y-5792848D01*
X-13352321Y-5756926D01*
X-13354095Y-5751542D01*
X-13420903Y-5553518D01*
X-13436030Y-5519927D01*
X-13450654Y-5486203D01*
X-13453440Y-5481266D01*
X-13557440Y-5299990D01*
X-13578784Y-5270004D01*
X-13599695Y-5239740D01*
X-13603388Y-5235438D01*
X-13603389Y-5235436D01*
X-13603393Y-5235432D01*
X-13740616Y-5077814D01*
X-13767392Y-5052531D01*
X-13793773Y-5026916D01*
X-13798230Y-5023413D01*
X-13963462Y-4895446D01*
X-13994629Y-4875852D01*
X-14025489Y-4855844D01*
X-14030542Y-4853274D01*
X-14183668Y-4776738D01*
X-14185404Y-4775421D01*
X-14239300Y-4749196D01*
X-15090813Y-4433843D01*
X-10682000Y-4433843D01*
X-10682000Y-9086372D01*
G37*
G04 #@! TD.AperFunction*
D16*
X303720Y24562506D02*
X601428Y24473756D01*
X876230Y24328869D01*
X1070988Y24171157D01*
X4749196Y14239300D01*
X4758951Y14219252D01*
X4761277Y14213050D01*
X4763811Y14207979D01*
X4858551Y14021697D01*
X4878362Y13990667D01*
X4897719Y13959395D01*
X4901188Y13954915D01*
X4901191Y13954911D01*
X4901194Y13954908D01*
X5030307Y13790579D01*
X5055767Y13763989D01*
X5080833Y13737069D01*
X5085103Y13733351D01*
X5085107Y13733347D01*
X5085112Y13733344D01*
X5243686Y13597221D01*
X5273850Y13576066D01*
X5303642Y13554546D01*
X5308559Y13551724D01*
X5490557Y13448992D01*
X5524239Y13434106D01*
X5557662Y13418773D01*
X5563021Y13416965D01*
X5563031Y13416961D01*
X5563040Y13416959D01*
X5761519Y13351537D01*
X5797463Y13343474D01*
X5833213Y13334929D01*
X5838826Y13334195D01*
X5838835Y13334193D01*
X5838844Y13334193D01*
X6046248Y13308568D01*
X6083039Y13307641D01*
X6119804Y13306201D01*
X6125461Y13306572D01*
X6333901Y13321721D01*
X6370186Y13327960D01*
X6406515Y13333686D01*
X6411992Y13335149D01*
X6587649Y13383391D01*
X6600665Y13385172D01*
X6657323Y13404727D01*
X16332662Y17848223D01*
X16572229Y17824733D01*
X16869688Y17734925D01*
X17144028Y17589055D01*
X17384813Y17392675D01*
X17582873Y17153264D01*
X17730654Y16879947D01*
X17822535Y16583128D01*
X17848742Y16333791D01*
X13404727Y6657323D01*
X13400208Y6644230D01*
X13399692Y6642868D01*
X13399524Y6642249D01*
X13385172Y6600665D01*
X13384019Y6592239D01*
X13333167Y6401885D01*
X13327174Y6365513D01*
X13320696Y6329356D01*
X13320286Y6323713D01*
X13320284Y6323702D01*
X13320284Y6323692D01*
X13306591Y6115161D01*
X13307773Y6078415D01*
X13308444Y6041589D01*
X13309139Y6035962D01*
X13336213Y5828732D01*
X13344526Y5792848D01*
X13352321Y5756926D01*
X13354095Y5751542D01*
X13420903Y5553518D01*
X13436030Y5519927D01*
X13450654Y5486203D01*
X13453440Y5481266D01*
X13557440Y5299990D01*
X13578773Y5270020D01*
X13599695Y5239740D01*
X13603388Y5235438D01*
X13740616Y5077815D01*
X13767372Y5052550D01*
X13793773Y5026916D01*
X13798230Y5023413D01*
X13963463Y4895446D01*
X13994606Y4875867D01*
X14025490Y4855844D01*
X14030540Y4853276D01*
X14030544Y4853273D01*
X14030548Y4853271D01*
X14183672Y4776737D01*
X14185404Y4775422D01*
X14239300Y4749197D01*
X24169990Y1071420D01*
X24322722Y885482D01*
X24469521Y611703D01*
X24560347Y314624D01*
X24591741Y5553D01*
X24562506Y-303720D01*
X24473756Y-601427D01*
X24328869Y-876230D01*
X24171157Y-1070988D01*
X15716168Y-4202247D01*
X15718701Y-4197508D01*
X15740487Y-4125689D01*
X15747843Y-4051000D01*
X15747843Y2019000D01*
X15740487Y2093689D01*
X15718701Y2165508D01*
X15683322Y2231696D01*
X15635711Y2289711D01*
X15577696Y2337322D01*
X15511508Y2372701D01*
X15439689Y2394487D01*
X15365000Y2401843D01*
X11853105Y2401843D01*
X11881000Y2542080D01*
X11881000Y2695924D01*
X11850987Y2846811D01*
X11792113Y2988944D01*
X11706642Y3116861D01*
X11597859Y3225644D01*
X11469942Y3311115D01*
X11327809Y3369989D01*
X11176922Y3400002D01*
X11023078Y3400002D01*
X10872191Y3369989D01*
X10730058Y3311115D01*
X10682000Y3279004D01*
X10682000Y3564000D01*
X10679560Y3588776D01*
X10672333Y3612601D01*
X10660597Y3634557D01*
X10644803Y3653803D01*
X4661803Y9636803D01*
X4642557Y9652597D01*
X4620601Y9664333D01*
X4596776Y9671560D01*
X4572000Y9674000D01*
X-4572000Y9674000D01*
X-4596776Y9671560D01*
X-4620601Y9664333D01*
X-4642557Y9652597D01*
X-4661803Y9636803D01*
X-10644803Y3653803D01*
X-10660597Y3634557D01*
X-10672333Y3612601D01*
X-10679560Y3588776D01*
X-10682000Y3564000D01*
X-10682000Y2401843D01*
X-15365000Y2401843D01*
X-15439689Y2394487D01*
X-15511508Y2372701D01*
X-15577696Y2337322D01*
X-15635711Y2289711D01*
X-15683322Y2231696D01*
X-15718701Y2165508D01*
X-15740487Y2093689D01*
X-15747843Y2019000D01*
X-15747843Y-4051000D01*
X-15740487Y-4125689D01*
X-15718701Y-4197508D01*
X-15716168Y-4202246D01*
X-24169991Y-1071420D01*
X-24322721Y-885482D01*
X-24469521Y-611703D01*
X-24560347Y-314624D01*
X-24591741Y-5553D01*
X-24562506Y303720D01*
X-24473756Y601428D01*
X-24328869Y876230D01*
X-24171157Y1070988D01*
X-14239300Y4749196D01*
X-14219252Y4758951D01*
X-14213050Y4761277D01*
X-14207979Y4763811D01*
X-14021697Y4858551D01*
X-13990667Y4878362D01*
X-13959395Y4897719D01*
X-13954913Y4901190D01*
X-13954911Y4901191D01*
X-13954908Y4901194D01*
X-13790579Y5030307D01*
X-13763989Y5055767D01*
X-13737069Y5080833D01*
X-13733351Y5085103D01*
X-13733347Y5085107D01*
X-13733344Y5085112D01*
X-13597221Y5243686D01*
X-13576066Y5273850D01*
X-13554546Y5303642D01*
X-13551724Y5308559D01*
X-13448992Y5490557D01*
X-13434106Y5524239D01*
X-13418773Y5557662D01*
X-13416965Y5563021D01*
X-13416961Y5563031D01*
X-13416959Y5563040D01*
X-13351537Y5761519D01*
X-13343474Y5797463D01*
X-13334929Y5833213D01*
X-13334195Y5838826D01*
X-13334193Y5838835D01*
X-13334193Y5838844D01*
X-13308568Y6046248D01*
X-13307641Y6083036D01*
X-13306201Y6119803D01*
X-13306572Y6125460D01*
X-13321721Y6333901D01*
X-13327960Y6370186D01*
X-13333686Y6406515D01*
X-13335149Y6411992D01*
X-13383390Y6587648D01*
X-13385172Y6600666D01*
X-13404728Y6657324D01*
X-17848223Y16332660D01*
X-17824733Y16572229D01*
X-17734925Y16869688D01*
X-17589055Y17144028D01*
X-17392675Y17384813D01*
X-17153264Y17582873D01*
X-16879947Y17730654D01*
X-16583128Y17822535D01*
X-16333790Y17848742D01*
X-6657324Y13404728D01*
X-6644242Y13400213D01*
X-6642868Y13399692D01*
X-6642244Y13399523D01*
X-6600666Y13385172D01*
X-6592237Y13384019D01*
X-6401884Y13333167D01*
X-6365519Y13327175D01*
X-6329356Y13320696D01*
X-6323713Y13320286D01*
X-6323702Y13320284D01*
X-6323692Y13320284D01*
X-6115161Y13306591D01*
X-6078415Y13307773D01*
X-6041589Y13308444D01*
X-6035962Y13309139D01*
X-5828732Y13336213D01*
X-5792848Y13344526D01*
X-5756926Y13352321D01*
X-5751542Y13354095D01*
X-5553518Y13420903D01*
X-5519927Y13436030D01*
X-5486203Y13450654D01*
X-5481266Y13453440D01*
X-5299990Y13557440D01*
X-5270020Y13578773D01*
X-5239740Y13599695D01*
X-5235438Y13603388D01*
X-5077815Y13740616D01*
X-5052550Y13767372D01*
X-5026916Y13793773D01*
X-5023413Y13798230D01*
X-4895446Y13963463D01*
X-4875867Y13994606D01*
X-4855844Y14025490D01*
X-4853274Y14030543D01*
X-4853273Y14030544D01*
X-4853271Y14030548D01*
X-4776737Y14183672D01*
X-4775422Y14185404D01*
X-4749197Y14239300D01*
X-1071420Y24169990D01*
X-885482Y24322722D01*
X-611703Y24469521D01*
X-314624Y24560347D01*
X-5553Y24591741D01*
X303720Y24562506D01*
G04 #@! TA.AperFunction,Conductor*
D17*
G36*
X303720Y24562506D02*
G01*
X601428Y24473756D01*
X876230Y24328869D01*
X1070988Y24171157D01*
X4749196Y14239300D01*
X4758951Y14219252D01*
X4761277Y14213050D01*
X4763811Y14207979D01*
X4858551Y14021697D01*
X4878362Y13990667D01*
X4897719Y13959395D01*
X4901188Y13954915D01*
X4901191Y13954911D01*
X4901194Y13954908D01*
X5030307Y13790579D01*
X5055767Y13763989D01*
X5080833Y13737069D01*
X5085103Y13733351D01*
X5085107Y13733347D01*
X5085112Y13733344D01*
X5243686Y13597221D01*
X5273850Y13576066D01*
X5303642Y13554546D01*
X5308559Y13551724D01*
X5490557Y13448992D01*
X5524239Y13434106D01*
X5557662Y13418773D01*
X5563021Y13416965D01*
X5563031Y13416961D01*
X5563040Y13416959D01*
X5761519Y13351537D01*
X5797463Y13343474D01*
X5833213Y13334929D01*
X5838826Y13334195D01*
X5838835Y13334193D01*
X5838844Y13334193D01*
X6046248Y13308568D01*
X6083039Y13307641D01*
X6119804Y13306201D01*
X6125461Y13306572D01*
X6333901Y13321721D01*
X6370186Y13327960D01*
X6406515Y13333686D01*
X6411992Y13335149D01*
X6587649Y13383391D01*
X6600665Y13385172D01*
X6657323Y13404727D01*
X16332662Y17848223D01*
X16572229Y17824733D01*
X16869688Y17734925D01*
X17144028Y17589055D01*
X17384813Y17392675D01*
X17582873Y17153264D01*
X17730654Y16879947D01*
X17822535Y16583128D01*
X17848742Y16333791D01*
X13404727Y6657323D01*
X13400208Y6644230D01*
X13399692Y6642868D01*
X13399524Y6642249D01*
X13385172Y6600665D01*
X13384019Y6592239D01*
X13333167Y6401885D01*
X13327174Y6365513D01*
X13320696Y6329356D01*
X13320286Y6323713D01*
X13320284Y6323702D01*
X13320284Y6323692D01*
X13306591Y6115161D01*
X13307773Y6078415D01*
X13308444Y6041589D01*
X13309139Y6035962D01*
X13336213Y5828732D01*
X13344526Y5792848D01*
X13352321Y5756926D01*
X13354095Y5751542D01*
X13420903Y5553518D01*
X13436030Y5519927D01*
X13450654Y5486203D01*
X13453440Y5481266D01*
X13557440Y5299990D01*
X13578773Y5270020D01*
X13599695Y5239740D01*
X13603388Y5235438D01*
X13740616Y5077815D01*
X13767372Y5052550D01*
X13793773Y5026916D01*
X13798230Y5023413D01*
X13963463Y4895446D01*
X13994606Y4875867D01*
X14025490Y4855844D01*
X14030540Y4853276D01*
X14030544Y4853273D01*
X14030548Y4853271D01*
X14183672Y4776737D01*
X14185404Y4775422D01*
X14239300Y4749197D01*
X24169990Y1071420D01*
X24322722Y885482D01*
X24469521Y611703D01*
X24560347Y314624D01*
X24591741Y5553D01*
X24562506Y-303720D01*
X24473756Y-601427D01*
X24328869Y-876230D01*
X24171157Y-1070988D01*
X15716168Y-4202247D01*
X15718701Y-4197508D01*
X15740487Y-4125689D01*
X15747843Y-4051000D01*
X15747843Y2019000D01*
X15740487Y2093689D01*
X15718701Y2165508D01*
X15683322Y2231696D01*
X15635711Y2289711D01*
X15577696Y2337322D01*
X15511508Y2372701D01*
X15439689Y2394487D01*
X15365000Y2401843D01*
X11853105Y2401843D01*
X11881000Y2542080D01*
X11881000Y2695924D01*
X11850987Y2846811D01*
X11792113Y2988944D01*
X11706642Y3116861D01*
X11597859Y3225644D01*
X11469942Y3311115D01*
X11327809Y3369989D01*
X11176922Y3400002D01*
X11023078Y3400002D01*
X10872191Y3369989D01*
X10730058Y3311115D01*
X10682000Y3279004D01*
X10682000Y3564000D01*
X10679560Y3588776D01*
X10672333Y3612601D01*
X10660597Y3634557D01*
X10644803Y3653803D01*
X4661803Y9636803D01*
X4642557Y9652597D01*
X4620601Y9664333D01*
X4596776Y9671560D01*
X4572000Y9674000D01*
X-4572000Y9674000D01*
X-4596776Y9671560D01*
X-4620601Y9664333D01*
X-4642557Y9652597D01*
X-4661803Y9636803D01*
X-10644803Y3653803D01*
X-10660597Y3634557D01*
X-10672333Y3612601D01*
X-10679560Y3588776D01*
X-10682000Y3564000D01*
X-10682000Y2401843D01*
X-15365000Y2401843D01*
X-15439689Y2394487D01*
X-15511508Y2372701D01*
X-15577696Y2337322D01*
X-15635711Y2289711D01*
X-15683322Y2231696D01*
X-15718701Y2165508D01*
X-15740487Y2093689D01*
X-15747843Y2019000D01*
X-15747843Y-4051000D01*
X-15740487Y-4125689D01*
X-15718701Y-4197508D01*
X-15716168Y-4202246D01*
X-24169991Y-1071420D01*
X-24322721Y-885482D01*
X-24469521Y-611703D01*
X-24560347Y-314624D01*
X-24591741Y-5553D01*
X-24562506Y303720D01*
X-24473756Y601428D01*
X-24328869Y876230D01*
X-24171157Y1070988D01*
X-14239300Y4749196D01*
X-14219252Y4758951D01*
X-14213050Y4761277D01*
X-14207979Y4763811D01*
X-14021697Y4858551D01*
X-13990667Y4878362D01*
X-13959395Y4897719D01*
X-13954913Y4901190D01*
X-13954911Y4901191D01*
X-13954908Y4901194D01*
X-13790579Y5030307D01*
X-13763989Y5055767D01*
X-13737069Y5080833D01*
X-13733351Y5085103D01*
X-13733347Y5085107D01*
X-13733344Y5085112D01*
X-13597221Y5243686D01*
X-13576066Y5273850D01*
X-13554546Y5303642D01*
X-13551724Y5308559D01*
X-13448992Y5490557D01*
X-13434106Y5524239D01*
X-13418773Y5557662D01*
X-13416965Y5563021D01*
X-13416961Y5563031D01*
X-13416959Y5563040D01*
X-13351537Y5761519D01*
X-13343474Y5797463D01*
X-13334929Y5833213D01*
X-13334195Y5838826D01*
X-13334193Y5838835D01*
X-13334193Y5838844D01*
X-13308568Y6046248D01*
X-13307641Y6083036D01*
X-13306201Y6119803D01*
X-13306572Y6125460D01*
X-13321721Y6333901D01*
X-13327960Y6370186D01*
X-13333686Y6406515D01*
X-13335149Y6411992D01*
X-13383390Y6587648D01*
X-13385172Y6600666D01*
X-13404728Y6657324D01*
X-17848223Y16332660D01*
X-17824733Y16572229D01*
X-17734925Y16869688D01*
X-17589055Y17144028D01*
X-17392675Y17384813D01*
X-17153264Y17582873D01*
X-16879947Y17730654D01*
X-16583128Y17822535D01*
X-16333790Y17848742D01*
X-6657324Y13404728D01*
X-6644242Y13400213D01*
X-6642868Y13399692D01*
X-6642244Y13399523D01*
X-6600666Y13385172D01*
X-6592237Y13384019D01*
X-6401884Y13333167D01*
X-6365519Y13327175D01*
X-6329356Y13320696D01*
X-6323713Y13320286D01*
X-6323702Y13320284D01*
X-6323692Y13320284D01*
X-6115161Y13306591D01*
X-6078415Y13307773D01*
X-6041589Y13308444D01*
X-6035962Y13309139D01*
X-5828732Y13336213D01*
X-5792848Y13344526D01*
X-5756926Y13352321D01*
X-5751542Y13354095D01*
X-5553518Y13420903D01*
X-5519927Y13436030D01*
X-5486203Y13450654D01*
X-5481266Y13453440D01*
X-5299990Y13557440D01*
X-5270020Y13578773D01*
X-5239740Y13599695D01*
X-5235438Y13603388D01*
X-5077815Y13740616D01*
X-5052550Y13767372D01*
X-5026916Y13793773D01*
X-5023413Y13798230D01*
X-4895446Y13963463D01*
X-4875867Y13994606D01*
X-4855844Y14025490D01*
X-4853274Y14030543D01*
X-4853273Y14030544D01*
X-4853271Y14030548D01*
X-4776737Y14183672D01*
X-4775422Y14185404D01*
X-4749197Y14239300D01*
X-1071420Y24169990D01*
X-885482Y24322722D01*
X-611703Y24469521D01*
X-314624Y24560347D01*
X-5553Y24591741D01*
X303720Y24562506D01*
G37*
G04 #@! TD.AperFunction*
M02*
