M48
; DRILL file {KiCad 5.1.6-c6e7f7d~86~ubuntu20.04.1} date Mon Jul  6 06:36:36 2020
; FORMAT={-:-/ absolute / metric / decimal}
; #@! TF.CreationDate,2020-07-06T06:36:36-07:00
; #@! TF.GenerationSoftware,Kicad,Pcbnew,5.1.6-c6e7f7d~86~ubuntu20.04.1
FMAT,2
METRIC
T1C0.400
T2C5.000
%
G90
G05
T1
X-24.25Y0.0
X-17.147Y17.147
X-17.147Y-17.147
X-9.144Y6.604
X-8.128Y3.81
X-2.286Y-15.494
X0.0Y24.25
X0.0Y3.302
X0.0Y-0.508
X0.0Y-24.25
X1.27Y-9.398
X4.572Y-5.08
X5.588Y-7.112
X6.604Y2.794
X9.144Y6.604
X11.181Y-6.647
X16.51Y-1.778
X17.147Y17.147
X17.147Y-17.147
X24.25Y0.0
T2
X0.0Y17.272
T0
M30
