M48
; DRILL file {KiCad 5.1.5-52549c5~86~ubuntu19.04.1} date Fri 03 Jul 2020 08:48:03 AM PDT
; FORMAT={-:-/ absolute / inch / decimal}
; #@! TF.CreationDate,2020-07-03T08:48:03-07:00
; #@! TF.GenerationSoftware,Kicad,Pcbnew,5.1.5-52549c5~86~ubuntu19.04.1
FMAT,2
INCH
T1C0.0157
T2C0.1969
%
G90
G05
T1
X-0.9547Y0.0
X-0.6751Y0.6751
X-0.6751Y-0.6751
X-0.36Y0.26
X-0.32Y0.15
X-0.09Y-0.61
X0.0Y0.9547
X0.0Y0.13
X0.0Y-0.02
X0.0Y-0.9547
X0.05Y-0.37
X0.18Y-0.2
X0.22Y-0.28
X0.26Y0.11
X0.36Y0.26
X0.4402Y-0.2617
X0.65Y-0.07
X0.6751Y0.6751
X0.6751Y-0.6751
X0.9547Y0.0
T2
X0.0Y0.68
T0
M30
