G04 #@! TF.GenerationSoftware,KiCad,Pcbnew,5.1.5-52549c5~86~ubuntu19.04.1*
G04 #@! TF.CreationDate,2020-07-03T08:48:01-07:00*
G04 #@! TF.ProjectId,smd-star,736d642d-7374-4617-922e-6b696361645f,rev?*
G04 #@! TF.SameCoordinates,Original*
G04 #@! TF.FileFunction,Legend,Bot*
G04 #@! TF.FilePolarity,Positive*
%FSLAX46Y46*%
G04 Gerber Fmt 4.6, Leading zero omitted, Abs format (unit mm)*
G04 Created by KiCad (PCBNEW 5.1.5-52549c5~86~ubuntu19.04.1) date 2020-07-03 08:48:01*
%MOMM*%
%LPD*%
G04 APERTURE LIST*
%ADD10C,0.300000*%
%ADD11C,0.010000*%
%ADD12C,0.015000*%
G04 APERTURE END LIST*
D10*
X5714285Y-7540761D02*
X5714285Y-8969333D01*
X5809523Y-9255047D01*
X6000000Y-9445523D01*
X6285714Y-9540761D01*
X6476190Y-9540761D01*
X3904761Y-8207428D02*
X3904761Y-9540761D01*
X4761904Y-8207428D02*
X4761904Y-9255047D01*
X4666666Y-9445523D01*
X4476190Y-9540761D01*
X4190476Y-9540761D01*
X3999999Y-9445523D01*
X3904761Y-9350285D01*
X2666666Y-9540761D02*
X2857142Y-9445523D01*
X2952380Y-9255047D01*
X2952380Y-7540761D01*
X2095238Y-8207428D02*
X1619047Y-9540761D01*
X1142857Y-8207428D02*
X1619047Y-9540761D01*
X1809523Y-10016952D01*
X1904761Y-10112190D01*
X2095238Y-10207428D01*
X476190Y-7731238D02*
X380952Y-7636000D01*
X190476Y-7540761D01*
X-285714Y-7540761D01*
X-476190Y-7636000D01*
X-571428Y-7731238D01*
X-666666Y-7921714D01*
X-666666Y-8112190D01*
X-571428Y-8397904D01*
X571428Y-9540761D01*
X-666666Y-9540761D01*
X-1904761Y-7540761D02*
X-2095238Y-7540761D01*
X-2285714Y-7636000D01*
X-2380952Y-7731238D01*
X-2476190Y-7921714D01*
X-2571428Y-8302666D01*
X-2571428Y-8778857D01*
X-2476190Y-9159809D01*
X-2380952Y-9350285D01*
X-2285714Y-9445523D01*
X-2095238Y-9540761D01*
X-1904761Y-9540761D01*
X-1714285Y-9445523D01*
X-1619047Y-9350285D01*
X-1523809Y-9159809D01*
X-1428571Y-8778857D01*
X-1428571Y-8302666D01*
X-1523809Y-7921714D01*
X-1619047Y-7731238D01*
X-1714285Y-7636000D01*
X-1904761Y-7540761D01*
X-3333333Y-7731238D02*
X-3428571Y-7636000D01*
X-3619047Y-7540761D01*
X-4095238Y-7540761D01*
X-4285714Y-7636000D01*
X-4380952Y-7731238D01*
X-4476190Y-7921714D01*
X-4476190Y-8112190D01*
X-4380952Y-8397904D01*
X-3238095Y-9540761D01*
X-4476190Y-9540761D01*
X-5714285Y-7540761D02*
X-5904761Y-7540761D01*
X-6095238Y-7636000D01*
X-6190476Y-7731238D01*
X-6285714Y-7921714D01*
X-6380952Y-8302666D01*
X-6380952Y-8778857D01*
X-6285714Y-9159809D01*
X-6190476Y-9350285D01*
X-6095238Y-9445523D01*
X-5904761Y-9540761D01*
X-5714285Y-9540761D01*
X-5523809Y-9445523D01*
X-5428571Y-9350285D01*
X-5333333Y-9159809D01*
X-5238095Y-8778857D01*
X-5238095Y-8302666D01*
X-5333333Y-7921714D01*
X-5428571Y-7731238D01*
X-5523809Y-7636000D01*
X-5714285Y-7540761D01*
X12476190Y-12493523D02*
X12285714Y-12588761D01*
X11904761Y-12588761D01*
X11714285Y-12493523D01*
X11619047Y-12303047D01*
X11619047Y-12207809D01*
X11714285Y-12017333D01*
X11904761Y-11922095D01*
X12190476Y-11922095D01*
X12380952Y-11826857D01*
X12476190Y-11636380D01*
X12476190Y-11541142D01*
X12380952Y-11350666D01*
X12190476Y-11255428D01*
X11904761Y-11255428D01*
X11714285Y-11350666D01*
X10761904Y-12588761D02*
X10761904Y-11255428D01*
X10761904Y-11445904D02*
X10666666Y-11350666D01*
X10476190Y-11255428D01*
X10190476Y-11255428D01*
X10000000Y-11350666D01*
X9904761Y-11541142D01*
X9904761Y-12588761D01*
X9904761Y-11541142D02*
X9809523Y-11350666D01*
X9619047Y-11255428D01*
X9333333Y-11255428D01*
X9142857Y-11350666D01*
X9047619Y-11541142D01*
X9047619Y-12588761D01*
X7238095Y-12588761D02*
X7238095Y-10588761D01*
X7238095Y-12493523D02*
X7428571Y-12588761D01*
X7809523Y-12588761D01*
X8000000Y-12493523D01*
X8095238Y-12398285D01*
X8190476Y-12207809D01*
X8190476Y-11636380D01*
X8095238Y-11445904D01*
X8000000Y-11350666D01*
X7809523Y-11255428D01*
X7428571Y-11255428D01*
X7238095Y-11350666D01*
X6285714Y-11826857D02*
X4761904Y-11826857D01*
X3904761Y-12493523D02*
X3714285Y-12588761D01*
X3333333Y-12588761D01*
X3142857Y-12493523D01*
X3047619Y-12303047D01*
X3047619Y-12207809D01*
X3142857Y-12017333D01*
X3333333Y-11922095D01*
X3619047Y-11922095D01*
X3809523Y-11826857D01*
X3904761Y-11636380D01*
X3904761Y-11541142D01*
X3809523Y-11350666D01*
X3619047Y-11255428D01*
X3333333Y-11255428D01*
X3142857Y-11350666D01*
X1333333Y-11255428D02*
X1333333Y-12588761D01*
X2190476Y-11255428D02*
X2190476Y-12303047D01*
X2095238Y-12493523D01*
X1904761Y-12588761D01*
X1619047Y-12588761D01*
X1428571Y-12493523D01*
X1333333Y-12398285D01*
X380952Y-11255428D02*
X380952Y-12588761D01*
X380952Y-11445904D02*
X285714Y-11350666D01*
X95238Y-11255428D01*
X-190476Y-11255428D01*
X-380952Y-11350666D01*
X-476190Y-11541142D01*
X-476190Y-12588761D01*
X-1428571Y-12398285D02*
X-1523809Y-12493523D01*
X-1428571Y-12588761D01*
X-1333333Y-12493523D01*
X-1428571Y-12398285D01*
X-1428571Y-12588761D01*
X-2095238Y-11255428D02*
X-2857142Y-11255428D01*
X-2380952Y-10588761D02*
X-2380952Y-12303047D01*
X-2476190Y-12493523D01*
X-2666666Y-12588761D01*
X-2857142Y-12588761D01*
X-3809523Y-12588761D02*
X-3619047Y-12493523D01*
X-3523809Y-12398285D01*
X-3428571Y-12207809D01*
X-3428571Y-11636380D01*
X-3523809Y-11445904D01*
X-3619047Y-11350666D01*
X-3809523Y-11255428D01*
X-4095238Y-11255428D01*
X-4285714Y-11350666D01*
X-4380952Y-11445904D01*
X-4476190Y-11636380D01*
X-4476190Y-12207809D01*
X-4380952Y-12398285D01*
X-4285714Y-12493523D01*
X-4095238Y-12588761D01*
X-3809523Y-12588761D01*
X-5333333Y-12588761D02*
X-5333333Y-11255428D01*
X-5333333Y-11445904D02*
X-5428571Y-11350666D01*
X-5619047Y-11255428D01*
X-5904761Y-11255428D01*
X-6095238Y-11350666D01*
X-6190476Y-11541142D01*
X-6190476Y-12588761D01*
X-6190476Y-11541142D02*
X-6285714Y-11350666D01*
X-6476190Y-11255428D01*
X-6761904Y-11255428D01*
X-6952380Y-11350666D01*
X-7047619Y-11541142D01*
X-7047619Y-12588761D01*
X-7999999Y-12588761D02*
X-7999999Y-10588761D01*
X-8190476Y-11826857D02*
X-8761904Y-12588761D01*
X-8761904Y-11255428D02*
X-7999999Y-12017333D01*
X-9619047Y-12398285D02*
X-9714285Y-12493523D01*
X-9619047Y-12588761D01*
X-9523809Y-12493523D01*
X-9619047Y-12398285D01*
X-9619047Y-12588761D01*
X-10571428Y-12588761D02*
X-10571428Y-11255428D01*
X-10571428Y-10588761D02*
X-10476190Y-10684000D01*
X-10571428Y-10779238D01*
X-10666666Y-10684000D01*
X-10571428Y-10588761D01*
X-10571428Y-10779238D01*
X-11523809Y-11255428D02*
X-11523809Y-12588761D01*
X-11523809Y-11445904D02*
X-11619047Y-11350666D01*
X-11809523Y-11255428D01*
X-12095238Y-11255428D01*
X-12285714Y-11350666D01*
X-12380952Y-11541142D01*
X-12380952Y-12588761D01*
D11*
G36*
X-425168Y14293443D02*
G01*
X-742274Y14254208D01*
X-1273873Y14112133D01*
X-1766647Y13897497D01*
X-2214964Y13615564D01*
X-2613195Y13271600D01*
X-2955710Y12870871D01*
X-3236878Y12418641D01*
X-3451070Y11920177D01*
X-3534560Y11642720D01*
X-3580528Y11383767D01*
X-3602480Y11075983D01*
X-3600437Y10751722D01*
X-3574416Y10443338D01*
X-3533764Y10219104D01*
X-3436798Y9925251D01*
X-3286480Y9599997D01*
X-3094535Y9266102D01*
X-2889697Y8968777D01*
X-2778487Y8816495D01*
X-2680419Y8674293D01*
X-2612289Y8566767D01*
X-2599906Y8544382D01*
X-2530162Y8367303D01*
X-2467065Y8128733D01*
X-2414769Y7851812D01*
X-2377425Y7559681D01*
X-2359186Y7275480D01*
X-2358062Y7196666D01*
X-2369377Y6889997D01*
X-2410011Y6640914D01*
X-2488925Y6424822D01*
X-2615079Y6217124D01*
X-2795805Y5995058D01*
X-2940499Y5819701D01*
X-3021897Y5691427D01*
X-3039751Y5619627D01*
X-3019942Y5590636D01*
X-2963844Y5545346D01*
X-2866661Y5481028D01*
X-2723595Y5394953D01*
X-2529848Y5284390D01*
X-2280623Y5146610D01*
X-1971122Y4978883D01*
X-1596548Y4778480D01*
X-1152102Y4542670D01*
X-1079500Y4504281D01*
X-702538Y4305861D01*
X-346321Y4119953D01*
X-18192Y3950279D01*
X274508Y3800561D01*
X524436Y3674520D01*
X724251Y3575879D01*
X866609Y3508359D01*
X944169Y3475683D01*
X954616Y3473167D01*
X1051023Y3495035D01*
X1092200Y3522133D01*
X1128725Y3582279D01*
X1139713Y3674655D01*
X1124677Y3814560D01*
X1083127Y4017294D01*
X1075348Y4050790D01*
X1030218Y4346502D01*
X1031994Y4663141D01*
X1081792Y5017236D01*
X1164269Y5365750D01*
X1221069Y5570376D01*
X1269439Y5703532D01*
X1324734Y5775003D01*
X1402309Y5794577D01*
X1517517Y5772040D01*
X1685713Y5717179D01*
X1705252Y5710558D01*
X2051166Y5636034D01*
X2395389Y5644694D01*
X2730557Y5735246D01*
X3049309Y5906396D01*
X3122692Y5959430D01*
X3292502Y6127883D01*
X3460396Y6366320D01*
X3620768Y6660138D01*
X3768014Y6994734D01*
X3896530Y7355506D01*
X4000709Y7727852D01*
X4074948Y8097167D01*
X4113641Y8448851D01*
X4117530Y8551333D01*
X4117349Y8714059D01*
X4113482Y8750773D01*
X3723654Y8750773D01*
X3722684Y8633521D01*
X3712076Y8451228D01*
X3711970Y8449597D01*
X3664028Y8067883D01*
X3571051Y7649138D01*
X3440415Y7222825D01*
X3336687Y6950508D01*
X3232096Y6730596D01*
X3109125Y6548249D01*
X2945019Y6367276D01*
X2721665Y6175593D01*
X2500741Y6059201D01*
X2268193Y6015542D01*
X2009968Y6042058D01*
X1712013Y6136194D01*
X1700385Y6140804D01*
X1397422Y6273239D01*
X1052608Y6443300D01*
X691547Y6637444D01*
X339842Y6842127D01*
X146121Y6962973D01*
X-41505Y7085763D01*
X-248349Y7224856D01*
X-462884Y7372073D01*
X-673585Y7519235D01*
X-868926Y7658164D01*
X-1037382Y7780680D01*
X-1167426Y7878606D01*
X-1247533Y7943761D01*
X-1267931Y7966397D01*
X-1235225Y8001085D01*
X-1190524Y8020519D01*
X-1115362Y8009797D01*
X-970975Y7952463D01*
X-758486Y7849020D01*
X-502607Y7712899D01*
X-260280Y7582731D01*
X-13367Y7454335D01*
X226410Y7333358D01*
X447331Y7225443D01*
X637675Y7136237D01*
X785721Y7071382D01*
X879749Y7036526D01*
X907879Y7033579D01*
X930809Y7093390D01*
X957191Y7211581D01*
X982813Y7362214D01*
X1003462Y7519348D01*
X1014927Y7657046D01*
X1016000Y7699371D01*
X1015540Y7772058D01*
X1009024Y7832959D01*
X988746Y7889224D01*
X947001Y7948006D01*
X876083Y8016456D01*
X768286Y8101725D01*
X615906Y8210965D01*
X411237Y8351327D01*
X146574Y8529963D01*
X53634Y8592551D01*
X-173786Y8746713D01*
X-378086Y8887078D01*
X-548539Y9006122D01*
X-674416Y9096321D01*
X-744987Y9150151D01*
X-755446Y9159965D01*
X-793463Y9235978D01*
X-818526Y9316175D01*
X-821758Y9346486D01*
X-808672Y9362182D01*
X-771174Y9359960D01*
X-701169Y9336517D01*
X-590562Y9288549D01*
X-431260Y9212753D01*
X-215167Y9105827D01*
X65812Y8964466D01*
X159886Y8916914D01*
X510325Y8741889D01*
X791369Y8606580D01*
X1007350Y8509073D01*
X1162601Y8447457D01*
X1261452Y8419817D01*
X1289517Y8418009D01*
X1433532Y8437883D01*
X1639234Y8478951D01*
X1887708Y8536481D01*
X2160043Y8605738D01*
X2437326Y8681991D01*
X2700642Y8760505D01*
X2847830Y8807990D01*
X3091399Y8887335D01*
X3270560Y8938793D01*
X3400187Y8964186D01*
X3495154Y8965336D01*
X3570336Y8944065D01*
X3637080Y8904681D01*
X3684018Y8867114D01*
X3711821Y8822225D01*
X3723654Y8750773D01*
X4113482Y8750773D01*
X4104027Y8840530D01*
X4068939Y8952590D01*
X4003459Y9072082D01*
X3898961Y9220847D01*
X3803199Y9347281D01*
X3678670Y9518075D01*
X3603896Y9649153D01*
X3571519Y9763304D01*
X3574182Y9883315D01*
X3595018Y9992050D01*
X3637257Y10302857D01*
X3634058Y10640303D01*
X3587402Y10966201D01*
X3534799Y11153497D01*
X3481078Y11316118D01*
X3456587Y11429499D01*
X3457944Y11522534D01*
X3480322Y11619164D01*
X3499585Y11727330D01*
X3515777Y11897235D01*
X3527244Y12105959D01*
X3532330Y12330585D01*
X3532380Y12340166D01*
X3531760Y12575170D01*
X3526195Y12742070D01*
X3513802Y12857371D01*
X3492697Y12937583D01*
X3460996Y12999210D01*
X3456370Y13006171D01*
X3309203Y13156772D01*
X3109862Y13268845D01*
X2952750Y13314990D01*
X2839860Y13351401D01*
X2794262Y13402129D01*
X2794000Y13406468D01*
X2765925Y13473783D01*
X2695986Y13565169D01*
X2670256Y13592256D01*
X2561696Y13678425D01*
X2441826Y13712580D01*
X2362583Y13716000D01*
X2159853Y13750461D01*
X2018315Y13824953D01*
X1792290Y13962634D01*
X1586505Y14046427D01*
X1366631Y14087177D01*
X1160210Y14096070D01*
X852544Y14116138D01*
X590302Y14177593D01*
X567544Y14185430D01*
X272290Y14259762D01*
X-68838Y14296304D01*
X-425168Y14293443D01*
G37*
X-425168Y14293443D02*
X-742274Y14254208D01*
X-1273873Y14112133D01*
X-1766647Y13897497D01*
X-2214964Y13615564D01*
X-2613195Y13271600D01*
X-2955710Y12870871D01*
X-3236878Y12418641D01*
X-3451070Y11920177D01*
X-3534560Y11642720D01*
X-3580528Y11383767D01*
X-3602480Y11075983D01*
X-3600437Y10751722D01*
X-3574416Y10443338D01*
X-3533764Y10219104D01*
X-3436798Y9925251D01*
X-3286480Y9599997D01*
X-3094535Y9266102D01*
X-2889697Y8968777D01*
X-2778487Y8816495D01*
X-2680419Y8674293D01*
X-2612289Y8566767D01*
X-2599906Y8544382D01*
X-2530162Y8367303D01*
X-2467065Y8128733D01*
X-2414769Y7851812D01*
X-2377425Y7559681D01*
X-2359186Y7275480D01*
X-2358062Y7196666D01*
X-2369377Y6889997D01*
X-2410011Y6640914D01*
X-2488925Y6424822D01*
X-2615079Y6217124D01*
X-2795805Y5995058D01*
X-2940499Y5819701D01*
X-3021897Y5691427D01*
X-3039751Y5619627D01*
X-3019942Y5590636D01*
X-2963844Y5545346D01*
X-2866661Y5481028D01*
X-2723595Y5394953D01*
X-2529848Y5284390D01*
X-2280623Y5146610D01*
X-1971122Y4978883D01*
X-1596548Y4778480D01*
X-1152102Y4542670D01*
X-1079500Y4504281D01*
X-702538Y4305861D01*
X-346321Y4119953D01*
X-18192Y3950279D01*
X274508Y3800561D01*
X524436Y3674520D01*
X724251Y3575879D01*
X866609Y3508359D01*
X944169Y3475683D01*
X954616Y3473167D01*
X1051023Y3495035D01*
X1092200Y3522133D01*
X1128725Y3582279D01*
X1139713Y3674655D01*
X1124677Y3814560D01*
X1083127Y4017294D01*
X1075348Y4050790D01*
X1030218Y4346502D01*
X1031994Y4663141D01*
X1081792Y5017236D01*
X1164269Y5365750D01*
X1221069Y5570376D01*
X1269439Y5703532D01*
X1324734Y5775003D01*
X1402309Y5794577D01*
X1517517Y5772040D01*
X1685713Y5717179D01*
X1705252Y5710558D01*
X2051166Y5636034D01*
X2395389Y5644694D01*
X2730557Y5735246D01*
X3049309Y5906396D01*
X3122692Y5959430D01*
X3292502Y6127883D01*
X3460396Y6366320D01*
X3620768Y6660138D01*
X3768014Y6994734D01*
X3896530Y7355506D01*
X4000709Y7727852D01*
X4074948Y8097167D01*
X4113641Y8448851D01*
X4117530Y8551333D01*
X4117349Y8714059D01*
X4113482Y8750773D01*
X3723654Y8750773D01*
X3722684Y8633521D01*
X3712076Y8451228D01*
X3711970Y8449597D01*
X3664028Y8067883D01*
X3571051Y7649138D01*
X3440415Y7222825D01*
X3336687Y6950508D01*
X3232096Y6730596D01*
X3109125Y6548249D01*
X2945019Y6367276D01*
X2721665Y6175593D01*
X2500741Y6059201D01*
X2268193Y6015542D01*
X2009968Y6042058D01*
X1712013Y6136194D01*
X1700385Y6140804D01*
X1397422Y6273239D01*
X1052608Y6443300D01*
X691547Y6637444D01*
X339842Y6842127D01*
X146121Y6962973D01*
X-41505Y7085763D01*
X-248349Y7224856D01*
X-462884Y7372073D01*
X-673585Y7519235D01*
X-868926Y7658164D01*
X-1037382Y7780680D01*
X-1167426Y7878606D01*
X-1247533Y7943761D01*
X-1267931Y7966397D01*
X-1235225Y8001085D01*
X-1190524Y8020519D01*
X-1115362Y8009797D01*
X-970975Y7952463D01*
X-758486Y7849020D01*
X-502607Y7712899D01*
X-260280Y7582731D01*
X-13367Y7454335D01*
X226410Y7333358D01*
X447331Y7225443D01*
X637675Y7136237D01*
X785721Y7071382D01*
X879749Y7036526D01*
X907879Y7033579D01*
X930809Y7093390D01*
X957191Y7211581D01*
X982813Y7362214D01*
X1003462Y7519348D01*
X1014927Y7657046D01*
X1016000Y7699371D01*
X1015540Y7772058D01*
X1009024Y7832959D01*
X988746Y7889224D01*
X947001Y7948006D01*
X876083Y8016456D01*
X768286Y8101725D01*
X615906Y8210965D01*
X411237Y8351327D01*
X146574Y8529963D01*
X53634Y8592551D01*
X-173786Y8746713D01*
X-378086Y8887078D01*
X-548539Y9006122D01*
X-674416Y9096321D01*
X-744987Y9150151D01*
X-755446Y9159965D01*
X-793463Y9235978D01*
X-818526Y9316175D01*
X-821758Y9346486D01*
X-808672Y9362182D01*
X-771174Y9359960D01*
X-701169Y9336517D01*
X-590562Y9288549D01*
X-431260Y9212753D01*
X-215167Y9105827D01*
X65812Y8964466D01*
X159886Y8916914D01*
X510325Y8741889D01*
X791369Y8606580D01*
X1007350Y8509073D01*
X1162601Y8447457D01*
X1261452Y8419817D01*
X1289517Y8418009D01*
X1433532Y8437883D01*
X1639234Y8478951D01*
X1887708Y8536481D01*
X2160043Y8605738D01*
X2437326Y8681991D01*
X2700642Y8760505D01*
X2847830Y8807990D01*
X3091399Y8887335D01*
X3270560Y8938793D01*
X3400187Y8964186D01*
X3495154Y8965336D01*
X3570336Y8944065D01*
X3637080Y8904681D01*
X3684018Y8867114D01*
X3711821Y8822225D01*
X3723654Y8750773D01*
X4113482Y8750773D01*
X4104027Y8840530D01*
X4068939Y8952590D01*
X4003459Y9072082D01*
X3898961Y9220847D01*
X3803199Y9347281D01*
X3678670Y9518075D01*
X3603896Y9649153D01*
X3571519Y9763304D01*
X3574182Y9883315D01*
X3595018Y9992050D01*
X3637257Y10302857D01*
X3634058Y10640303D01*
X3587402Y10966201D01*
X3534799Y11153497D01*
X3481078Y11316118D01*
X3456587Y11429499D01*
X3457944Y11522534D01*
X3480322Y11619164D01*
X3499585Y11727330D01*
X3515777Y11897235D01*
X3527244Y12105959D01*
X3532330Y12330585D01*
X3532380Y12340166D01*
X3531760Y12575170D01*
X3526195Y12742070D01*
X3513802Y12857371D01*
X3492697Y12937583D01*
X3460996Y12999210D01*
X3456370Y13006171D01*
X3309203Y13156772D01*
X3109862Y13268845D01*
X2952750Y13314990D01*
X2839860Y13351401D01*
X2794262Y13402129D01*
X2794000Y13406468D01*
X2765925Y13473783D01*
X2695986Y13565169D01*
X2670256Y13592256D01*
X2561696Y13678425D01*
X2441826Y13712580D01*
X2362583Y13716000D01*
X2159853Y13750461D01*
X2018315Y13824953D01*
X1792290Y13962634D01*
X1586505Y14046427D01*
X1366631Y14087177D01*
X1160210Y14096070D01*
X852544Y14116138D01*
X590302Y14177593D01*
X567544Y14185430D01*
X272290Y14259762D01*
X-68838Y14296304D01*
X-425168Y14293443D01*
D12*
X-6904285Y-11549571D02*
X-7047142Y-11597190D01*
X-7094761Y-11644809D01*
X-7142380Y-11740047D01*
X-7142380Y-11882904D01*
X-7094761Y-11978142D01*
X-7047142Y-12025761D01*
X-6951904Y-12073380D01*
X-6570952Y-12073380D01*
X-6570952Y-11073380D01*
X-6904285Y-11073380D01*
X-6999523Y-11121000D01*
X-7047142Y-11168619D01*
X-7094761Y-11263857D01*
X-7094761Y-11359095D01*
X-7047142Y-11454333D01*
X-6999523Y-11501952D01*
X-6904285Y-11549571D01*
X-6570952Y-11549571D01*
X-7428095Y-11073380D02*
X-7999523Y-11073380D01*
X-7713809Y-12073380D02*
X-7713809Y-11073380D01*
X-8856666Y-12073380D02*
X-8285238Y-12073380D01*
X-8570952Y-12073380D02*
X-8570952Y-11073380D01*
X-8475714Y-11216238D01*
X-8380476Y-11311476D01*
X-8285238Y-11359095D01*
M02*
