G04 #@! TF.GenerationSoftware,KiCad,Pcbnew,5.1.7-a382d34a8~88~ubuntu20.04.1*
G04 #@! TF.CreationDate,2020-12-13T21:22:30-08:00*
G04 #@! TF.ProjectId,smd-sun,736d642d-7375-46e2-9e6b-696361645f70,rev?*
G04 #@! TF.SameCoordinates,Original*
G04 #@! TF.FileFunction,Soldermask,Top*
G04 #@! TF.FilePolarity,Negative*
%FSLAX46Y46*%
G04 Gerber Fmt 4.6, Leading zero omitted, Abs format (unit mm)*
G04 Created by KiCad (PCBNEW 5.1.7-a382d34a8~88~ubuntu20.04.1) date 2020-12-13 21:22:30*
%MOMM*%
%LPD*%
G01*
G04 APERTURE LIST*
%ADD10C,3.000000*%
G04 APERTURE END LIST*
D10*
X10000000Y0D03*
X-10000000Y0D03*
G36*
G01*
X-4245000Y-3460000D02*
X-4645000Y-3460000D01*
G75*
G02*
X-4845000Y-3260000I0J200000D01*
G01*
X-4845000Y-1660000D01*
G75*
G02*
X-4645000Y-1460000I200000J0D01*
G01*
X-4245000Y-1460000D01*
G75*
G02*
X-4045000Y-1660000I0J-200000D01*
G01*
X-4045000Y-3260000D01*
G75*
G02*
X-4245000Y-3460000I-200000J0D01*
G01*
G37*
G36*
G01*
X-2975000Y-3460000D02*
X-3375000Y-3460000D01*
G75*
G02*
X-3575000Y-3260000I0J200000D01*
G01*
X-3575000Y-1660000D01*
G75*
G02*
X-3375000Y-1460000I200000J0D01*
G01*
X-2975000Y-1460000D01*
G75*
G02*
X-2775000Y-1660000I0J-200000D01*
G01*
X-2775000Y-3260000D01*
G75*
G02*
X-2975000Y-3460000I-200000J0D01*
G01*
G37*
G36*
G01*
X-1705000Y-3460000D02*
X-2105000Y-3460000D01*
G75*
G02*
X-2305000Y-3260000I0J200000D01*
G01*
X-2305000Y-1660000D01*
G75*
G02*
X-2105000Y-1460000I200000J0D01*
G01*
X-1705000Y-1460000D01*
G75*
G02*
X-1505000Y-1660000I0J-200000D01*
G01*
X-1505000Y-3260000D01*
G75*
G02*
X-1705000Y-3460000I-200000J0D01*
G01*
G37*
G36*
G01*
X-435000Y-3460000D02*
X-835000Y-3460000D01*
G75*
G02*
X-1035000Y-3260000I0J200000D01*
G01*
X-1035000Y-1660000D01*
G75*
G02*
X-835000Y-1460000I200000J0D01*
G01*
X-435000Y-1460000D01*
G75*
G02*
X-235000Y-1660000I0J-200000D01*
G01*
X-235000Y-3260000D01*
G75*
G02*
X-435000Y-3460000I-200000J0D01*
G01*
G37*
G36*
G01*
X835000Y-3460000D02*
X435000Y-3460000D01*
G75*
G02*
X235000Y-3260000I0J200000D01*
G01*
X235000Y-1660000D01*
G75*
G02*
X435000Y-1460000I200000J0D01*
G01*
X835000Y-1460000D01*
G75*
G02*
X1035000Y-1660000I0J-200000D01*
G01*
X1035000Y-3260000D01*
G75*
G02*
X835000Y-3460000I-200000J0D01*
G01*
G37*
G36*
G01*
X2105000Y-3460000D02*
X1705000Y-3460000D01*
G75*
G02*
X1505000Y-3260000I0J200000D01*
G01*
X1505000Y-1660000D01*
G75*
G02*
X1705000Y-1460000I200000J0D01*
G01*
X2105000Y-1460000D01*
G75*
G02*
X2305000Y-1660000I0J-200000D01*
G01*
X2305000Y-3260000D01*
G75*
G02*
X2105000Y-3460000I-200000J0D01*
G01*
G37*
G36*
G01*
X3375000Y-3460000D02*
X2975000Y-3460000D01*
G75*
G02*
X2775000Y-3260000I0J200000D01*
G01*
X2775000Y-1660000D01*
G75*
G02*
X2975000Y-1460000I200000J0D01*
G01*
X3375000Y-1460000D01*
G75*
G02*
X3575000Y-1660000I0J-200000D01*
G01*
X3575000Y-3260000D01*
G75*
G02*
X3375000Y-3460000I-200000J0D01*
G01*
G37*
G36*
G01*
X4645000Y-3460000D02*
X4245000Y-3460000D01*
G75*
G02*
X4045000Y-3260000I0J200000D01*
G01*
X4045000Y-1660000D01*
G75*
G02*
X4245000Y-1460000I200000J0D01*
G01*
X4645000Y-1460000D01*
G75*
G02*
X4845000Y-1660000I0J-200000D01*
G01*
X4845000Y-3260000D01*
G75*
G02*
X4645000Y-3460000I-200000J0D01*
G01*
G37*
G36*
G01*
X4645000Y-8540000D02*
X4245000Y-8540000D01*
G75*
G02*
X4045000Y-8340000I0J200000D01*
G01*
X4045000Y-6740000D01*
G75*
G02*
X4245000Y-6540000I200000J0D01*
G01*
X4645000Y-6540000D01*
G75*
G02*
X4845000Y-6740000I0J-200000D01*
G01*
X4845000Y-8340000D01*
G75*
G02*
X4645000Y-8540000I-200000J0D01*
G01*
G37*
G36*
G01*
X3375000Y-8540000D02*
X2975000Y-8540000D01*
G75*
G02*
X2775000Y-8340000I0J200000D01*
G01*
X2775000Y-6740000D01*
G75*
G02*
X2975000Y-6540000I200000J0D01*
G01*
X3375000Y-6540000D01*
G75*
G02*
X3575000Y-6740000I0J-200000D01*
G01*
X3575000Y-8340000D01*
G75*
G02*
X3375000Y-8540000I-200000J0D01*
G01*
G37*
G36*
G01*
X2105000Y-8540000D02*
X1705000Y-8540000D01*
G75*
G02*
X1505000Y-8340000I0J200000D01*
G01*
X1505000Y-6740000D01*
G75*
G02*
X1705000Y-6540000I200000J0D01*
G01*
X2105000Y-6540000D01*
G75*
G02*
X2305000Y-6740000I0J-200000D01*
G01*
X2305000Y-8340000D01*
G75*
G02*
X2105000Y-8540000I-200000J0D01*
G01*
G37*
G36*
G01*
X835000Y-8540000D02*
X435000Y-8540000D01*
G75*
G02*
X235000Y-8340000I0J200000D01*
G01*
X235000Y-6740000D01*
G75*
G02*
X435000Y-6540000I200000J0D01*
G01*
X835000Y-6540000D01*
G75*
G02*
X1035000Y-6740000I0J-200000D01*
G01*
X1035000Y-8340000D01*
G75*
G02*
X835000Y-8540000I-200000J0D01*
G01*
G37*
G36*
G01*
X-435000Y-8540000D02*
X-835000Y-8540000D01*
G75*
G02*
X-1035000Y-8340000I0J200000D01*
G01*
X-1035000Y-6740000D01*
G75*
G02*
X-835000Y-6540000I200000J0D01*
G01*
X-435000Y-6540000D01*
G75*
G02*
X-235000Y-6740000I0J-200000D01*
G01*
X-235000Y-8340000D01*
G75*
G02*
X-435000Y-8540000I-200000J0D01*
G01*
G37*
G36*
G01*
X-1705000Y-8540000D02*
X-2105000Y-8540000D01*
G75*
G02*
X-2305000Y-8340000I0J200000D01*
G01*
X-2305000Y-6740000D01*
G75*
G02*
X-2105000Y-6540000I200000J0D01*
G01*
X-1705000Y-6540000D01*
G75*
G02*
X-1505000Y-6740000I0J-200000D01*
G01*
X-1505000Y-8340000D01*
G75*
G02*
X-1705000Y-8540000I-200000J0D01*
G01*
G37*
G36*
G01*
X-2975000Y-8540000D02*
X-3375000Y-8540000D01*
G75*
G02*
X-3575000Y-8340000I0J200000D01*
G01*
X-3575000Y-6740000D01*
G75*
G02*
X-3375000Y-6540000I200000J0D01*
G01*
X-2975000Y-6540000D01*
G75*
G02*
X-2775000Y-6740000I0J-200000D01*
G01*
X-2775000Y-8340000D01*
G75*
G02*
X-2975000Y-8540000I-200000J0D01*
G01*
G37*
G36*
G01*
X-4245000Y-8475000D02*
X-4645000Y-8475000D01*
G75*
G02*
X-4845000Y-8275000I0J200000D01*
G01*
X-4845000Y-6675000D01*
G75*
G02*
X-4645000Y-6475000I200000J0D01*
G01*
X-4245000Y-6475000D01*
G75*
G02*
X-4045000Y-6675000I0J-200000D01*
G01*
X-4045000Y-8275000D01*
G75*
G02*
X-4245000Y-8475000I-200000J0D01*
G01*
G37*
G36*
G01*
X1540000Y3991000D02*
X1540000Y4391000D01*
G75*
G02*
X1740000Y4591000I200000J0D01*
G01*
X3340000Y4591000D01*
G75*
G02*
X3540000Y4391000I0J-200000D01*
G01*
X3540000Y3991000D01*
G75*
G02*
X3340000Y3791000I-200000J0D01*
G01*
X1740000Y3791000D01*
G75*
G02*
X1540000Y3991000I0J200000D01*
G01*
G37*
G36*
G01*
X1540000Y2721000D02*
X1540000Y3121000D01*
G75*
G02*
X1740000Y3321000I200000J0D01*
G01*
X3340000Y3321000D01*
G75*
G02*
X3540000Y3121000I0J-200000D01*
G01*
X3540000Y2721000D01*
G75*
G02*
X3340000Y2521000I-200000J0D01*
G01*
X1740000Y2521000D01*
G75*
G02*
X1540000Y2721000I0J200000D01*
G01*
G37*
G36*
G01*
X1540000Y1451000D02*
X1540000Y1851000D01*
G75*
G02*
X1740000Y2051000I200000J0D01*
G01*
X3340000Y2051000D01*
G75*
G02*
X3540000Y1851000I0J-200000D01*
G01*
X3540000Y1451000D01*
G75*
G02*
X3340000Y1251000I-200000J0D01*
G01*
X1740000Y1251000D01*
G75*
G02*
X1540000Y1451000I0J200000D01*
G01*
G37*
G36*
G01*
X1540000Y181000D02*
X1540000Y581000D01*
G75*
G02*
X1740000Y781000I200000J0D01*
G01*
X3340000Y781000D01*
G75*
G02*
X3540000Y581000I0J-200000D01*
G01*
X3540000Y181000D01*
G75*
G02*
X3340000Y-19000I-200000J0D01*
G01*
X1740000Y-19000D01*
G75*
G02*
X1540000Y181000I0J200000D01*
G01*
G37*
G36*
G01*
X-3540000Y181000D02*
X-3540000Y581000D01*
G75*
G02*
X-3340000Y781000I200000J0D01*
G01*
X-1740000Y781000D01*
G75*
G02*
X-1540000Y581000I0J-200000D01*
G01*
X-1540000Y181000D01*
G75*
G02*
X-1740000Y-19000I-200000J0D01*
G01*
X-3340000Y-19000D01*
G75*
G02*
X-3540000Y181000I0J200000D01*
G01*
G37*
G36*
G01*
X-3540000Y1451000D02*
X-3540000Y1851000D01*
G75*
G02*
X-3340000Y2051000I200000J0D01*
G01*
X-1740000Y2051000D01*
G75*
G02*
X-1540000Y1851000I0J-200000D01*
G01*
X-1540000Y1451000D01*
G75*
G02*
X-1740000Y1251000I-200000J0D01*
G01*
X-3340000Y1251000D01*
G75*
G02*
X-3540000Y1451000I0J200000D01*
G01*
G37*
G36*
G01*
X-3540000Y2721000D02*
X-3540000Y3121000D01*
G75*
G02*
X-3340000Y3321000I200000J0D01*
G01*
X-1740000Y3321000D01*
G75*
G02*
X-1540000Y3121000I0J-200000D01*
G01*
X-1540000Y2721000D01*
G75*
G02*
X-1740000Y2521000I-200000J0D01*
G01*
X-3340000Y2521000D01*
G75*
G02*
X-3540000Y2721000I0J200000D01*
G01*
G37*
G36*
G01*
X-3575000Y3991000D02*
X-3575000Y4391000D01*
G75*
G02*
X-3375000Y4591000I200000J0D01*
G01*
X-1775000Y4591000D01*
G75*
G02*
X-1575000Y4391000I0J-200000D01*
G01*
X-1575000Y3991000D01*
G75*
G02*
X-1775000Y3791000I-200000J0D01*
G01*
X-3375000Y3791000D01*
G75*
G02*
X-3575000Y3991000I0J200000D01*
G01*
G37*
G36*
G01*
X6634978Y7521306D02*
X6478695Y6634977D01*
G75*
G02*
X6189082Y6432188I-246201J43412D01*
G01*
X5548955Y6545059D01*
G75*
G02*
X5346166Y6834672I43412J246201D01*
G01*
X5502449Y7721001D01*
G75*
G02*
X5792062Y7923790I246201J-43412D01*
G01*
X6432189Y7810919D01*
G75*
G02*
X6634978Y7521306I-43412J-246201D01*
G01*
G37*
G36*
G01*
X8653834Y7165328D02*
X8497551Y6278999D01*
G75*
G02*
X8207938Y6076210I-246201J43412D01*
G01*
X7567811Y6189081D01*
G75*
G02*
X7365022Y6478694I43412J246201D01*
G01*
X7521305Y7365023D01*
G75*
G02*
X7810918Y7567812I246201J-43412D01*
G01*
X8451045Y7454941D01*
G75*
G02*
X8653834Y7165328I-43412J-246201D01*
G01*
G37*
G36*
G01*
X-6478695Y6634977D02*
X-6634978Y7521306D01*
G75*
G02*
X-6432189Y7810919I246201J43412D01*
G01*
X-5792062Y7923790D01*
G75*
G02*
X-5502449Y7721001I43412J-246201D01*
G01*
X-5346166Y6834672D01*
G75*
G02*
X-5548955Y6545059I-246201J-43412D01*
G01*
X-6189082Y6432188D01*
G75*
G02*
X-6478695Y6634977I-43412J246201D01*
G01*
G37*
G36*
G01*
X-8497551Y6278999D02*
X-8653834Y7165328D01*
G75*
G02*
X-8451045Y7454941I246201J43412D01*
G01*
X-7810918Y7567812D01*
G75*
G02*
X-7521305Y7365023I43412J-246201D01*
G01*
X-7365022Y6478694D01*
G75*
G02*
X-7567811Y6189081I-246201J-43412D01*
G01*
X-8207938Y6076210D01*
G75*
G02*
X-8497551Y6278999I-43412J246201D01*
G01*
G37*
G36*
G01*
X450000Y-15950001D02*
X450000Y-15049999D01*
G75*
G02*
X699999Y-14800000I249999J0D01*
G01*
X1350001Y-14800000D01*
G75*
G02*
X1600000Y-15049999I0J-249999D01*
G01*
X1600000Y-15950001D01*
G75*
G02*
X1350001Y-16200000I-249999J0D01*
G01*
X699999Y-16200000D01*
G75*
G02*
X450000Y-15950001I0J249999D01*
G01*
G37*
G36*
G01*
X-1600000Y-15950001D02*
X-1600000Y-15049999D01*
G75*
G02*
X-1350001Y-14800000I249999J0D01*
G01*
X-699999Y-14800000D01*
G75*
G02*
X-450000Y-15049999I0J-249999D01*
G01*
X-450000Y-15950001D01*
G75*
G02*
X-699999Y-16200000I-249999J0D01*
G01*
X-1350001Y-16200000D01*
G75*
G02*
X-1600000Y-15950001I0J249999D01*
G01*
G37*
G36*
G01*
X-6149999Y-3614000D02*
X-7050001Y-3614000D01*
G75*
G02*
X-7300000Y-3364001I0J249999D01*
G01*
X-7300000Y-2713999D01*
G75*
G02*
X-7050001Y-2464000I249999J0D01*
G01*
X-6149999Y-2464000D01*
G75*
G02*
X-5900000Y-2713999I0J-249999D01*
G01*
X-5900000Y-3364001D01*
G75*
G02*
X-6149999Y-3614000I-249999J0D01*
G01*
G37*
G36*
G01*
X-6149999Y-5664000D02*
X-7050001Y-5664000D01*
G75*
G02*
X-7300000Y-5414001I0J249999D01*
G01*
X-7300000Y-4763999D01*
G75*
G02*
X-7050001Y-4514000I249999J0D01*
G01*
X-6149999Y-4514000D01*
G75*
G02*
X-5900000Y-4763999I0J-249999D01*
G01*
X-5900000Y-5414001D01*
G75*
G02*
X-6149999Y-5664000I-249999J0D01*
G01*
G37*
G36*
G01*
X6149999Y-196000D02*
X7050001Y-196000D01*
G75*
G02*
X7300000Y-445999I0J-249999D01*
G01*
X7300000Y-1096001D01*
G75*
G02*
X7050001Y-1346000I-249999J0D01*
G01*
X6149999Y-1346000D01*
G75*
G02*
X5900000Y-1096001I0J249999D01*
G01*
X5900000Y-445999D01*
G75*
G02*
X6149999Y-196000I249999J0D01*
G01*
G37*
G36*
G01*
X6149999Y1854000D02*
X7050001Y1854000D01*
G75*
G02*
X7300000Y1604001I0J-249999D01*
G01*
X7300000Y953999D01*
G75*
G02*
X7050001Y704000I-249999J0D01*
G01*
X6149999Y704000D01*
G75*
G02*
X5900000Y953999I0J249999D01*
G01*
X5900000Y1604001D01*
G75*
G02*
X6149999Y1854000I249999J0D01*
G01*
G37*
G36*
G01*
X14919604Y15556001D02*
X15556001Y14919604D01*
G75*
G02*
X15556001Y14566052I-176776J-176776D01*
G01*
X15096380Y14106431D01*
G75*
G02*
X14742828Y14106431I-176776J176776D01*
G01*
X14106431Y14742828D01*
G75*
G02*
X14106431Y15096380I176776J176776D01*
G01*
X14566052Y15556001D01*
G75*
G02*
X14919604Y15556001I176776J-176776D01*
G01*
G37*
G36*
G01*
X16369172Y17005569D02*
X17005569Y16369172D01*
G75*
G02*
X17005569Y16015620I-176776J-176776D01*
G01*
X16545948Y15555999D01*
G75*
G02*
X16192396Y15555999I-176776J176776D01*
G01*
X15555999Y16192396D01*
G75*
G02*
X15555999Y16545948I176776J176776D01*
G01*
X16015620Y17005569D01*
G75*
G02*
X16369172Y17005569I176776J-176776D01*
G01*
G37*
G36*
G01*
X21550000Y450001D02*
X21550000Y-450001D01*
G75*
G02*
X21300001Y-700000I-249999J0D01*
G01*
X20649999Y-700000D01*
G75*
G02*
X20400000Y-450001I0J249999D01*
G01*
X20400000Y450001D01*
G75*
G02*
X20649999Y700000I249999J0D01*
G01*
X21300001Y700000D01*
G75*
G02*
X21550000Y450001I0J-249999D01*
G01*
G37*
G36*
G01*
X23600000Y450001D02*
X23600000Y-450001D01*
G75*
G02*
X23350001Y-700000I-249999J0D01*
G01*
X22699999Y-700000D01*
G75*
G02*
X22450000Y-450001I0J249999D01*
G01*
X22450000Y450001D01*
G75*
G02*
X22699999Y700000I249999J0D01*
G01*
X23350001Y700000D01*
G75*
G02*
X23600000Y450001I0J-249999D01*
G01*
G37*
G36*
G01*
X15556001Y-14919604D02*
X14919604Y-15556001D01*
G75*
G02*
X14566052Y-15556001I-176776J176776D01*
G01*
X14106431Y-15096380D01*
G75*
G02*
X14106431Y-14742828I176776J176776D01*
G01*
X14742828Y-14106431D01*
G75*
G02*
X15096380Y-14106431I176776J-176776D01*
G01*
X15556001Y-14566052D01*
G75*
G02*
X15556001Y-14919604I-176776J-176776D01*
G01*
G37*
G36*
G01*
X17005569Y-16369172D02*
X16369172Y-17005569D01*
G75*
G02*
X16015620Y-17005569I-176776J176776D01*
G01*
X15555999Y-16545948D01*
G75*
G02*
X15555999Y-16192396I176776J176776D01*
G01*
X16192396Y-15555999D01*
G75*
G02*
X16545948Y-15555999I176776J-176776D01*
G01*
X17005569Y-16015620D01*
G75*
G02*
X17005569Y-16369172I-176776J-176776D01*
G01*
G37*
G36*
G01*
X450001Y-21550000D02*
X-450001Y-21550000D01*
G75*
G02*
X-700000Y-21300001I0J249999D01*
G01*
X-700000Y-20649999D01*
G75*
G02*
X-450001Y-20400000I249999J0D01*
G01*
X450001Y-20400000D01*
G75*
G02*
X700000Y-20649999I0J-249999D01*
G01*
X700000Y-21300001D01*
G75*
G02*
X450001Y-21550000I-249999J0D01*
G01*
G37*
G36*
G01*
X450001Y-23600000D02*
X-450001Y-23600000D01*
G75*
G02*
X-700000Y-23350001I0J249999D01*
G01*
X-700000Y-22699999D01*
G75*
G02*
X-450001Y-22450000I249999J0D01*
G01*
X450001Y-22450000D01*
G75*
G02*
X700000Y-22699999I0J-249999D01*
G01*
X700000Y-23350001D01*
G75*
G02*
X450001Y-23600000I-249999J0D01*
G01*
G37*
G36*
G01*
X-14919604Y-15556001D02*
X-15556001Y-14919604D01*
G75*
G02*
X-15556001Y-14566052I176776J176776D01*
G01*
X-15096380Y-14106431D01*
G75*
G02*
X-14742828Y-14106431I176776J-176776D01*
G01*
X-14106431Y-14742828D01*
G75*
G02*
X-14106431Y-15096380I-176776J-176776D01*
G01*
X-14566052Y-15556001D01*
G75*
G02*
X-14919604Y-15556001I-176776J176776D01*
G01*
G37*
G36*
G01*
X-16369172Y-17005569D02*
X-17005569Y-16369172D01*
G75*
G02*
X-17005569Y-16015620I176776J176776D01*
G01*
X-16545948Y-15555999D01*
G75*
G02*
X-16192396Y-15555999I176776J-176776D01*
G01*
X-15555999Y-16192396D01*
G75*
G02*
X-15555999Y-16545948I-176776J-176776D01*
G01*
X-16015620Y-17005569D01*
G75*
G02*
X-16369172Y-17005569I-176776J176776D01*
G01*
G37*
G36*
G01*
X-21550000Y-450001D02*
X-21550000Y450001D01*
G75*
G02*
X-21300001Y700000I249999J0D01*
G01*
X-20649999Y700000D01*
G75*
G02*
X-20400000Y450001I0J-249999D01*
G01*
X-20400000Y-450001D01*
G75*
G02*
X-20649999Y-700000I-249999J0D01*
G01*
X-21300001Y-700000D01*
G75*
G02*
X-21550000Y-450001I0J249999D01*
G01*
G37*
G36*
G01*
X-23600000Y-450001D02*
X-23600000Y450001D01*
G75*
G02*
X-23350001Y700000I249999J0D01*
G01*
X-22699999Y700000D01*
G75*
G02*
X-22450000Y450001I0J-249999D01*
G01*
X-22450000Y-450001D01*
G75*
G02*
X-22699999Y-700000I-249999J0D01*
G01*
X-23350001Y-700000D01*
G75*
G02*
X-23600000Y-450001I0J249999D01*
G01*
G37*
G36*
G01*
X-15556001Y14919604D02*
X-14919604Y15556001D01*
G75*
G02*
X-14566052Y15556001I176776J-176776D01*
G01*
X-14106431Y15096380D01*
G75*
G02*
X-14106431Y14742828I-176776J-176776D01*
G01*
X-14742828Y14106431D01*
G75*
G02*
X-15096380Y14106431I-176776J176776D01*
G01*
X-15556001Y14566052D01*
G75*
G02*
X-15556001Y14919604I176776J176776D01*
G01*
G37*
G36*
G01*
X-17005569Y16369172D02*
X-16369172Y17005569D01*
G75*
G02*
X-16015620Y17005569I176776J-176776D01*
G01*
X-15555999Y16545948D01*
G75*
G02*
X-15555999Y16192396I-176776J-176776D01*
G01*
X-16192396Y15555999D01*
G75*
G02*
X-16545948Y15555999I-176776J176776D01*
G01*
X-17005569Y16015620D01*
G75*
G02*
X-17005569Y16369172I176776J176776D01*
G01*
G37*
G36*
G01*
X-450001Y21550000D02*
X450001Y21550000D01*
G75*
G02*
X700000Y21300001I0J-249999D01*
G01*
X700000Y20649999D01*
G75*
G02*
X450001Y20400000I-249999J0D01*
G01*
X-450001Y20400000D01*
G75*
G02*
X-700000Y20649999I0J249999D01*
G01*
X-700000Y21300001D01*
G75*
G02*
X-450001Y21550000I249999J0D01*
G01*
G37*
G36*
G01*
X-450001Y23600000D02*
X450001Y23600000D01*
G75*
G02*
X700000Y23350001I0J-249999D01*
G01*
X700000Y22699999D01*
G75*
G02*
X450001Y22450000I-249999J0D01*
G01*
X-450001Y22450000D01*
G75*
G02*
X-700000Y22699999I0J249999D01*
G01*
X-700000Y23350001D01*
G75*
G02*
X-450001Y23600000I249999J0D01*
G01*
G37*
G36*
G01*
X-6149999Y704000D02*
X-7050001Y704000D01*
G75*
G02*
X-7300000Y953999I0J249999D01*
G01*
X-7300000Y1604001D01*
G75*
G02*
X-7050001Y1854000I249999J0D01*
G01*
X-6149999Y1854000D01*
G75*
G02*
X-5900000Y1604001I0J-249999D01*
G01*
X-5900000Y953999D01*
G75*
G02*
X-6149999Y704000I-249999J0D01*
G01*
G37*
G36*
G01*
X-6149999Y-1346000D02*
X-7050001Y-1346000D01*
G75*
G02*
X-7300000Y-1096001I0J249999D01*
G01*
X-7300000Y-445999D01*
G75*
G02*
X-7050001Y-196000I249999J0D01*
G01*
X-6149999Y-196000D01*
G75*
G02*
X-5900000Y-445999I0J-249999D01*
G01*
X-5900000Y-1096001D01*
G75*
G02*
X-6149999Y-1346000I-249999J0D01*
G01*
G37*
G36*
G01*
X6149999Y-4514000D02*
X7050001Y-4514000D01*
G75*
G02*
X7300000Y-4763999I0J-249999D01*
G01*
X7300000Y-5414001D01*
G75*
G02*
X7050001Y-5664000I-249999J0D01*
G01*
X6149999Y-5664000D01*
G75*
G02*
X5900000Y-5414001I0J249999D01*
G01*
X5900000Y-4763999D01*
G75*
G02*
X6149999Y-4514000I249999J0D01*
G01*
G37*
G36*
G01*
X6149999Y-2464000D02*
X7050001Y-2464000D01*
G75*
G02*
X7300000Y-2713999I0J-249999D01*
G01*
X7300000Y-3364001D01*
G75*
G02*
X7050001Y-3614000I-249999J0D01*
G01*
X6149999Y-3614000D01*
G75*
G02*
X5900000Y-3364001I0J249999D01*
G01*
X5900000Y-2713999D01*
G75*
G02*
X6149999Y-2464000I249999J0D01*
G01*
G37*
M02*
