G04 #@! TF.GenerationSoftware,KiCad,Pcbnew,5.1.5-52549c5~86~ubuntu19.04.1*
G04 #@! TF.CreationDate,2020-07-03T08:48:01-07:00*
G04 #@! TF.ProjectId,smd-star,736d642d-7374-4617-922e-6b696361645f,rev?*
G04 #@! TF.SameCoordinates,Original*
G04 #@! TF.FileFunction,Copper,L2,Bot*
G04 #@! TF.FilePolarity,Positive*
%FSLAX46Y46*%
G04 Gerber Fmt 4.6, Leading zero omitted, Abs format (unit mm)*
G04 Created by KiCad (PCBNEW 5.1.5-52549c5~86~ubuntu19.04.1) date 2020-07-03 08:48:01*
%MOMM*%
%LPD*%
G04 APERTURE LIST*
%ADD10R,6.070000X6.070000*%
%ADD11C,0.800000*%
%ADD12C,5.010000*%
%ADD13C,0.250000*%
%ADD14C,0.254000*%
G04 APERTURE END LIST*
D10*
X0Y-1016000D03*
X12330000Y-1016000D03*
X-12330000Y-1016000D03*
D11*
X0Y-508000D03*
X0Y3302000D03*
X1270000Y-9398000D03*
X5588000Y-7112000D03*
X4572000Y-5080000D03*
X-8128000Y3810000D03*
X6604000Y2794000D03*
X0Y24250000D03*
X0Y-24250000D03*
X24250000Y0D03*
X-24250000Y0D03*
X-17147000Y-17147000D03*
X17147000Y17147000D03*
X17147000Y-17147000D03*
X-17147000Y17147000D03*
X-2286000Y-15494000D03*
X-9144000Y6604000D03*
X9144000Y6604000D03*
X16510000Y-1778000D03*
X11181409Y-6646797D03*
D12*
X0Y17272000D03*
D13*
X0Y3302000D02*
X0Y-1016000D01*
X1270000Y-2286000D02*
X0Y-1016000D01*
X1270000Y-9398000D02*
X1270000Y-2286000D01*
X5588000Y-6096000D02*
X4572000Y-5080000D01*
X5588000Y-7112000D02*
X5588000Y-6096000D01*
X508000Y-1016000D02*
X0Y-1016000D01*
X4572000Y-5080000D02*
X508000Y-1016000D01*
X-12330000Y2269000D02*
X-10789000Y3810000D01*
X-12330000Y-1016000D02*
X-12330000Y2269000D01*
X-10789000Y3810000D02*
X-8128000Y3810000D01*
X11805000Y2794000D02*
X6604000Y2794000D01*
X12330000Y-1016000D02*
X12330000Y2269000D01*
X12330000Y2269000D02*
X11805000Y2794000D01*
X4064000Y-14732000D02*
X4064000Y-13970000D01*
X8636000Y-13208000D02*
X9906000Y-14478000D01*
X4826000Y-13208000D02*
X8636000Y-13208000D01*
X4064000Y-13970000D02*
X4826000Y-13208000D01*
X-4064000Y-14478000D02*
X-4064000Y-14456297D01*
X-5470191Y-13050107D02*
X-8986107Y-13050107D01*
X-4064000Y-14456297D02*
X-5470191Y-13050107D01*
X-8986107Y-13050107D02*
X-10414000Y-14478000D01*
D14*
G36*
X857095Y-24017336D02*
G01*
X743509Y-24110637D01*
X513626Y-24233900D01*
X264173Y-24310165D01*
X4667Y-24336525D01*
X-255024Y-24311977D01*
X-504999Y-24237456D01*
X-735733Y-24115804D01*
X-856994Y-24017608D01*
X-4436970Y-14351000D01*
X4436969Y-14351000D01*
X857095Y-24017336D01*
G37*
X857095Y-24017336D02*
X743509Y-24110637D01*
X513626Y-24233900D01*
X264173Y-24310165D01*
X4667Y-24336525D01*
X-255024Y-24311977D01*
X-504999Y-24237456D01*
X-735733Y-24115804D01*
X-856994Y-24017608D01*
X-4436970Y-14351000D01*
X4436969Y-14351000D01*
X857095Y-24017336D01*
G36*
X13805273Y-4695821D02*
G01*
X13797988Y-4701464D01*
X13633654Y-4830581D01*
X13590459Y-4871941D01*
X13546666Y-4912717D01*
X13540615Y-4919667D01*
X13404490Y-5078245D01*
X13370127Y-5127242D01*
X13335116Y-5175708D01*
X13330530Y-5183702D01*
X13227798Y-5365700D01*
X13203623Y-5420401D01*
X13178673Y-5474788D01*
X13175727Y-5483520D01*
X13110303Y-5682005D01*
X13097208Y-5740384D01*
X13083304Y-5798552D01*
X13082110Y-5807689D01*
X13056484Y-6015103D01*
X13054979Y-6074872D01*
X13052636Y-6134677D01*
X13053240Y-6143872D01*
X13068389Y-6352313D01*
X13078523Y-6411245D01*
X13087839Y-6470356D01*
X13090218Y-6479259D01*
X13134013Y-6638723D01*
X13136909Y-6659889D01*
X13168698Y-6751990D01*
X17588731Y-16376243D01*
X17574375Y-16522660D01*
X17498965Y-16772429D01*
X17376477Y-17002794D01*
X17211579Y-17204979D01*
X17010546Y-17371288D01*
X16781046Y-17495378D01*
X16531805Y-17572531D01*
X16376508Y-17588853D01*
X9326354Y-14351000D01*
X10555000Y-14351000D01*
X10579776Y-14348560D01*
X10603601Y-14341333D01*
X10625557Y-14329597D01*
X10644803Y-14313803D01*
X10660597Y-14294557D01*
X10672333Y-14272601D01*
X10679560Y-14248776D01*
X10682000Y-14224000D01*
X10682000Y-4689072D01*
X13816177Y-4689072D01*
X13805273Y-4695821D01*
G37*
X13805273Y-4695821D02*
X13797988Y-4701464D01*
X13633654Y-4830581D01*
X13590459Y-4871941D01*
X13546666Y-4912717D01*
X13540615Y-4919667D01*
X13404490Y-5078245D01*
X13370127Y-5127242D01*
X13335116Y-5175708D01*
X13330530Y-5183702D01*
X13227798Y-5365700D01*
X13203623Y-5420401D01*
X13178673Y-5474788D01*
X13175727Y-5483520D01*
X13110303Y-5682005D01*
X13097208Y-5740384D01*
X13083304Y-5798552D01*
X13082110Y-5807689D01*
X13056484Y-6015103D01*
X13054979Y-6074872D01*
X13052636Y-6134677D01*
X13053240Y-6143872D01*
X13068389Y-6352313D01*
X13078523Y-6411245D01*
X13087839Y-6470356D01*
X13090218Y-6479259D01*
X13134013Y-6638723D01*
X13136909Y-6659889D01*
X13168698Y-6751990D01*
X17588731Y-16376243D01*
X17574375Y-16522660D01*
X17498965Y-16772429D01*
X17376477Y-17002794D01*
X17211579Y-17204979D01*
X17010546Y-17371288D01*
X16781046Y-17495378D01*
X16531805Y-17572531D01*
X16376508Y-17588853D01*
X9326354Y-14351000D01*
X10555000Y-14351000D01*
X10579776Y-14348560D01*
X10603601Y-14341333D01*
X10625557Y-14329597D01*
X10644803Y-14313803D01*
X10660597Y-14294557D01*
X10672333Y-14272601D01*
X10679560Y-14248776D01*
X10682000Y-14224000D01*
X10682000Y-4689072D01*
X13816177Y-4689072D01*
X13805273Y-4695821D01*
G36*
X-10682000Y-14224000D02*
G01*
X-10679560Y-14248776D01*
X-10672333Y-14272601D01*
X-10660597Y-14294557D01*
X-10644803Y-14313803D01*
X-10625557Y-14329597D01*
X-10603601Y-14341333D01*
X-10579776Y-14348560D01*
X-10555000Y-14351000D01*
X-9326355Y-14351000D01*
X-16376241Y-17588732D01*
X-16522660Y-17574375D01*
X-16772429Y-17498965D01*
X-17002794Y-17376477D01*
X-17204979Y-17211579D01*
X-17371288Y-17010546D01*
X-17495378Y-16781046D01*
X-17572531Y-16531805D01*
X-17588853Y-16376506D01*
X-13168698Y-6751992D01*
X-13136909Y-6659890D01*
X-13134519Y-6642425D01*
X-13087773Y-6467440D01*
X-13078052Y-6408446D01*
X-13067498Y-6349536D01*
X-13066830Y-6340345D01*
X-13053136Y-6131804D01*
X-13055060Y-6072022D01*
X-13056149Y-6012203D01*
X-13057279Y-6003067D01*
X-13057279Y-6003061D01*
X-13057280Y-6003056D01*
X-13084354Y-5795828D01*
X-13097843Y-5737601D01*
X-13110538Y-5679097D01*
X-13113423Y-5670345D01*
X-13180231Y-5472321D01*
X-13204788Y-5417790D01*
X-13228593Y-5362892D01*
X-13233123Y-5354868D01*
X-13337123Y-5173592D01*
X-13371813Y-5124856D01*
X-13405814Y-5075648D01*
X-13411816Y-5068656D01*
X-13549044Y-4911032D01*
X-13592512Y-4869988D01*
X-13635457Y-4828289D01*
X-13642704Y-4822596D01*
X-13807936Y-4694629D01*
X-13816775Y-4689072D01*
X-10682000Y-4689072D01*
X-10682000Y-14224000D01*
G37*
X-10682000Y-14224000D02*
X-10679560Y-14248776D01*
X-10672333Y-14272601D01*
X-10660597Y-14294557D01*
X-10644803Y-14313803D01*
X-10625557Y-14329597D01*
X-10603601Y-14341333D01*
X-10579776Y-14348560D01*
X-10555000Y-14351000D01*
X-9326355Y-14351000D01*
X-16376241Y-17588732D01*
X-16522660Y-17574375D01*
X-16772429Y-17498965D01*
X-17002794Y-17376477D01*
X-17204979Y-17211579D01*
X-17371288Y-17010546D01*
X-17495378Y-16781046D01*
X-17572531Y-16531805D01*
X-17588853Y-16376506D01*
X-13168698Y-6751992D01*
X-13136909Y-6659890D01*
X-13134519Y-6642425D01*
X-13087773Y-6467440D01*
X-13078052Y-6408446D01*
X-13067498Y-6349536D01*
X-13066830Y-6340345D01*
X-13053136Y-6131804D01*
X-13055060Y-6072022D01*
X-13056149Y-6012203D01*
X-13057279Y-6003067D01*
X-13057279Y-6003061D01*
X-13057280Y-6003056D01*
X-13084354Y-5795828D01*
X-13097843Y-5737601D01*
X-13110538Y-5679097D01*
X-13113423Y-5670345D01*
X-13180231Y-5472321D01*
X-13204788Y-5417790D01*
X-13228593Y-5362892D01*
X-13233123Y-5354868D01*
X-13337123Y-5173592D01*
X-13371813Y-5124856D01*
X-13405814Y-5075648D01*
X-13411816Y-5068656D01*
X-13549044Y-4911032D01*
X-13592512Y-4869988D01*
X-13635457Y-4828289D01*
X-13642704Y-4822596D01*
X-13807936Y-4694629D01*
X-13816775Y-4689072D01*
X-10682000Y-4689072D01*
X-10682000Y-14224000D01*
G36*
X255023Y24311977D02*
G01*
X504998Y24237456D01*
X735736Y24115802D01*
X856995Y24017608D01*
X4515339Y14139386D01*
X4530969Y14107264D01*
X4533289Y14101078D01*
X4537409Y14092835D01*
X4550847Y14066412D01*
X4557970Y14051774D01*
X4558946Y14050488D01*
X4632149Y13906553D01*
X4664315Y13856173D01*
X4695821Y13805273D01*
X4701464Y13797988D01*
X4830581Y13633654D01*
X4871922Y13590479D01*
X4912716Y13546666D01*
X4919667Y13540615D01*
X5078245Y13404491D01*
X5127194Y13370161D01*
X5175708Y13335116D01*
X5183702Y13330530D01*
X5365700Y13227798D01*
X5420389Y13203628D01*
X5474788Y13178673D01*
X5483519Y13175727D01*
X5682005Y13110303D01*
X5740352Y13097216D01*
X5798552Y13083304D01*
X5807689Y13082110D01*
X6015103Y13056484D01*
X6074872Y13054979D01*
X6134677Y13052636D01*
X6143872Y13053240D01*
X6352313Y13068389D01*
X6411245Y13078523D01*
X6470356Y13087839D01*
X6479259Y13090218D01*
X6638723Y13134013D01*
X6659889Y13136909D01*
X6751990Y13168698D01*
X16376243Y17588731D01*
X16522659Y17574375D01*
X16772429Y17498965D01*
X17002792Y17376478D01*
X17204980Y17211578D01*
X17371286Y17010550D01*
X17495378Y16781046D01*
X17572531Y16531805D01*
X17588853Y16376508D01*
X13168698Y6751990D01*
X13136909Y6659889D01*
X13134519Y6642426D01*
X13087773Y6467440D01*
X13078052Y6408446D01*
X13067498Y6349536D01*
X13066830Y6340345D01*
X13053136Y6131804D01*
X13055060Y6072022D01*
X13056149Y6012203D01*
X13057279Y6003068D01*
X13057279Y6003061D01*
X13057280Y6003058D01*
X13084354Y5795828D01*
X13097843Y5737601D01*
X13110538Y5679097D01*
X13113423Y5670345D01*
X13180231Y5472321D01*
X13204794Y5417776D01*
X13228593Y5362893D01*
X13233123Y5354868D01*
X13337123Y5173592D01*
X13371813Y5124856D01*
X13405814Y5075648D01*
X13411816Y5068656D01*
X13549044Y4911032D01*
X13592532Y4869970D01*
X13635458Y4828289D01*
X13642704Y4822596D01*
X13807936Y4694629D01*
X13858573Y4662795D01*
X13908768Y4630251D01*
X13916982Y4626073D01*
X14048953Y4560111D01*
X14051774Y4557970D01*
X14139386Y4515340D01*
X24017337Y857095D01*
X24110638Y743508D01*
X24233900Y513625D01*
X24310165Y264177D01*
X24336525Y4667D01*
X24311977Y-255024D01*
X24237456Y-504999D01*
X24115804Y-735733D01*
X24017608Y-856994D01*
X16003072Y-3825134D01*
X16003072Y2019000D01*
X15990812Y2143482D01*
X15954502Y2263180D01*
X15895537Y2373494D01*
X15816185Y2470185D01*
X15719494Y2549537D01*
X15609180Y2608502D01*
X15489482Y2644812D01*
X15365000Y2657072D01*
X12984326Y2657072D01*
X12964974Y2693277D01*
X12893799Y2780003D01*
X12870001Y2809001D01*
X12841002Y2832800D01*
X12368803Y3304998D01*
X12345001Y3334001D01*
X12229276Y3428974D01*
X12097247Y3499546D01*
X11953986Y3543003D01*
X11842333Y3554000D01*
X11842322Y3554000D01*
X11805000Y3557676D01*
X11767678Y3554000D01*
X10682000Y3554000D01*
X10682000Y3564000D01*
X10679560Y3588776D01*
X10672333Y3612601D01*
X10660597Y3634557D01*
X10644803Y3653803D01*
X4661803Y9636803D01*
X4642557Y9652597D01*
X4620601Y9664333D01*
X4596776Y9671560D01*
X4572000Y9674000D01*
X-4572000Y9674000D01*
X-4596776Y9671560D01*
X-4620601Y9664333D01*
X-4642557Y9652597D01*
X-4661803Y9636803D01*
X-9728606Y4570000D01*
X-10751678Y4570000D01*
X-10789001Y4573676D01*
X-10826324Y4570000D01*
X-10826333Y4570000D01*
X-10937986Y4559003D01*
X-11081247Y4515546D01*
X-11213277Y4444974D01*
X-11296917Y4376332D01*
X-11329001Y4350001D01*
X-11352799Y4321003D01*
X-12841002Y2832799D01*
X-12870000Y2809001D01*
X-12893798Y2780003D01*
X-12893799Y2780002D01*
X-12964974Y2693276D01*
X-12984326Y2657072D01*
X-15365000Y2657072D01*
X-15489482Y2644812D01*
X-15609180Y2608502D01*
X-15719494Y2549537D01*
X-15816185Y2470185D01*
X-15895537Y2373494D01*
X-15954502Y2263180D01*
X-15990812Y2143482D01*
X-16003072Y2019000D01*
X-16003072Y-3825133D01*
X-24017336Y-857095D01*
X-24110637Y-743509D01*
X-24233900Y-513626D01*
X-24310165Y-264173D01*
X-24336525Y-4667D01*
X-24311977Y255023D01*
X-24237456Y504998D01*
X-24115802Y735736D01*
X-24017608Y856995D01*
X-14169427Y4504213D01*
X-14169425Y4504214D01*
X-14169399Y4504224D01*
X-14139386Y4515339D01*
X-14107264Y4530969D01*
X-14101078Y4533289D01*
X-14092835Y4537409D01*
X-14066412Y4550847D01*
X-14051774Y4557970D01*
X-14050488Y4558946D01*
X-13906553Y4632149D01*
X-13856173Y4664315D01*
X-13805273Y4695821D01*
X-13797988Y4701464D01*
X-13633654Y4830581D01*
X-13590479Y4871922D01*
X-13546666Y4912716D01*
X-13540615Y4919667D01*
X-13404491Y5078245D01*
X-13370161Y5127194D01*
X-13335116Y5175708D01*
X-13330530Y5183702D01*
X-13227798Y5365700D01*
X-13203628Y5420389D01*
X-13178673Y5474788D01*
X-13175727Y5483519D01*
X-13110303Y5682005D01*
X-13097216Y5740352D01*
X-13083304Y5798552D01*
X-13082110Y5807689D01*
X-13056484Y6015103D01*
X-13054979Y6074872D01*
X-13052636Y6134677D01*
X-13053240Y6143872D01*
X-13068389Y6352312D01*
X-13078522Y6411239D01*
X-13087839Y6470356D01*
X-13090218Y6479259D01*
X-13134013Y6638723D01*
X-13136909Y6659890D01*
X-13168698Y6751992D01*
X-17588732Y16376241D01*
X-17574375Y16522659D01*
X-17498965Y16772429D01*
X-17376478Y17002792D01*
X-17211578Y17204980D01*
X-17010550Y17371286D01*
X-16781046Y17495378D01*
X-16531805Y17572531D01*
X-16376506Y17588853D01*
X-6751992Y13168698D01*
X-6659890Y13136909D01*
X-6642425Y13134519D01*
X-6467440Y13087773D01*
X-6408446Y13078052D01*
X-6349536Y13067498D01*
X-6340345Y13066830D01*
X-6131804Y13053136D01*
X-6072022Y13055060D01*
X-6012203Y13056149D01*
X-6003068Y13057279D01*
X-6003061Y13057279D01*
X-6003055Y13057280D01*
X-5795828Y13084354D01*
X-5737601Y13097843D01*
X-5679097Y13110538D01*
X-5670345Y13113423D01*
X-5472321Y13180231D01*
X-5417776Y13204794D01*
X-5362893Y13228593D01*
X-5354868Y13233123D01*
X-5173592Y13337123D01*
X-5124856Y13371813D01*
X-5075648Y13405814D01*
X-5068656Y13411816D01*
X-4911032Y13549044D01*
X-4869970Y13592532D01*
X-4828289Y13635458D01*
X-4822596Y13642704D01*
X-4694629Y13807936D01*
X-4662795Y13858573D01*
X-4630251Y13908768D01*
X-4626073Y13916982D01*
X-4560111Y14048953D01*
X-4557970Y14051774D01*
X-4515340Y14139386D01*
X-857095Y24017337D01*
X-743508Y24110638D01*
X-513625Y24233900D01*
X-264177Y24310165D01*
X-4667Y24336525D01*
X255023Y24311977D01*
G37*
X255023Y24311977D02*
X504998Y24237456D01*
X735736Y24115802D01*
X856995Y24017608D01*
X4515339Y14139386D01*
X4530969Y14107264D01*
X4533289Y14101078D01*
X4537409Y14092835D01*
X4550847Y14066412D01*
X4557970Y14051774D01*
X4558946Y14050488D01*
X4632149Y13906553D01*
X4664315Y13856173D01*
X4695821Y13805273D01*
X4701464Y13797988D01*
X4830581Y13633654D01*
X4871922Y13590479D01*
X4912716Y13546666D01*
X4919667Y13540615D01*
X5078245Y13404491D01*
X5127194Y13370161D01*
X5175708Y13335116D01*
X5183702Y13330530D01*
X5365700Y13227798D01*
X5420389Y13203628D01*
X5474788Y13178673D01*
X5483519Y13175727D01*
X5682005Y13110303D01*
X5740352Y13097216D01*
X5798552Y13083304D01*
X5807689Y13082110D01*
X6015103Y13056484D01*
X6074872Y13054979D01*
X6134677Y13052636D01*
X6143872Y13053240D01*
X6352313Y13068389D01*
X6411245Y13078523D01*
X6470356Y13087839D01*
X6479259Y13090218D01*
X6638723Y13134013D01*
X6659889Y13136909D01*
X6751990Y13168698D01*
X16376243Y17588731D01*
X16522659Y17574375D01*
X16772429Y17498965D01*
X17002792Y17376478D01*
X17204980Y17211578D01*
X17371286Y17010550D01*
X17495378Y16781046D01*
X17572531Y16531805D01*
X17588853Y16376508D01*
X13168698Y6751990D01*
X13136909Y6659889D01*
X13134519Y6642426D01*
X13087773Y6467440D01*
X13078052Y6408446D01*
X13067498Y6349536D01*
X13066830Y6340345D01*
X13053136Y6131804D01*
X13055060Y6072022D01*
X13056149Y6012203D01*
X13057279Y6003068D01*
X13057279Y6003061D01*
X13057280Y6003058D01*
X13084354Y5795828D01*
X13097843Y5737601D01*
X13110538Y5679097D01*
X13113423Y5670345D01*
X13180231Y5472321D01*
X13204794Y5417776D01*
X13228593Y5362893D01*
X13233123Y5354868D01*
X13337123Y5173592D01*
X13371813Y5124856D01*
X13405814Y5075648D01*
X13411816Y5068656D01*
X13549044Y4911032D01*
X13592532Y4869970D01*
X13635458Y4828289D01*
X13642704Y4822596D01*
X13807936Y4694629D01*
X13858573Y4662795D01*
X13908768Y4630251D01*
X13916982Y4626073D01*
X14048953Y4560111D01*
X14051774Y4557970D01*
X14139386Y4515340D01*
X24017337Y857095D01*
X24110638Y743508D01*
X24233900Y513625D01*
X24310165Y264177D01*
X24336525Y4667D01*
X24311977Y-255024D01*
X24237456Y-504999D01*
X24115804Y-735733D01*
X24017608Y-856994D01*
X16003072Y-3825134D01*
X16003072Y2019000D01*
X15990812Y2143482D01*
X15954502Y2263180D01*
X15895537Y2373494D01*
X15816185Y2470185D01*
X15719494Y2549537D01*
X15609180Y2608502D01*
X15489482Y2644812D01*
X15365000Y2657072D01*
X12984326Y2657072D01*
X12964974Y2693277D01*
X12893799Y2780003D01*
X12870001Y2809001D01*
X12841002Y2832800D01*
X12368803Y3304998D01*
X12345001Y3334001D01*
X12229276Y3428974D01*
X12097247Y3499546D01*
X11953986Y3543003D01*
X11842333Y3554000D01*
X11842322Y3554000D01*
X11805000Y3557676D01*
X11767678Y3554000D01*
X10682000Y3554000D01*
X10682000Y3564000D01*
X10679560Y3588776D01*
X10672333Y3612601D01*
X10660597Y3634557D01*
X10644803Y3653803D01*
X4661803Y9636803D01*
X4642557Y9652597D01*
X4620601Y9664333D01*
X4596776Y9671560D01*
X4572000Y9674000D01*
X-4572000Y9674000D01*
X-4596776Y9671560D01*
X-4620601Y9664333D01*
X-4642557Y9652597D01*
X-4661803Y9636803D01*
X-9728606Y4570000D01*
X-10751678Y4570000D01*
X-10789001Y4573676D01*
X-10826324Y4570000D01*
X-10826333Y4570000D01*
X-10937986Y4559003D01*
X-11081247Y4515546D01*
X-11213277Y4444974D01*
X-11296917Y4376332D01*
X-11329001Y4350001D01*
X-11352799Y4321003D01*
X-12841002Y2832799D01*
X-12870000Y2809001D01*
X-12893798Y2780003D01*
X-12893799Y2780002D01*
X-12964974Y2693276D01*
X-12984326Y2657072D01*
X-15365000Y2657072D01*
X-15489482Y2644812D01*
X-15609180Y2608502D01*
X-15719494Y2549537D01*
X-15816185Y2470185D01*
X-15895537Y2373494D01*
X-15954502Y2263180D01*
X-15990812Y2143482D01*
X-16003072Y2019000D01*
X-16003072Y-3825133D01*
X-24017336Y-857095D01*
X-24110637Y-743509D01*
X-24233900Y-513626D01*
X-24310165Y-264173D01*
X-24336525Y-4667D01*
X-24311977Y255023D01*
X-24237456Y504998D01*
X-24115802Y735736D01*
X-24017608Y856995D01*
X-14169427Y4504213D01*
X-14169425Y4504214D01*
X-14169399Y4504224D01*
X-14139386Y4515339D01*
X-14107264Y4530969D01*
X-14101078Y4533289D01*
X-14092835Y4537409D01*
X-14066412Y4550847D01*
X-14051774Y4557970D01*
X-14050488Y4558946D01*
X-13906553Y4632149D01*
X-13856173Y4664315D01*
X-13805273Y4695821D01*
X-13797988Y4701464D01*
X-13633654Y4830581D01*
X-13590479Y4871922D01*
X-13546666Y4912716D01*
X-13540615Y4919667D01*
X-13404491Y5078245D01*
X-13370161Y5127194D01*
X-13335116Y5175708D01*
X-13330530Y5183702D01*
X-13227798Y5365700D01*
X-13203628Y5420389D01*
X-13178673Y5474788D01*
X-13175727Y5483519D01*
X-13110303Y5682005D01*
X-13097216Y5740352D01*
X-13083304Y5798552D01*
X-13082110Y5807689D01*
X-13056484Y6015103D01*
X-13054979Y6074872D01*
X-13052636Y6134677D01*
X-13053240Y6143872D01*
X-13068389Y6352312D01*
X-13078522Y6411239D01*
X-13087839Y6470356D01*
X-13090218Y6479259D01*
X-13134013Y6638723D01*
X-13136909Y6659890D01*
X-13168698Y6751992D01*
X-17588732Y16376241D01*
X-17574375Y16522659D01*
X-17498965Y16772429D01*
X-17376478Y17002792D01*
X-17211578Y17204980D01*
X-17010550Y17371286D01*
X-16781046Y17495378D01*
X-16531805Y17572531D01*
X-16376506Y17588853D01*
X-6751992Y13168698D01*
X-6659890Y13136909D01*
X-6642425Y13134519D01*
X-6467440Y13087773D01*
X-6408446Y13078052D01*
X-6349536Y13067498D01*
X-6340345Y13066830D01*
X-6131804Y13053136D01*
X-6072022Y13055060D01*
X-6012203Y13056149D01*
X-6003068Y13057279D01*
X-6003061Y13057279D01*
X-6003055Y13057280D01*
X-5795828Y13084354D01*
X-5737601Y13097843D01*
X-5679097Y13110538D01*
X-5670345Y13113423D01*
X-5472321Y13180231D01*
X-5417776Y13204794D01*
X-5362893Y13228593D01*
X-5354868Y13233123D01*
X-5173592Y13337123D01*
X-5124856Y13371813D01*
X-5075648Y13405814D01*
X-5068656Y13411816D01*
X-4911032Y13549044D01*
X-4869970Y13592532D01*
X-4828289Y13635458D01*
X-4822596Y13642704D01*
X-4694629Y13807936D01*
X-4662795Y13858573D01*
X-4630251Y13908768D01*
X-4626073Y13916982D01*
X-4560111Y14048953D01*
X-4557970Y14051774D01*
X-4515340Y14139386D01*
X-857095Y24017337D01*
X-743508Y24110638D01*
X-513625Y24233900D01*
X-264177Y24310165D01*
X-4667Y24336525D01*
X255023Y24311977D01*
M02*
