M48
; DRILL file {KiCad 5.1.7-a382d34a8~88~ubuntu20.04.1} date Sun Dec 13 10:37:34 2020
; FORMAT={-:-/ absolute / metric / decimal}
; #@! TF.CreationDate,2020-12-13T10:37:34-08:00
; #@! TF.GenerationSoftware,Kicad,Pcbnew,5.1.7-a382d34a8~88~ubuntu20.04.1
FMAT,2
METRIC
T1C0.400
T2C5.000
%
G90
G05
T1
X-24.25Y0.0
X-17.147Y17.147
X-17.147Y-17.147
X-12.33Y-1.016
X-11.0Y-9.8
X-11.0Y-11.6
X-8.972Y6.432
X-2.286Y-15.494
X-0.245Y2.936
X0.0Y24.25
X0.0Y-0.508
X0.0Y-24.25
X1.27Y-9.398
X4.572Y-4.919
X5.105Y-7.443
X9.144Y6.604
X11.1Y2.619
X11.181Y-6.647
X12.33Y-1.016
X16.765Y-2.033
X17.147Y17.147
X17.147Y-17.147
X24.25Y0.0
T2
X0.0Y17.272
T0
M30
