G04 #@! TF.GenerationSoftware,KiCad,Pcbnew,5.1.5-52549c5~86~ubuntu19.04.1*
G04 #@! TF.CreationDate,2020-07-03T08:07:59-07:00*
G04 #@! TF.ProjectId,smd-star,736d642d-7374-4617-922e-6b696361645f,rev?*
G04 #@! TF.SameCoordinates,Original*
G04 #@! TF.FileFunction,Legend,Bot*
G04 #@! TF.FilePolarity,Positive*
%FSLAX46Y46*%
G04 Gerber Fmt 4.6, Leading zero omitted, Abs format (unit mm)*
G04 Created by KiCad (PCBNEW 5.1.5-52549c5~86~ubuntu19.04.1) date 2020-07-03 08:07:59*
%MOMM*%
%LPD*%
G04 APERTURE LIST*
%ADD10C,0.127000*%
%ADD11C,0.015000*%
G04 APERTURE END LIST*
D10*
X-10555000Y2794000D02*
X-10555000Y3564000D01*
X-10555000Y3564000D02*
X-4500000Y9554000D01*
X-4500000Y9554000D02*
X4500000Y9554000D01*
X4500000Y9554000D02*
X10555000Y3564000D01*
X10555000Y3564000D02*
X10555000Y2794000D01*
X10555000Y-4826000D02*
X10555000Y-8516000D01*
X10554999Y-8516000D02*
G75*
G02X6000000Y-8816000I-2332837J690214D01*
G01*
X5999999Y-8816000D02*
G75*
G03X-6000000Y-8816000I-5999999J-4201245D01*
G01*
X-6000000Y-8816000D02*
G75*
G02X-10555000Y-8516000I-2222162J990214D01*
G01*
X-10555000Y-8516000D02*
X-10555000Y-4826000D01*
D11*
X-6904285Y-11549571D02*
X-7047142Y-11597190D01*
X-7094761Y-11644809D01*
X-7142380Y-11740047D01*
X-7142380Y-11882904D01*
X-7094761Y-11978142D01*
X-7047142Y-12025761D01*
X-6951904Y-12073380D01*
X-6570952Y-12073380D01*
X-6570952Y-11073380D01*
X-6904285Y-11073380D01*
X-6999523Y-11121000D01*
X-7047142Y-11168619D01*
X-7094761Y-11263857D01*
X-7094761Y-11359095D01*
X-7047142Y-11454333D01*
X-6999523Y-11501952D01*
X-6904285Y-11549571D01*
X-6570952Y-11549571D01*
X-7428095Y-11073380D02*
X-7999523Y-11073380D01*
X-7713809Y-12073380D02*
X-7713809Y-11073380D01*
X-8856666Y-12073380D02*
X-8285238Y-12073380D01*
X-8570952Y-12073380D02*
X-8570952Y-11073380D01*
X-8475714Y-11216238D01*
X-8380476Y-11311476D01*
X-8285238Y-11359095D01*
M02*
