G04 #@! TF.GenerationSoftware,KiCad,Pcbnew,5.1.7-a382d34a8~88~ubuntu20.04.1*
G04 #@! TF.CreationDate,2020-12-13T10:37:33-08:00*
G04 #@! TF.ProjectId,smd-sun,736d642d-7375-46e2-9e6b-696361645f70,rev?*
G04 #@! TF.SameCoordinates,Original*
G04 #@! TF.FileFunction,Legend,Bot*
G04 #@! TF.FilePolarity,Positive*
%FSLAX46Y46*%
G04 Gerber Fmt 4.6, Leading zero omitted, Abs format (unit mm)*
G04 Created by KiCad (PCBNEW 5.1.7-a382d34a8~88~ubuntu20.04.1) date 2020-12-13 10:37:33*
%MOMM*%
%LPD*%
G01*
G04 APERTURE LIST*
%ADD10C,0.300000*%
%ADD11C,0.015000*%
G04 APERTURE END LIST*
D10*
X9238095Y-4604761D02*
X9238095Y-6033333D01*
X9333333Y-6319047D01*
X9523809Y-6509523D01*
X9809523Y-6604761D01*
X9999999Y-6604761D01*
X7333333Y-6604761D02*
X8285714Y-6604761D01*
X8285714Y-4604761D01*
X5523809Y-6414285D02*
X5619047Y-6509523D01*
X5904761Y-6604761D01*
X6095238Y-6604761D01*
X6380952Y-6509523D01*
X6571428Y-6319047D01*
X6666666Y-6128571D01*
X6761904Y-5747619D01*
X6761904Y-5461904D01*
X6666666Y-5080952D01*
X6571428Y-4890476D01*
X6380952Y-4700000D01*
X6095238Y-4604761D01*
X5904761Y-4604761D01*
X5619047Y-4700000D01*
X5523809Y-4795238D01*
X4095238Y-4604761D02*
X4095238Y-6033333D01*
X4190476Y-6319047D01*
X4380952Y-6509523D01*
X4666666Y-6604761D01*
X4857142Y-6604761D01*
X2190476Y-6604761D02*
X3142857Y-6604761D01*
X3142857Y-4604761D01*
X380952Y-6414285D02*
X476190Y-6509523D01*
X761904Y-6604761D01*
X952380Y-6604761D01*
X1238095Y-6509523D01*
X1428571Y-6319047D01*
X1523809Y-6128571D01*
X1619047Y-5747619D01*
X1619047Y-5461904D01*
X1523809Y-5080952D01*
X1428571Y-4890476D01*
X1238095Y-4700000D01*
X952380Y-4604761D01*
X761904Y-4604761D01*
X476190Y-4700000D01*
X380952Y-4795238D01*
X-1047619Y-4604761D02*
X-1047619Y-6033333D01*
X-952380Y-6319047D01*
X-761904Y-6509523D01*
X-476190Y-6604761D01*
X-285714Y-6604761D01*
X-2952380Y-6604761D02*
X-2000000Y-6604761D01*
X-2000000Y-4604761D01*
X-4761904Y-6414285D02*
X-4666666Y-6509523D01*
X-4380952Y-6604761D01*
X-4190476Y-6604761D01*
X-3904761Y-6509523D01*
X-3714285Y-6319047D01*
X-3619047Y-6128571D01*
X-3523809Y-5747619D01*
X-3523809Y-5461904D01*
X-3619047Y-5080952D01*
X-3714285Y-4890476D01*
X-3904761Y-4700000D01*
X-4190476Y-4604761D01*
X-4380952Y-4604761D01*
X-4666666Y-4700000D01*
X-4761904Y-4795238D01*
X-6190476Y-4604761D02*
X-6190476Y-6033333D01*
X-6095238Y-6319047D01*
X-5904761Y-6509523D01*
X-5619047Y-6604761D01*
X-5428571Y-6604761D01*
X-8095238Y-6604761D02*
X-7142857Y-6604761D01*
X-7142857Y-4604761D01*
X-9904761Y-6414285D02*
X-9809523Y-6509523D01*
X-9523809Y-6604761D01*
X-9333333Y-6604761D01*
X-9047619Y-6509523D01*
X-8857142Y-6319047D01*
X-8761904Y-6128571D01*
X-8666666Y-5747619D01*
X-8666666Y-5461904D01*
X-8761904Y-5080952D01*
X-8857142Y-4890476D01*
X-9047619Y-4700000D01*
X-9333333Y-4604761D01*
X-9523809Y-4604761D01*
X-9809523Y-4700000D01*
X-9904761Y-4795238D01*
X6047619Y-9540761D02*
X6047619Y-7540761D01*
X5571428Y-7540761D01*
X5285714Y-7636000D01*
X5095238Y-7826476D01*
X4999999Y-8016952D01*
X4904761Y-8397904D01*
X4904761Y-8683619D01*
X4999999Y-9064571D01*
X5095238Y-9255047D01*
X5285714Y-9445523D01*
X5571428Y-9540761D01*
X6047619Y-9540761D01*
X3285714Y-9445523D02*
X3476190Y-9540761D01*
X3857142Y-9540761D01*
X4047619Y-9445523D01*
X4142857Y-9255047D01*
X4142857Y-8493142D01*
X4047619Y-8302666D01*
X3857142Y-8207428D01*
X3476190Y-8207428D01*
X3285714Y-8302666D01*
X3190476Y-8493142D01*
X3190476Y-8683619D01*
X4142857Y-8874095D01*
X1476190Y-9445523D02*
X1666666Y-9540761D01*
X2047619Y-9540761D01*
X2238095Y-9445523D01*
X2333333Y-9350285D01*
X2428571Y-9159809D01*
X2428571Y-8588380D01*
X2333333Y-8397904D01*
X2238095Y-8302666D01*
X2047619Y-8207428D01*
X1666666Y-8207428D01*
X1476190Y-8302666D01*
X714285Y-7731238D02*
X619047Y-7636000D01*
X428571Y-7540761D01*
X-47619Y-7540761D01*
X-238095Y-7636000D01*
X-333333Y-7731238D01*
X-428571Y-7921714D01*
X-428571Y-8112190D01*
X-333333Y-8397904D01*
X809523Y-9540761D01*
X-428571Y-9540761D01*
X-1666666Y-7540761D02*
X-1857142Y-7540761D01*
X-2047619Y-7636000D01*
X-2142857Y-7731238D01*
X-2238095Y-7921714D01*
X-2333333Y-8302666D01*
X-2333333Y-8778857D01*
X-2238095Y-9159809D01*
X-2142857Y-9350285D01*
X-2047619Y-9445523D01*
X-1857142Y-9540761D01*
X-1666666Y-9540761D01*
X-1476190Y-9445523D01*
X-1380952Y-9350285D01*
X-1285714Y-9159809D01*
X-1190476Y-8778857D01*
X-1190476Y-8302666D01*
X-1285714Y-7921714D01*
X-1380952Y-7731238D01*
X-1476190Y-7636000D01*
X-1666666Y-7540761D01*
X-3095238Y-7731238D02*
X-3190476Y-7636000D01*
X-3380952Y-7540761D01*
X-3857142Y-7540761D01*
X-4047619Y-7636000D01*
X-4142857Y-7731238D01*
X-4238095Y-7921714D01*
X-4238095Y-8112190D01*
X-4142857Y-8397904D01*
X-3000000Y-9540761D01*
X-4238095Y-9540761D01*
X-5476190Y-7540761D02*
X-5666666Y-7540761D01*
X-5857142Y-7636000D01*
X-5952380Y-7731238D01*
X-6047619Y-7921714D01*
X-6142857Y-8302666D01*
X-6142857Y-8778857D01*
X-6047619Y-9159809D01*
X-5952380Y-9350285D01*
X-5857142Y-9445523D01*
X-5666666Y-9540761D01*
X-5476190Y-9540761D01*
X-5285714Y-9445523D01*
X-5190476Y-9350285D01*
X-5095238Y-9159809D01*
X-5000000Y-8778857D01*
X-5000000Y-8302666D01*
X-5095238Y-7921714D01*
X-5190476Y-7731238D01*
X-5285714Y-7636000D01*
X-5476190Y-7540761D01*
X12476190Y-12493523D02*
X12285714Y-12588761D01*
X11904761Y-12588761D01*
X11714285Y-12493523D01*
X11619047Y-12303047D01*
X11619047Y-12207809D01*
X11714285Y-12017333D01*
X11904761Y-11922095D01*
X12190476Y-11922095D01*
X12380952Y-11826857D01*
X12476190Y-11636380D01*
X12476190Y-11541142D01*
X12380952Y-11350666D01*
X12190476Y-11255428D01*
X11904761Y-11255428D01*
X11714285Y-11350666D01*
X10761904Y-12588761D02*
X10761904Y-11255428D01*
X10761904Y-11445904D02*
X10666666Y-11350666D01*
X10476190Y-11255428D01*
X10190476Y-11255428D01*
X10000000Y-11350666D01*
X9904761Y-11541142D01*
X9904761Y-12588761D01*
X9904761Y-11541142D02*
X9809523Y-11350666D01*
X9619047Y-11255428D01*
X9333333Y-11255428D01*
X9142857Y-11350666D01*
X9047619Y-11541142D01*
X9047619Y-12588761D01*
X7238095Y-12588761D02*
X7238095Y-10588761D01*
X7238095Y-12493523D02*
X7428571Y-12588761D01*
X7809523Y-12588761D01*
X8000000Y-12493523D01*
X8095238Y-12398285D01*
X8190476Y-12207809D01*
X8190476Y-11636380D01*
X8095238Y-11445904D01*
X8000000Y-11350666D01*
X7809523Y-11255428D01*
X7428571Y-11255428D01*
X7238095Y-11350666D01*
X6285714Y-11826857D02*
X4761904Y-11826857D01*
X3904761Y-12493523D02*
X3714285Y-12588761D01*
X3333333Y-12588761D01*
X3142857Y-12493523D01*
X3047619Y-12303047D01*
X3047619Y-12207809D01*
X3142857Y-12017333D01*
X3333333Y-11922095D01*
X3619047Y-11922095D01*
X3809523Y-11826857D01*
X3904761Y-11636380D01*
X3904761Y-11541142D01*
X3809523Y-11350666D01*
X3619047Y-11255428D01*
X3333333Y-11255428D01*
X3142857Y-11350666D01*
X1333333Y-11255428D02*
X1333333Y-12588761D01*
X2190476Y-11255428D02*
X2190476Y-12303047D01*
X2095238Y-12493523D01*
X1904761Y-12588761D01*
X1619047Y-12588761D01*
X1428571Y-12493523D01*
X1333333Y-12398285D01*
X380952Y-11255428D02*
X380952Y-12588761D01*
X380952Y-11445904D02*
X285714Y-11350666D01*
X95238Y-11255428D01*
X-190476Y-11255428D01*
X-380952Y-11350666D01*
X-476190Y-11541142D01*
X-476190Y-12588761D01*
X-1428571Y-12398285D02*
X-1523809Y-12493523D01*
X-1428571Y-12588761D01*
X-1333333Y-12493523D01*
X-1428571Y-12398285D01*
X-1428571Y-12588761D01*
X-2095238Y-11255428D02*
X-2857142Y-11255428D01*
X-2380952Y-10588761D02*
X-2380952Y-12303047D01*
X-2476190Y-12493523D01*
X-2666666Y-12588761D01*
X-2857142Y-12588761D01*
X-3809523Y-12588761D02*
X-3619047Y-12493523D01*
X-3523809Y-12398285D01*
X-3428571Y-12207809D01*
X-3428571Y-11636380D01*
X-3523809Y-11445904D01*
X-3619047Y-11350666D01*
X-3809523Y-11255428D01*
X-4095238Y-11255428D01*
X-4285714Y-11350666D01*
X-4380952Y-11445904D01*
X-4476190Y-11636380D01*
X-4476190Y-12207809D01*
X-4380952Y-12398285D01*
X-4285714Y-12493523D01*
X-4095238Y-12588761D01*
X-3809523Y-12588761D01*
X-5333333Y-12588761D02*
X-5333333Y-11255428D01*
X-5333333Y-11445904D02*
X-5428571Y-11350666D01*
X-5619047Y-11255428D01*
X-5904761Y-11255428D01*
X-6095238Y-11350666D01*
X-6190476Y-11541142D01*
X-6190476Y-12588761D01*
X-6190476Y-11541142D02*
X-6285714Y-11350666D01*
X-6476190Y-11255428D01*
X-6761904Y-11255428D01*
X-6952380Y-11350666D01*
X-7047619Y-11541142D01*
X-7047619Y-12588761D01*
X-7999999Y-12588761D02*
X-7999999Y-10588761D01*
X-8190476Y-11826857D02*
X-8761904Y-12588761D01*
X-8761904Y-11255428D02*
X-7999999Y-12017333D01*
X-9619047Y-12398285D02*
X-9714285Y-12493523D01*
X-9619047Y-12588761D01*
X-9523809Y-12493523D01*
X-9619047Y-12398285D01*
X-9619047Y-12588761D01*
X-10571428Y-12588761D02*
X-10571428Y-11255428D01*
X-10571428Y-10588761D02*
X-10476190Y-10684000D01*
X-10571428Y-10779238D01*
X-10666666Y-10684000D01*
X-10571428Y-10588761D01*
X-10571428Y-10779238D01*
X-11523809Y-11255428D02*
X-11523809Y-12588761D01*
X-11523809Y-11445904D02*
X-11619047Y-11350666D01*
X-11809523Y-11255428D01*
X-12095238Y-11255428D01*
X-12285714Y-11350666D01*
X-12380952Y-11541142D01*
X-12380952Y-12588761D01*
D11*
X-6904285Y-11549571D02*
X-7047142Y-11597190D01*
X-7094761Y-11644809D01*
X-7142380Y-11740047D01*
X-7142380Y-11882904D01*
X-7094761Y-11978142D01*
X-7047142Y-12025761D01*
X-6951904Y-12073380D01*
X-6570952Y-12073380D01*
X-6570952Y-11073380D01*
X-6904285Y-11073380D01*
X-6999523Y-11121000D01*
X-7047142Y-11168619D01*
X-7094761Y-11263857D01*
X-7094761Y-11359095D01*
X-7047142Y-11454333D01*
X-6999523Y-11501952D01*
X-6904285Y-11549571D01*
X-6570952Y-11549571D01*
X-7428095Y-11073380D02*
X-7999523Y-11073380D01*
X-7713809Y-12073380D02*
X-7713809Y-11073380D01*
X-8856666Y-12073380D02*
X-8285238Y-12073380D01*
X-8570952Y-12073380D02*
X-8570952Y-11073380D01*
X-8475714Y-11216238D01*
X-8380476Y-11311476D01*
X-8285238Y-11359095D01*
M02*
