G04 #@! TF.GenerationSoftware,KiCad,Pcbnew,5.1.7-a382d34a8~88~ubuntu20.04.1*
G04 #@! TF.CreationDate,2020-12-13T21:22:30-08:00*
G04 #@! TF.ProjectId,smd-sun,736d642d-7375-46e2-9e6b-696361645f70,rev?*
G04 #@! TF.SameCoordinates,Original*
G04 #@! TF.FileFunction,Copper,L1,Top*
G04 #@! TF.FilePolarity,Positive*
%FSLAX46Y46*%
G04 Gerber Fmt 4.6, Leading zero omitted, Abs format (unit mm)*
G04 Created by KiCad (PCBNEW 5.1.7-a382d34a8~88~ubuntu20.04.1) date 2020-12-13 21:22:30*
%MOMM*%
%LPD*%
G01*
G04 APERTURE LIST*
G04 #@! TA.AperFunction,SMDPad,CuDef*
%ADD10C,3.000000*%
G04 #@! TD*
G04 #@! TA.AperFunction,ViaPad*
%ADD11C,0.800000*%
G04 #@! TD*
G04 #@! TA.AperFunction,ViaPad*
%ADD12C,5.010000*%
G04 #@! TD*
G04 #@! TA.AperFunction,Conductor*
%ADD13C,0.250000*%
G04 #@! TD*
G04 #@! TA.AperFunction,Conductor*
%ADD14C,0.127000*%
G04 #@! TD*
G04 #@! TA.AperFunction,Conductor*
%ADD15C,0.254000*%
G04 #@! TD*
G04 #@! TA.AperFunction,Conductor*
%ADD16C,0.100000*%
G04 #@! TD*
G04 APERTURE END LIST*
D10*
X10000000Y0D03*
X-10000000Y0D03*
G04 #@! TA.AperFunction,SMDPad,CuDef*
G36*
G01*
X-4245000Y-3460000D02*
X-4645000Y-3460000D01*
G75*
G02*
X-4845000Y-3260000I0J200000D01*
G01*
X-4845000Y-1660000D01*
G75*
G02*
X-4645000Y-1460000I200000J0D01*
G01*
X-4245000Y-1460000D01*
G75*
G02*
X-4045000Y-1660000I0J-200000D01*
G01*
X-4045000Y-3260000D01*
G75*
G02*
X-4245000Y-3460000I-200000J0D01*
G01*
G37*
G04 #@! TD.AperFunction*
G04 #@! TA.AperFunction,SMDPad,CuDef*
G36*
G01*
X-2975000Y-3460000D02*
X-3375000Y-3460000D01*
G75*
G02*
X-3575000Y-3260000I0J200000D01*
G01*
X-3575000Y-1660000D01*
G75*
G02*
X-3375000Y-1460000I200000J0D01*
G01*
X-2975000Y-1460000D01*
G75*
G02*
X-2775000Y-1660000I0J-200000D01*
G01*
X-2775000Y-3260000D01*
G75*
G02*
X-2975000Y-3460000I-200000J0D01*
G01*
G37*
G04 #@! TD.AperFunction*
G04 #@! TA.AperFunction,SMDPad,CuDef*
G36*
G01*
X-1705000Y-3460000D02*
X-2105000Y-3460000D01*
G75*
G02*
X-2305000Y-3260000I0J200000D01*
G01*
X-2305000Y-1660000D01*
G75*
G02*
X-2105000Y-1460000I200000J0D01*
G01*
X-1705000Y-1460000D01*
G75*
G02*
X-1505000Y-1660000I0J-200000D01*
G01*
X-1505000Y-3260000D01*
G75*
G02*
X-1705000Y-3460000I-200000J0D01*
G01*
G37*
G04 #@! TD.AperFunction*
G04 #@! TA.AperFunction,SMDPad,CuDef*
G36*
G01*
X-435000Y-3460000D02*
X-835000Y-3460000D01*
G75*
G02*
X-1035000Y-3260000I0J200000D01*
G01*
X-1035000Y-1660000D01*
G75*
G02*
X-835000Y-1460000I200000J0D01*
G01*
X-435000Y-1460000D01*
G75*
G02*
X-235000Y-1660000I0J-200000D01*
G01*
X-235000Y-3260000D01*
G75*
G02*
X-435000Y-3460000I-200000J0D01*
G01*
G37*
G04 #@! TD.AperFunction*
G04 #@! TA.AperFunction,SMDPad,CuDef*
G36*
G01*
X835000Y-3460000D02*
X435000Y-3460000D01*
G75*
G02*
X235000Y-3260000I0J200000D01*
G01*
X235000Y-1660000D01*
G75*
G02*
X435000Y-1460000I200000J0D01*
G01*
X835000Y-1460000D01*
G75*
G02*
X1035000Y-1660000I0J-200000D01*
G01*
X1035000Y-3260000D01*
G75*
G02*
X835000Y-3460000I-200000J0D01*
G01*
G37*
G04 #@! TD.AperFunction*
G04 #@! TA.AperFunction,SMDPad,CuDef*
G36*
G01*
X2105000Y-3460000D02*
X1705000Y-3460000D01*
G75*
G02*
X1505000Y-3260000I0J200000D01*
G01*
X1505000Y-1660000D01*
G75*
G02*
X1705000Y-1460000I200000J0D01*
G01*
X2105000Y-1460000D01*
G75*
G02*
X2305000Y-1660000I0J-200000D01*
G01*
X2305000Y-3260000D01*
G75*
G02*
X2105000Y-3460000I-200000J0D01*
G01*
G37*
G04 #@! TD.AperFunction*
G04 #@! TA.AperFunction,SMDPad,CuDef*
G36*
G01*
X3375000Y-3460000D02*
X2975000Y-3460000D01*
G75*
G02*
X2775000Y-3260000I0J200000D01*
G01*
X2775000Y-1660000D01*
G75*
G02*
X2975000Y-1460000I200000J0D01*
G01*
X3375000Y-1460000D01*
G75*
G02*
X3575000Y-1660000I0J-200000D01*
G01*
X3575000Y-3260000D01*
G75*
G02*
X3375000Y-3460000I-200000J0D01*
G01*
G37*
G04 #@! TD.AperFunction*
G04 #@! TA.AperFunction,SMDPad,CuDef*
G36*
G01*
X4645000Y-3460000D02*
X4245000Y-3460000D01*
G75*
G02*
X4045000Y-3260000I0J200000D01*
G01*
X4045000Y-1660000D01*
G75*
G02*
X4245000Y-1460000I200000J0D01*
G01*
X4645000Y-1460000D01*
G75*
G02*
X4845000Y-1660000I0J-200000D01*
G01*
X4845000Y-3260000D01*
G75*
G02*
X4645000Y-3460000I-200000J0D01*
G01*
G37*
G04 #@! TD.AperFunction*
G04 #@! TA.AperFunction,SMDPad,CuDef*
G36*
G01*
X4645000Y-8540000D02*
X4245000Y-8540000D01*
G75*
G02*
X4045000Y-8340000I0J200000D01*
G01*
X4045000Y-6740000D01*
G75*
G02*
X4245000Y-6540000I200000J0D01*
G01*
X4645000Y-6540000D01*
G75*
G02*
X4845000Y-6740000I0J-200000D01*
G01*
X4845000Y-8340000D01*
G75*
G02*
X4645000Y-8540000I-200000J0D01*
G01*
G37*
G04 #@! TD.AperFunction*
G04 #@! TA.AperFunction,SMDPad,CuDef*
G36*
G01*
X3375000Y-8540000D02*
X2975000Y-8540000D01*
G75*
G02*
X2775000Y-8340000I0J200000D01*
G01*
X2775000Y-6740000D01*
G75*
G02*
X2975000Y-6540000I200000J0D01*
G01*
X3375000Y-6540000D01*
G75*
G02*
X3575000Y-6740000I0J-200000D01*
G01*
X3575000Y-8340000D01*
G75*
G02*
X3375000Y-8540000I-200000J0D01*
G01*
G37*
G04 #@! TD.AperFunction*
G04 #@! TA.AperFunction,SMDPad,CuDef*
G36*
G01*
X2105000Y-8540000D02*
X1705000Y-8540000D01*
G75*
G02*
X1505000Y-8340000I0J200000D01*
G01*
X1505000Y-6740000D01*
G75*
G02*
X1705000Y-6540000I200000J0D01*
G01*
X2105000Y-6540000D01*
G75*
G02*
X2305000Y-6740000I0J-200000D01*
G01*
X2305000Y-8340000D01*
G75*
G02*
X2105000Y-8540000I-200000J0D01*
G01*
G37*
G04 #@! TD.AperFunction*
G04 #@! TA.AperFunction,SMDPad,CuDef*
G36*
G01*
X835000Y-8540000D02*
X435000Y-8540000D01*
G75*
G02*
X235000Y-8340000I0J200000D01*
G01*
X235000Y-6740000D01*
G75*
G02*
X435000Y-6540000I200000J0D01*
G01*
X835000Y-6540000D01*
G75*
G02*
X1035000Y-6740000I0J-200000D01*
G01*
X1035000Y-8340000D01*
G75*
G02*
X835000Y-8540000I-200000J0D01*
G01*
G37*
G04 #@! TD.AperFunction*
G04 #@! TA.AperFunction,SMDPad,CuDef*
G36*
G01*
X-435000Y-8540000D02*
X-835000Y-8540000D01*
G75*
G02*
X-1035000Y-8340000I0J200000D01*
G01*
X-1035000Y-6740000D01*
G75*
G02*
X-835000Y-6540000I200000J0D01*
G01*
X-435000Y-6540000D01*
G75*
G02*
X-235000Y-6740000I0J-200000D01*
G01*
X-235000Y-8340000D01*
G75*
G02*
X-435000Y-8540000I-200000J0D01*
G01*
G37*
G04 #@! TD.AperFunction*
G04 #@! TA.AperFunction,SMDPad,CuDef*
G36*
G01*
X-1705000Y-8540000D02*
X-2105000Y-8540000D01*
G75*
G02*
X-2305000Y-8340000I0J200000D01*
G01*
X-2305000Y-6740000D01*
G75*
G02*
X-2105000Y-6540000I200000J0D01*
G01*
X-1705000Y-6540000D01*
G75*
G02*
X-1505000Y-6740000I0J-200000D01*
G01*
X-1505000Y-8340000D01*
G75*
G02*
X-1705000Y-8540000I-200000J0D01*
G01*
G37*
G04 #@! TD.AperFunction*
G04 #@! TA.AperFunction,SMDPad,CuDef*
G36*
G01*
X-2975000Y-8540000D02*
X-3375000Y-8540000D01*
G75*
G02*
X-3575000Y-8340000I0J200000D01*
G01*
X-3575000Y-6740000D01*
G75*
G02*
X-3375000Y-6540000I200000J0D01*
G01*
X-2975000Y-6540000D01*
G75*
G02*
X-2775000Y-6740000I0J-200000D01*
G01*
X-2775000Y-8340000D01*
G75*
G02*
X-2975000Y-8540000I-200000J0D01*
G01*
G37*
G04 #@! TD.AperFunction*
G04 #@! TA.AperFunction,SMDPad,CuDef*
G36*
G01*
X-4245000Y-8475000D02*
X-4645000Y-8475000D01*
G75*
G02*
X-4845000Y-8275000I0J200000D01*
G01*
X-4845000Y-6675000D01*
G75*
G02*
X-4645000Y-6475000I200000J0D01*
G01*
X-4245000Y-6475000D01*
G75*
G02*
X-4045000Y-6675000I0J-200000D01*
G01*
X-4045000Y-8275000D01*
G75*
G02*
X-4245000Y-8475000I-200000J0D01*
G01*
G37*
G04 #@! TD.AperFunction*
G04 #@! TA.AperFunction,SMDPad,CuDef*
G36*
G01*
X1540000Y3991000D02*
X1540000Y4391000D01*
G75*
G02*
X1740000Y4591000I200000J0D01*
G01*
X3340000Y4591000D01*
G75*
G02*
X3540000Y4391000I0J-200000D01*
G01*
X3540000Y3991000D01*
G75*
G02*
X3340000Y3791000I-200000J0D01*
G01*
X1740000Y3791000D01*
G75*
G02*
X1540000Y3991000I0J200000D01*
G01*
G37*
G04 #@! TD.AperFunction*
G04 #@! TA.AperFunction,SMDPad,CuDef*
G36*
G01*
X1540000Y2721000D02*
X1540000Y3121000D01*
G75*
G02*
X1740000Y3321000I200000J0D01*
G01*
X3340000Y3321000D01*
G75*
G02*
X3540000Y3121000I0J-200000D01*
G01*
X3540000Y2721000D01*
G75*
G02*
X3340000Y2521000I-200000J0D01*
G01*
X1740000Y2521000D01*
G75*
G02*
X1540000Y2721000I0J200000D01*
G01*
G37*
G04 #@! TD.AperFunction*
G04 #@! TA.AperFunction,SMDPad,CuDef*
G36*
G01*
X1540000Y1451000D02*
X1540000Y1851000D01*
G75*
G02*
X1740000Y2051000I200000J0D01*
G01*
X3340000Y2051000D01*
G75*
G02*
X3540000Y1851000I0J-200000D01*
G01*
X3540000Y1451000D01*
G75*
G02*
X3340000Y1251000I-200000J0D01*
G01*
X1740000Y1251000D01*
G75*
G02*
X1540000Y1451000I0J200000D01*
G01*
G37*
G04 #@! TD.AperFunction*
G04 #@! TA.AperFunction,SMDPad,CuDef*
G36*
G01*
X1540000Y181000D02*
X1540000Y581000D01*
G75*
G02*
X1740000Y781000I200000J0D01*
G01*
X3340000Y781000D01*
G75*
G02*
X3540000Y581000I0J-200000D01*
G01*
X3540000Y181000D01*
G75*
G02*
X3340000Y-19000I-200000J0D01*
G01*
X1740000Y-19000D01*
G75*
G02*
X1540000Y181000I0J200000D01*
G01*
G37*
G04 #@! TD.AperFunction*
G04 #@! TA.AperFunction,SMDPad,CuDef*
G36*
G01*
X-3540000Y181000D02*
X-3540000Y581000D01*
G75*
G02*
X-3340000Y781000I200000J0D01*
G01*
X-1740000Y781000D01*
G75*
G02*
X-1540000Y581000I0J-200000D01*
G01*
X-1540000Y181000D01*
G75*
G02*
X-1740000Y-19000I-200000J0D01*
G01*
X-3340000Y-19000D01*
G75*
G02*
X-3540000Y181000I0J200000D01*
G01*
G37*
G04 #@! TD.AperFunction*
G04 #@! TA.AperFunction,SMDPad,CuDef*
G36*
G01*
X-3540000Y1451000D02*
X-3540000Y1851000D01*
G75*
G02*
X-3340000Y2051000I200000J0D01*
G01*
X-1740000Y2051000D01*
G75*
G02*
X-1540000Y1851000I0J-200000D01*
G01*
X-1540000Y1451000D01*
G75*
G02*
X-1740000Y1251000I-200000J0D01*
G01*
X-3340000Y1251000D01*
G75*
G02*
X-3540000Y1451000I0J200000D01*
G01*
G37*
G04 #@! TD.AperFunction*
G04 #@! TA.AperFunction,SMDPad,CuDef*
G36*
G01*
X-3540000Y2721000D02*
X-3540000Y3121000D01*
G75*
G02*
X-3340000Y3321000I200000J0D01*
G01*
X-1740000Y3321000D01*
G75*
G02*
X-1540000Y3121000I0J-200000D01*
G01*
X-1540000Y2721000D01*
G75*
G02*
X-1740000Y2521000I-200000J0D01*
G01*
X-3340000Y2521000D01*
G75*
G02*
X-3540000Y2721000I0J200000D01*
G01*
G37*
G04 #@! TD.AperFunction*
G04 #@! TA.AperFunction,SMDPad,CuDef*
G36*
G01*
X-3575000Y3991000D02*
X-3575000Y4391000D01*
G75*
G02*
X-3375000Y4591000I200000J0D01*
G01*
X-1775000Y4591000D01*
G75*
G02*
X-1575000Y4391000I0J-200000D01*
G01*
X-1575000Y3991000D01*
G75*
G02*
X-1775000Y3791000I-200000J0D01*
G01*
X-3375000Y3791000D01*
G75*
G02*
X-3575000Y3991000I0J200000D01*
G01*
G37*
G04 #@! TD.AperFunction*
G04 #@! TA.AperFunction,SMDPad,CuDef*
G36*
G01*
X6634978Y7521306D02*
X6478695Y6634977D01*
G75*
G02*
X6189082Y6432188I-246201J43412D01*
G01*
X5548955Y6545059D01*
G75*
G02*
X5346166Y6834672I43412J246201D01*
G01*
X5502449Y7721001D01*
G75*
G02*
X5792062Y7923790I246201J-43412D01*
G01*
X6432189Y7810919D01*
G75*
G02*
X6634978Y7521306I-43412J-246201D01*
G01*
G37*
G04 #@! TD.AperFunction*
G04 #@! TA.AperFunction,SMDPad,CuDef*
G36*
G01*
X8653834Y7165328D02*
X8497551Y6278999D01*
G75*
G02*
X8207938Y6076210I-246201J43412D01*
G01*
X7567811Y6189081D01*
G75*
G02*
X7365022Y6478694I43412J246201D01*
G01*
X7521305Y7365023D01*
G75*
G02*
X7810918Y7567812I246201J-43412D01*
G01*
X8451045Y7454941D01*
G75*
G02*
X8653834Y7165328I-43412J-246201D01*
G01*
G37*
G04 #@! TD.AperFunction*
G04 #@! TA.AperFunction,SMDPad,CuDef*
G36*
G01*
X-6478695Y6634977D02*
X-6634978Y7521306D01*
G75*
G02*
X-6432189Y7810919I246201J43412D01*
G01*
X-5792062Y7923790D01*
G75*
G02*
X-5502449Y7721001I43412J-246201D01*
G01*
X-5346166Y6834672D01*
G75*
G02*
X-5548955Y6545059I-246201J-43412D01*
G01*
X-6189082Y6432188D01*
G75*
G02*
X-6478695Y6634977I-43412J246201D01*
G01*
G37*
G04 #@! TD.AperFunction*
G04 #@! TA.AperFunction,SMDPad,CuDef*
G36*
G01*
X-8497551Y6278999D02*
X-8653834Y7165328D01*
G75*
G02*
X-8451045Y7454941I246201J43412D01*
G01*
X-7810918Y7567812D01*
G75*
G02*
X-7521305Y7365023I43412J-246201D01*
G01*
X-7365022Y6478694D01*
G75*
G02*
X-7567811Y6189081I-246201J-43412D01*
G01*
X-8207938Y6076210D01*
G75*
G02*
X-8497551Y6278999I-43412J246201D01*
G01*
G37*
G04 #@! TD.AperFunction*
G04 #@! TA.AperFunction,SMDPad,CuDef*
G36*
G01*
X450000Y-15950001D02*
X450000Y-15049999D01*
G75*
G02*
X699999Y-14800000I249999J0D01*
G01*
X1350001Y-14800000D01*
G75*
G02*
X1600000Y-15049999I0J-249999D01*
G01*
X1600000Y-15950001D01*
G75*
G02*
X1350001Y-16200000I-249999J0D01*
G01*
X699999Y-16200000D01*
G75*
G02*
X450000Y-15950001I0J249999D01*
G01*
G37*
G04 #@! TD.AperFunction*
G04 #@! TA.AperFunction,SMDPad,CuDef*
G36*
G01*
X-1600000Y-15950001D02*
X-1600000Y-15049999D01*
G75*
G02*
X-1350001Y-14800000I249999J0D01*
G01*
X-699999Y-14800000D01*
G75*
G02*
X-450000Y-15049999I0J-249999D01*
G01*
X-450000Y-15950001D01*
G75*
G02*
X-699999Y-16200000I-249999J0D01*
G01*
X-1350001Y-16200000D01*
G75*
G02*
X-1600000Y-15950001I0J249999D01*
G01*
G37*
G04 #@! TD.AperFunction*
G04 #@! TA.AperFunction,SMDPad,CuDef*
G36*
G01*
X-6149999Y-3614000D02*
X-7050001Y-3614000D01*
G75*
G02*
X-7300000Y-3364001I0J249999D01*
G01*
X-7300000Y-2713999D01*
G75*
G02*
X-7050001Y-2464000I249999J0D01*
G01*
X-6149999Y-2464000D01*
G75*
G02*
X-5900000Y-2713999I0J-249999D01*
G01*
X-5900000Y-3364001D01*
G75*
G02*
X-6149999Y-3614000I-249999J0D01*
G01*
G37*
G04 #@! TD.AperFunction*
G04 #@! TA.AperFunction,SMDPad,CuDef*
G36*
G01*
X-6149999Y-5664000D02*
X-7050001Y-5664000D01*
G75*
G02*
X-7300000Y-5414001I0J249999D01*
G01*
X-7300000Y-4763999D01*
G75*
G02*
X-7050001Y-4514000I249999J0D01*
G01*
X-6149999Y-4514000D01*
G75*
G02*
X-5900000Y-4763999I0J-249999D01*
G01*
X-5900000Y-5414001D01*
G75*
G02*
X-6149999Y-5664000I-249999J0D01*
G01*
G37*
G04 #@! TD.AperFunction*
G04 #@! TA.AperFunction,SMDPad,CuDef*
G36*
G01*
X6149999Y-196000D02*
X7050001Y-196000D01*
G75*
G02*
X7300000Y-445999I0J-249999D01*
G01*
X7300000Y-1096001D01*
G75*
G02*
X7050001Y-1346000I-249999J0D01*
G01*
X6149999Y-1346000D01*
G75*
G02*
X5900000Y-1096001I0J249999D01*
G01*
X5900000Y-445999D01*
G75*
G02*
X6149999Y-196000I249999J0D01*
G01*
G37*
G04 #@! TD.AperFunction*
G04 #@! TA.AperFunction,SMDPad,CuDef*
G36*
G01*
X6149999Y1854000D02*
X7050001Y1854000D01*
G75*
G02*
X7300000Y1604001I0J-249999D01*
G01*
X7300000Y953999D01*
G75*
G02*
X7050001Y704000I-249999J0D01*
G01*
X6149999Y704000D01*
G75*
G02*
X5900000Y953999I0J249999D01*
G01*
X5900000Y1604001D01*
G75*
G02*
X6149999Y1854000I249999J0D01*
G01*
G37*
G04 #@! TD.AperFunction*
G04 #@! TA.AperFunction,SMDPad,CuDef*
G36*
G01*
X14919604Y15556001D02*
X15556001Y14919604D01*
G75*
G02*
X15556001Y14566052I-176776J-176776D01*
G01*
X15096380Y14106431D01*
G75*
G02*
X14742828Y14106431I-176776J176776D01*
G01*
X14106431Y14742828D01*
G75*
G02*
X14106431Y15096380I176776J176776D01*
G01*
X14566052Y15556001D01*
G75*
G02*
X14919604Y15556001I176776J-176776D01*
G01*
G37*
G04 #@! TD.AperFunction*
G04 #@! TA.AperFunction,SMDPad,CuDef*
G36*
G01*
X16369172Y17005569D02*
X17005569Y16369172D01*
G75*
G02*
X17005569Y16015620I-176776J-176776D01*
G01*
X16545948Y15555999D01*
G75*
G02*
X16192396Y15555999I-176776J176776D01*
G01*
X15555999Y16192396D01*
G75*
G02*
X15555999Y16545948I176776J176776D01*
G01*
X16015620Y17005569D01*
G75*
G02*
X16369172Y17005569I176776J-176776D01*
G01*
G37*
G04 #@! TD.AperFunction*
G04 #@! TA.AperFunction,SMDPad,CuDef*
G36*
G01*
X21550000Y450001D02*
X21550000Y-450001D01*
G75*
G02*
X21300001Y-700000I-249999J0D01*
G01*
X20649999Y-700000D01*
G75*
G02*
X20400000Y-450001I0J249999D01*
G01*
X20400000Y450001D01*
G75*
G02*
X20649999Y700000I249999J0D01*
G01*
X21300001Y700000D01*
G75*
G02*
X21550000Y450001I0J-249999D01*
G01*
G37*
G04 #@! TD.AperFunction*
G04 #@! TA.AperFunction,SMDPad,CuDef*
G36*
G01*
X23600000Y450001D02*
X23600000Y-450001D01*
G75*
G02*
X23350001Y-700000I-249999J0D01*
G01*
X22699999Y-700000D01*
G75*
G02*
X22450000Y-450001I0J249999D01*
G01*
X22450000Y450001D01*
G75*
G02*
X22699999Y700000I249999J0D01*
G01*
X23350001Y700000D01*
G75*
G02*
X23600000Y450001I0J-249999D01*
G01*
G37*
G04 #@! TD.AperFunction*
G04 #@! TA.AperFunction,SMDPad,CuDef*
G36*
G01*
X15556001Y-14919604D02*
X14919604Y-15556001D01*
G75*
G02*
X14566052Y-15556001I-176776J176776D01*
G01*
X14106431Y-15096380D01*
G75*
G02*
X14106431Y-14742828I176776J176776D01*
G01*
X14742828Y-14106431D01*
G75*
G02*
X15096380Y-14106431I176776J-176776D01*
G01*
X15556001Y-14566052D01*
G75*
G02*
X15556001Y-14919604I-176776J-176776D01*
G01*
G37*
G04 #@! TD.AperFunction*
G04 #@! TA.AperFunction,SMDPad,CuDef*
G36*
G01*
X17005569Y-16369172D02*
X16369172Y-17005569D01*
G75*
G02*
X16015620Y-17005569I-176776J176776D01*
G01*
X15555999Y-16545948D01*
G75*
G02*
X15555999Y-16192396I176776J176776D01*
G01*
X16192396Y-15555999D01*
G75*
G02*
X16545948Y-15555999I176776J-176776D01*
G01*
X17005569Y-16015620D01*
G75*
G02*
X17005569Y-16369172I-176776J-176776D01*
G01*
G37*
G04 #@! TD.AperFunction*
G04 #@! TA.AperFunction,SMDPad,CuDef*
G36*
G01*
X450001Y-21550000D02*
X-450001Y-21550000D01*
G75*
G02*
X-700000Y-21300001I0J249999D01*
G01*
X-700000Y-20649999D01*
G75*
G02*
X-450001Y-20400000I249999J0D01*
G01*
X450001Y-20400000D01*
G75*
G02*
X700000Y-20649999I0J-249999D01*
G01*
X700000Y-21300001D01*
G75*
G02*
X450001Y-21550000I-249999J0D01*
G01*
G37*
G04 #@! TD.AperFunction*
G04 #@! TA.AperFunction,SMDPad,CuDef*
G36*
G01*
X450001Y-23600000D02*
X-450001Y-23600000D01*
G75*
G02*
X-700000Y-23350001I0J249999D01*
G01*
X-700000Y-22699999D01*
G75*
G02*
X-450001Y-22450000I249999J0D01*
G01*
X450001Y-22450000D01*
G75*
G02*
X700000Y-22699999I0J-249999D01*
G01*
X700000Y-23350001D01*
G75*
G02*
X450001Y-23600000I-249999J0D01*
G01*
G37*
G04 #@! TD.AperFunction*
G04 #@! TA.AperFunction,SMDPad,CuDef*
G36*
G01*
X-14919604Y-15556001D02*
X-15556001Y-14919604D01*
G75*
G02*
X-15556001Y-14566052I176776J176776D01*
G01*
X-15096380Y-14106431D01*
G75*
G02*
X-14742828Y-14106431I176776J-176776D01*
G01*
X-14106431Y-14742828D01*
G75*
G02*
X-14106431Y-15096380I-176776J-176776D01*
G01*
X-14566052Y-15556001D01*
G75*
G02*
X-14919604Y-15556001I-176776J176776D01*
G01*
G37*
G04 #@! TD.AperFunction*
G04 #@! TA.AperFunction,SMDPad,CuDef*
G36*
G01*
X-16369172Y-17005569D02*
X-17005569Y-16369172D01*
G75*
G02*
X-17005569Y-16015620I176776J176776D01*
G01*
X-16545948Y-15555999D01*
G75*
G02*
X-16192396Y-15555999I176776J-176776D01*
G01*
X-15555999Y-16192396D01*
G75*
G02*
X-15555999Y-16545948I-176776J-176776D01*
G01*
X-16015620Y-17005569D01*
G75*
G02*
X-16369172Y-17005569I-176776J176776D01*
G01*
G37*
G04 #@! TD.AperFunction*
G04 #@! TA.AperFunction,SMDPad,CuDef*
G36*
G01*
X-21550000Y-450001D02*
X-21550000Y450001D01*
G75*
G02*
X-21300001Y700000I249999J0D01*
G01*
X-20649999Y700000D01*
G75*
G02*
X-20400000Y450001I0J-249999D01*
G01*
X-20400000Y-450001D01*
G75*
G02*
X-20649999Y-700000I-249999J0D01*
G01*
X-21300001Y-700000D01*
G75*
G02*
X-21550000Y-450001I0J249999D01*
G01*
G37*
G04 #@! TD.AperFunction*
G04 #@! TA.AperFunction,SMDPad,CuDef*
G36*
G01*
X-23600000Y-450001D02*
X-23600000Y450001D01*
G75*
G02*
X-23350001Y700000I249999J0D01*
G01*
X-22699999Y700000D01*
G75*
G02*
X-22450000Y450001I0J-249999D01*
G01*
X-22450000Y-450001D01*
G75*
G02*
X-22699999Y-700000I-249999J0D01*
G01*
X-23350001Y-700000D01*
G75*
G02*
X-23600000Y-450001I0J249999D01*
G01*
G37*
G04 #@! TD.AperFunction*
G04 #@! TA.AperFunction,SMDPad,CuDef*
G36*
G01*
X-15556001Y14919604D02*
X-14919604Y15556001D01*
G75*
G02*
X-14566052Y15556001I176776J-176776D01*
G01*
X-14106431Y15096380D01*
G75*
G02*
X-14106431Y14742828I-176776J-176776D01*
G01*
X-14742828Y14106431D01*
G75*
G02*
X-15096380Y14106431I-176776J176776D01*
G01*
X-15556001Y14566052D01*
G75*
G02*
X-15556001Y14919604I176776J176776D01*
G01*
G37*
G04 #@! TD.AperFunction*
G04 #@! TA.AperFunction,SMDPad,CuDef*
G36*
G01*
X-17005569Y16369172D02*
X-16369172Y17005569D01*
G75*
G02*
X-16015620Y17005569I176776J-176776D01*
G01*
X-15555999Y16545948D01*
G75*
G02*
X-15555999Y16192396I-176776J-176776D01*
G01*
X-16192396Y15555999D01*
G75*
G02*
X-16545948Y15555999I-176776J176776D01*
G01*
X-17005569Y16015620D01*
G75*
G02*
X-17005569Y16369172I176776J176776D01*
G01*
G37*
G04 #@! TD.AperFunction*
G04 #@! TA.AperFunction,SMDPad,CuDef*
G36*
G01*
X-450001Y21550000D02*
X450001Y21550000D01*
G75*
G02*
X700000Y21300001I0J-249999D01*
G01*
X700000Y20649999D01*
G75*
G02*
X450001Y20400000I-249999J0D01*
G01*
X-450001Y20400000D01*
G75*
G02*
X-700000Y20649999I0J249999D01*
G01*
X-700000Y21300001D01*
G75*
G02*
X-450001Y21550000I249999J0D01*
G01*
G37*
G04 #@! TD.AperFunction*
G04 #@! TA.AperFunction,SMDPad,CuDef*
G36*
G01*
X-450001Y23600000D02*
X450001Y23600000D01*
G75*
G02*
X700000Y23350001I0J-249999D01*
G01*
X700000Y22699999D01*
G75*
G02*
X450001Y22450000I-249999J0D01*
G01*
X-450001Y22450000D01*
G75*
G02*
X-700000Y22699999I0J249999D01*
G01*
X-700000Y23350001D01*
G75*
G02*
X-450001Y23600000I249999J0D01*
G01*
G37*
G04 #@! TD.AperFunction*
G04 #@! TA.AperFunction,SMDPad,CuDef*
G36*
G01*
X-6149999Y704000D02*
X-7050001Y704000D01*
G75*
G02*
X-7300000Y953999I0J249999D01*
G01*
X-7300000Y1604001D01*
G75*
G02*
X-7050001Y1854000I249999J0D01*
G01*
X-6149999Y1854000D01*
G75*
G02*
X-5900000Y1604001I0J-249999D01*
G01*
X-5900000Y953999D01*
G75*
G02*
X-6149999Y704000I-249999J0D01*
G01*
G37*
G04 #@! TD.AperFunction*
G04 #@! TA.AperFunction,SMDPad,CuDef*
G36*
G01*
X-6149999Y-1346000D02*
X-7050001Y-1346000D01*
G75*
G02*
X-7300000Y-1096001I0J249999D01*
G01*
X-7300000Y-445999D01*
G75*
G02*
X-7050001Y-196000I249999J0D01*
G01*
X-6149999Y-196000D01*
G75*
G02*
X-5900000Y-445999I0J-249999D01*
G01*
X-5900000Y-1096001D01*
G75*
G02*
X-6149999Y-1346000I-249999J0D01*
G01*
G37*
G04 #@! TD.AperFunction*
G04 #@! TA.AperFunction,SMDPad,CuDef*
G36*
G01*
X6149999Y-4514000D02*
X7050001Y-4514000D01*
G75*
G02*
X7300000Y-4763999I0J-249999D01*
G01*
X7300000Y-5414001D01*
G75*
G02*
X7050001Y-5664000I-249999J0D01*
G01*
X6149999Y-5664000D01*
G75*
G02*
X5900000Y-5414001I0J249999D01*
G01*
X5900000Y-4763999D01*
G75*
G02*
X6149999Y-4514000I249999J0D01*
G01*
G37*
G04 #@! TD.AperFunction*
G04 #@! TA.AperFunction,SMDPad,CuDef*
G36*
G01*
X6149999Y-2464000D02*
X7050001Y-2464000D01*
G75*
G02*
X7300000Y-2713999I0J-249999D01*
G01*
X7300000Y-3364001D01*
G75*
G02*
X7050001Y-3614000I-249999J0D01*
G01*
X6149999Y-3614000D01*
G75*
G02*
X5900000Y-3364001I0J249999D01*
G01*
X5900000Y-2713999D01*
G75*
G02*
X6149999Y-2464000I249999J0D01*
G01*
G37*
G04 #@! TD.AperFunction*
D11*
X0Y-508000D03*
X1270000Y-9398000D03*
X4572000Y-4918958D03*
X5105072Y-7443418D03*
X-244548Y2935990D03*
X11100000Y2619002D03*
X12330000Y-1016000D03*
X-12330000Y-1016000D03*
X0Y24250000D03*
X0Y-24250000D03*
X24250000Y0D03*
X-24250000Y0D03*
X-17147000Y-17147000D03*
X17147000Y17147000D03*
X17147000Y-17147000D03*
X-17147000Y17147000D03*
X-2286000Y-15494000D03*
X9144000Y6604000D03*
X11181409Y-6646797D03*
D12*
X0Y17272000D03*
D11*
X16765070Y-2033070D03*
X-8972077Y6432077D03*
X-11000000Y-11600000D03*
X-11000000Y-9800000D03*
D13*
X-4563000Y3891000D02*
X-6600000Y1854000D01*
X-6600000Y1854000D02*
X-6600000Y1279000D01*
X-2875000Y3891000D02*
X-4563000Y3891000D01*
X-2575000Y4191000D02*
X-2875000Y3891000D01*
X1025000Y-9643000D02*
X1270000Y-9398000D01*
X1025000Y-15500000D02*
X1025000Y-9643000D01*
X5073490Y-7475000D02*
X5105072Y-7443418D01*
X6600000Y-5089000D02*
X4742042Y-5089000D01*
X4742042Y-5089000D02*
X4572000Y-4918958D01*
X4445000Y-7475000D02*
X5073490Y-7475000D01*
X-2863511Y-3811489D02*
X-3175000Y-3500000D01*
X-3175000Y-3500000D02*
X-3175000Y-2525000D01*
X-1088511Y-3811489D02*
X-2863511Y-3811489D01*
X-399999Y-3122977D02*
X-1088511Y-3811489D01*
X-399999Y-907999D02*
X-399999Y-3122977D01*
X0Y-508000D02*
X-399999Y-907999D01*
X-2575000Y4191000D02*
X-1499558Y4191000D01*
X-1499558Y4191000D02*
X-244548Y2935990D01*
X10000000Y0D02*
X10000000Y1519002D01*
X10000000Y1519002D02*
X11100000Y2619002D01*
X3859810Y381000D02*
X2575000Y381000D01*
X6600000Y-2359190D02*
X3859810Y381000D01*
X6600000Y-3039000D02*
X6600000Y-2359190D01*
X1700000Y1651000D02*
X2575000Y1651000D01*
X-1700000Y2921000D02*
X-430000Y1651000D01*
X-430000Y1651000D02*
X1700000Y1651000D01*
X-2575000Y2921000D02*
X-1700000Y2921000D01*
X-6600000Y-771000D02*
X-6600000Y-3039000D01*
X-6600000Y-309190D02*
X-6600000Y-771000D01*
X-3369810Y2921000D02*
X-6600000Y-309190D01*
X-2540000Y2921000D02*
X-3369810Y2921000D01*
X2575000Y2921000D02*
X4445000Y2921000D01*
X4445000Y2921000D02*
X5334000Y2032000D01*
X5900000Y-771000D02*
X6600000Y-771000D01*
X5334000Y-205000D02*
X5900000Y-771000D01*
X5334000Y2032000D02*
X5334000Y-205000D01*
X-6600000Y-5089000D02*
X-7300000Y-5089000D01*
X-7625010Y-4763990D02*
X-7625010Y1842180D01*
X-7300000Y-5089000D02*
X-7625010Y-4763990D01*
X1540000Y2921000D02*
X800000Y3661000D01*
X2540000Y2921000D02*
X1540000Y2921000D01*
X-1557532Y4916010D02*
X-4551180Y4916010D01*
X800000Y3661000D02*
X-302522Y3661000D01*
X-4551180Y4916010D02*
X-7625010Y1842180D01*
X-302522Y3661000D02*
X-1557532Y4916010D01*
X-4445000Y-1489000D02*
X-4445000Y-2525000D01*
X-2575000Y381000D02*
X-4445000Y-1489000D01*
X-4445000Y-2525000D02*
X-4445000Y-4522190D01*
X-5911820Y-5989010D02*
X-7288180Y-5989010D01*
X-4445000Y-4522190D02*
X-5911820Y-5989010D01*
X-7288180Y-5989010D02*
X-8128000Y-5149190D01*
X6604000Y1283000D02*
X6600000Y1279000D01*
X6604000Y2794000D02*
X6604000Y1283000D01*
X-12286000Y-972000D02*
X-12330000Y-1016000D01*
X-8128000Y-5149190D02*
X-8128000Y-972000D01*
X-8128000Y-972000D02*
X-8128000Y1975601D01*
X-8128000Y1975601D02*
X-4737580Y5366021D01*
X4031979Y5366021D02*
X6604000Y2794000D01*
X2533979Y4197021D02*
X2540000Y4191000D01*
X2533979Y5366021D02*
X2533979Y4197021D01*
X-4737580Y5366021D02*
X2533979Y5366021D01*
X2533979Y5366021D02*
X4031979Y5366021D01*
X-10000000Y-944000D02*
X-9972000Y-972000D01*
X-10000000Y0D02*
X-10000000Y-944000D01*
X-9972000Y-972000D02*
X-12286000Y-972000D01*
X-8128000Y-972000D02*
X-9972000Y-972000D01*
X6604000Y2794000D02*
X7154004Y3344004D01*
X12330000Y2462006D02*
X12330000Y-1016000D01*
X7154004Y3344004D02*
X11448002Y3344004D01*
X11448002Y3344004D02*
X12330000Y2462006D01*
X-1905000Y-1460000D02*
X-1905000Y-2460000D01*
X-1214990Y-769990D02*
X-1905000Y-1460000D01*
X-1540000Y1651000D02*
X-1214990Y1325990D01*
X-1214990Y1325990D02*
X-1214990Y-769990D01*
X-2540000Y1651000D02*
X-1540000Y1651000D01*
D14*
X-14394672Y-16219745D02*
X-15090984Y-16219745D01*
X635000Y-7475000D02*
X635000Y-8450000D01*
X-12196446Y-9933983D02*
X-12196446Y-5329554D01*
X-21293190Y-1270000D02*
X-22098000Y-465190D01*
X-13090205Y13090205D02*
X-14831216Y14831216D01*
X-3505513Y-12590513D02*
X-10765440Y-12590513D01*
X-13090205Y5585177D02*
X-13090205Y13090205D01*
X-21039190Y1524000D02*
X-17151381Y1524000D01*
X-22098000Y465190D02*
X-21039190Y1524000D01*
X-16327011Y-14983718D02*
X-16327011Y-14064548D01*
X-17151381Y1524000D02*
X-13090205Y5585177D01*
X-22098000Y-465190D02*
X-22098000Y465190D01*
X-16256000Y-1270000D02*
X-21293190Y-1270000D01*
X-12196446Y-5329554D02*
X-16256000Y-1270000D01*
X635000Y-8450000D02*
X-3505513Y-12590513D01*
X-10765440Y-12590513D02*
X-14394672Y-16219745D01*
X-16327011Y-14064548D02*
X-12196446Y-9933983D01*
X-15090984Y-16219745D02*
X-16327011Y-14983718D01*
D13*
X0Y23025000D02*
X0Y24250000D01*
X23025000Y0D02*
X24250000Y0D01*
X16280784Y-16280784D02*
X17147000Y-17147000D01*
X0Y-23025000D02*
X0Y-24250000D01*
X-16280784Y-16280784D02*
X-17147000Y-17147000D01*
X-23025000Y0D02*
X-24250000Y0D01*
X16280784Y16280784D02*
X17147000Y17147000D01*
X-16280784Y16280784D02*
X-17147000Y17147000D01*
X-1025000Y-15500000D02*
X-2280000Y-15500000D01*
X-2280000Y-15500000D02*
X-2286000Y-15494000D01*
X8671989Y6822011D02*
X8009428Y6822011D01*
X9144000Y6604000D02*
X8671989Y6822011D01*
X11181409Y-6646797D02*
X11612435Y-6646797D01*
X11612435Y-6646797D02*
X13809201Y-4450031D01*
X16376162Y-2033070D02*
X16765070Y-2033070D01*
X13992653Y-4416578D02*
X16376162Y-2033070D01*
X13951598Y-4410467D02*
X13992653Y-4416578D01*
X13898194Y-4450031D02*
X13951598Y-4410467D01*
X13809201Y-4450031D02*
X13898194Y-4450031D01*
X-8582143Y6822011D02*
X-8972077Y6432077D01*
X-8009428Y6822011D02*
X-8582143Y6822011D01*
X-15748000Y0D02*
X-20975000Y0D01*
D14*
X-11860927Y-10315907D02*
X-11860927Y-5088509D01*
X-4445000Y-7475000D02*
X-9233502Y-12263502D01*
X-9233502Y-12263502D02*
X-10900892Y-12263502D01*
X-10900892Y-12263502D02*
X-14530124Y-15892734D01*
X-16000000Y-14454980D02*
X-11860927Y-10315907D01*
X-14530124Y-15892734D02*
X-14955532Y-15892734D01*
X-15748000Y-1201436D02*
X-15748000Y0D01*
X-14955532Y-15892734D02*
X-16000000Y-14848266D01*
X-16000000Y-14848266D02*
X-16000000Y-14454980D01*
X-11860927Y-5088509D02*
X-15748000Y-1201436D01*
D13*
X-14831216Y-14050030D02*
X-14831216Y-14831216D01*
X-11449186Y-10668000D02*
X-14831216Y-14050030D01*
X-10432000Y-10668000D02*
X-11449186Y-10668000D01*
D14*
X-6141519Y-6377519D02*
X-10432000Y-10668000D01*
X-5750893Y-6377519D02*
X-6141519Y-6377519D01*
X-3673374Y-4300000D02*
X-5750893Y-6377519D01*
X1720504Y-4300000D02*
X-3673374Y-4300000D01*
X3175000Y-2845504D02*
X1720504Y-4300000D01*
X3175000Y-2460000D02*
X3175000Y-2845504D01*
D13*
X700000Y-20975000D02*
X0Y-20975000D01*
X2875000Y-18800000D02*
X700000Y-20975000D01*
X2875000Y-7775000D02*
X2875000Y-18800000D01*
X3175000Y-7475000D02*
X2875000Y-7775000D01*
X14831216Y-14831216D02*
X7112000Y-7112000D01*
D14*
X7112000Y-7112000D02*
X6174463Y-7112000D01*
X6174463Y-7112000D02*
X4971942Y-5909479D01*
X-635000Y-6500000D02*
X-635000Y-7475000D01*
X-44479Y-5909479D02*
X-635000Y-6500000D01*
X4971942Y-5909479D02*
X-44479Y-5909479D01*
X20400000Y0D02*
X20975000Y0D01*
D13*
X16986410Y0D02*
X12336401Y-4650009D01*
X20400000Y0D02*
X16986410Y0D01*
X12336401Y-4650009D02*
X8206009Y-4650009D01*
D14*
X-1647022Y-4972022D02*
X1973408Y-4972022D01*
X1973408Y-4972022D02*
X2694940Y-4250490D01*
X-3175000Y-6500000D02*
X-1647022Y-4972022D01*
X-3175000Y-7475000D02*
X-3175000Y-6500000D01*
X2694940Y-4250490D02*
X7806490Y-4250490D01*
X7806490Y-4250490D02*
X8206009Y-4650009D01*
X14424630Y14424630D02*
X14831216Y14831216D01*
X21512704Y-963510D02*
X21813510Y-662704D01*
X21813510Y-662704D02*
X21813510Y662704D01*
X21813510Y662704D02*
X21460214Y1016000D01*
X18340490Y-963510D02*
X21512704Y-963510D01*
X21460214Y1016000D02*
X19812000Y1016000D01*
D13*
X19812000Y1016000D02*
X17220411Y1016000D01*
X12200009Y12200009D02*
X14424630Y14424630D01*
X12200009Y6036402D02*
X12200009Y12200009D01*
X17220411Y1016000D02*
X12200009Y6036402D01*
X8615980Y-5100020D02*
X12522802Y-5100020D01*
X16659312Y-963510D02*
X20118490Y-963510D01*
X7788490Y-5927510D02*
X8615980Y-5100020D01*
X12522802Y-5100020D02*
X16659312Y-963510D01*
D14*
X5937296Y-5927510D02*
X7788490Y-5927510D01*
X5592254Y-5582468D02*
X5937296Y-5927510D01*
X-987468Y-5582468D02*
X5592254Y-5582468D01*
X-1905000Y-6500000D02*
X-987468Y-5582468D01*
X-1905000Y-7475000D02*
X-1905000Y-6500000D01*
X15892734Y-14955532D02*
X15892734Y-14368734D01*
X13970000Y-15892734D02*
X14955532Y-15892734D01*
X14955532Y-15892734D02*
X15892734Y-14955532D01*
D13*
X13352734Y-15892734D02*
X13970000Y-15892734D01*
X6235010Y-8775010D02*
X13352734Y-15892734D01*
D14*
X15892734Y-14368734D02*
X13970000Y-12446000D01*
D13*
X13065461Y11033461D02*
X16002000Y13970000D01*
X16800020Y2072801D02*
X13065461Y5807360D01*
X14986000Y-13462000D02*
X12661773Y-11137772D01*
X16002000Y13970000D02*
X16002000Y14933240D01*
X14051460Y-4900042D02*
X14070558Y-4880944D01*
X21844000Y1270000D02*
X21041199Y2072801D01*
X13922234Y15954234D02*
X10695587Y12727588D01*
X13995601Y-4900042D02*
X14051460Y-4900042D01*
X12661773Y-6233870D02*
X13995601Y-4900042D01*
X16287570Y-2758072D02*
X17113072Y-2758072D01*
D14*
X21590000Y-1524000D02*
X21844000Y-1524000D01*
D13*
X14232326Y-4813316D02*
X16287570Y-2758072D01*
X17113072Y-2758072D02*
X18347144Y-1524000D01*
D14*
X21844000Y-1524000D02*
X22140521Y-1227479D01*
D13*
X12661773Y-11137772D02*
X12661773Y-6233870D01*
X13065461Y5807360D02*
X13065461Y11033461D01*
X14070558Y-4880944D02*
X14232326Y-4813316D01*
D14*
X22140521Y973479D02*
X21844000Y1270000D01*
D13*
X21041199Y2072801D02*
X16800020Y2072801D01*
X16002000Y14933240D02*
X14981006Y15954234D01*
X14981006Y15954234D02*
X13922234Y15954234D01*
X18347144Y-1524000D02*
X21590000Y-1524000D01*
D14*
X22140521Y-1227479D02*
X22140521Y973479D01*
D13*
X-440973Y12727588D02*
X-5990572Y7177989D01*
X10695587Y12727588D02*
X-440973Y12727588D01*
X6235010Y-8775010D02*
X6235010Y-7635010D01*
D14*
X1905000Y-6595000D02*
X1905000Y-7540000D01*
X2263510Y-6236490D02*
X1905000Y-6595000D01*
X4836490Y-6236490D02*
X2263510Y-6236490D01*
X6235010Y-7635010D02*
X4836490Y-6236490D01*
X700000Y20975000D02*
X0Y20975000D01*
X-10434315Y-11600000D02*
X-11000000Y-11600000D01*
X-3461326Y-4627011D02*
X-10434315Y-11600000D01*
X2759457Y-3723510D02*
X1855956Y-4627011D01*
X4181490Y-3723510D02*
X2759457Y-3723510D01*
X4445000Y-2460000D02*
X4445000Y-3460000D01*
X4445000Y-3460000D02*
X4181490Y-3723510D01*
X1855956Y-4627011D02*
X-3461326Y-4627011D01*
D13*
X-14200000Y-2200000D02*
X-11000000Y-5400000D01*
X-11000000Y-5400000D02*
X-11000000Y-9800000D01*
X-14200000Y2800000D02*
X-14200000Y-2200000D01*
X-2830001Y14169999D02*
X-14200000Y2800000D01*
X-2830001Y18630401D02*
X-2830001Y14169999D01*
X-485402Y20975000D02*
X-2830001Y18630401D01*
X0Y20975000D02*
X-485402Y20975000D01*
X15950000Y-400000D02*
X12150001Y-4199999D01*
X15950000Y1650001D02*
X15950000Y-400000D01*
X13016238Y4583763D02*
X15950000Y1650001D01*
X7874000Y4583763D02*
X13016238Y4583763D01*
X5990572Y6467191D02*
X7874000Y4583763D01*
X5990572Y7177989D02*
X5990572Y6467191D01*
X8549999Y-4199999D02*
X12150001Y-4199999D01*
D14*
X8227510Y-3877510D02*
X8549999Y-4199999D01*
X2168510Y-1196490D02*
X1905000Y-1460000D01*
X4836994Y-1196490D02*
X2168510Y-1196490D01*
X5108510Y-1468006D02*
X4836994Y-1196490D01*
X5108510Y-3048724D02*
X5108510Y-1468006D01*
X5937296Y-3877510D02*
X5108510Y-3048724D01*
X1905000Y-1460000D02*
X1905000Y-2460000D01*
X8227510Y-3877510D02*
X5937296Y-3877510D01*
D15*
X2369001Y-18590407D02*
X820269Y-20139140D01*
X801589Y-20123810D01*
X692179Y-20065329D01*
X573462Y-20029317D01*
X450001Y-20017157D01*
X-450001Y-20017157D01*
X-573462Y-20029317D01*
X-692179Y-20065329D01*
X-801589Y-20123810D01*
X-897488Y-20202512D01*
X-976190Y-20298411D01*
X-1034671Y-20407821D01*
X-1070683Y-20526538D01*
X-1082843Y-20649999D01*
X-1082843Y-21300001D01*
X-1070683Y-21423462D01*
X-1034671Y-21542179D01*
X-976190Y-21651589D01*
X-897488Y-21747488D01*
X-801589Y-21826190D01*
X-692179Y-21884671D01*
X-573462Y-21920683D01*
X-450001Y-21932843D01*
X450001Y-21932843D01*
X573462Y-21920683D01*
X692179Y-21884671D01*
X801589Y-21826190D01*
X897488Y-21747488D01*
X976190Y-21651589D01*
X1034671Y-21542179D01*
X1070683Y-21423462D01*
X1081997Y-21308594D01*
X2748186Y-19642406D01*
X1071420Y-24169991D01*
X885482Y-24322721D01*
X611703Y-24469521D01*
X314624Y-24560347D01*
X5553Y-24591741D01*
X-303720Y-24562506D01*
X-601427Y-24473756D01*
X-876230Y-24328869D01*
X-1070988Y-24171157D01*
X-1282512Y-23600000D01*
X-1082843Y-23600000D01*
X-1075487Y-23674689D01*
X-1053701Y-23746508D01*
X-1018322Y-23812696D01*
X-970711Y-23870711D01*
X-912696Y-23918322D01*
X-846508Y-23953701D01*
X-774689Y-23975487D01*
X-700000Y-23982843D01*
X-95750Y-23981000D01*
X-500Y-23885750D01*
X-500Y-23025500D01*
X500Y-23025500D01*
X500Y-23885750D01*
X95750Y-23981000D01*
X700000Y-23982843D01*
X774689Y-23975487D01*
X846508Y-23953701D01*
X912696Y-23918322D01*
X970711Y-23870711D01*
X1018322Y-23812696D01*
X1053701Y-23746508D01*
X1075487Y-23674689D01*
X1082843Y-23600000D01*
X1081000Y-23120750D01*
X985750Y-23025500D01*
X500Y-23025500D01*
X-500Y-23025500D01*
X-985750Y-23025500D01*
X-1081000Y-23120750D01*
X-1082843Y-23600000D01*
X-1282512Y-23600000D01*
X-1708408Y-22450000D01*
X-1082843Y-22450000D01*
X-1081000Y-22929250D01*
X-985750Y-23024500D01*
X-500Y-23024500D01*
X-500Y-22164250D01*
X500Y-22164250D01*
X500Y-23024500D01*
X985750Y-23024500D01*
X1081000Y-22929250D01*
X1082843Y-22450000D01*
X1075487Y-22375311D01*
X1053701Y-22303492D01*
X1018322Y-22237304D01*
X970711Y-22179289D01*
X912696Y-22131678D01*
X846508Y-22096299D01*
X774689Y-22074513D01*
X700000Y-22067157D01*
X95750Y-22069000D01*
X500Y-22164250D01*
X-500Y-22164250D01*
X-95750Y-22069000D01*
X-700000Y-22067157D01*
X-774689Y-22074513D01*
X-846508Y-22096299D01*
X-912696Y-22131678D01*
X-970711Y-22179289D01*
X-1018322Y-22237304D01*
X-1053701Y-22303492D01*
X-1075487Y-22375311D01*
X-1082843Y-22450000D01*
X-1708408Y-22450000D01*
X-4023062Y-16200000D01*
X-1982843Y-16200000D01*
X-1975487Y-16274689D01*
X-1953701Y-16346508D01*
X-1918322Y-16412696D01*
X-1870711Y-16470711D01*
X-1812696Y-16518322D01*
X-1746508Y-16553701D01*
X-1674689Y-16575487D01*
X-1600000Y-16582843D01*
X-1120750Y-16581000D01*
X-1025500Y-16485750D01*
X-1025500Y-15500500D01*
X-1024500Y-15500500D01*
X-1024500Y-16485750D01*
X-929250Y-16581000D01*
X-450000Y-16582843D01*
X-375311Y-16575487D01*
X-303492Y-16553701D01*
X-237304Y-16518322D01*
X-179289Y-16470711D01*
X-131678Y-16412696D01*
X-96299Y-16346508D01*
X-74513Y-16274689D01*
X-67157Y-16200000D01*
X-69000Y-15595750D01*
X-164250Y-15500500D01*
X-1024500Y-15500500D01*
X-1025500Y-15500500D01*
X-1885750Y-15500500D01*
X-1981000Y-15595750D01*
X-1982843Y-16200000D01*
X-4023062Y-16200000D01*
X-4541544Y-14800000D01*
X-1982843Y-14800000D01*
X-1981000Y-15404250D01*
X-1885750Y-15499500D01*
X-1025500Y-15499500D01*
X-1025500Y-14514250D01*
X-1024500Y-14514250D01*
X-1024500Y-15499500D01*
X-164250Y-15499500D01*
X-69000Y-15404250D01*
X-67157Y-14800000D01*
X-74513Y-14725311D01*
X-96299Y-14653492D01*
X-131678Y-14587304D01*
X-179289Y-14529289D01*
X-237304Y-14481678D01*
X-303492Y-14446299D01*
X-375311Y-14424513D01*
X-450000Y-14417157D01*
X-929250Y-14419000D01*
X-1024500Y-14514250D01*
X-1025500Y-14514250D01*
X-1120750Y-14419000D01*
X-1600000Y-14417157D01*
X-1674689Y-14424513D01*
X-1746508Y-14446299D01*
X-1812696Y-14481678D01*
X-1870711Y-14529289D01*
X-1918322Y-14587304D01*
X-1953701Y-14653492D01*
X-1975487Y-14725311D01*
X-1982843Y-14800000D01*
X-4541544Y-14800000D01*
X-4742351Y-14257785D01*
X-4742353Y-14257778D01*
X-4742387Y-14257688D01*
X-4749197Y-14239300D01*
X-4758948Y-14219260D01*
X-4761277Y-14213050D01*
X-4763811Y-14207979D01*
X-4858551Y-14021696D01*
X-4878359Y-13990673D01*
X-4897719Y-13959395D01*
X-4901190Y-13954912D01*
X-5030307Y-13790579D01*
X-5055768Y-13763988D01*
X-5080834Y-13737068D01*
X-5085103Y-13733351D01*
X-5085107Y-13733347D01*
X-5085112Y-13733344D01*
X-5243687Y-13597221D01*
X-5273820Y-13576087D01*
X-5303641Y-13554546D01*
X-5308558Y-13551724D01*
X-5490557Y-13448992D01*
X-5524239Y-13434106D01*
X-5557662Y-13418773D01*
X-5563021Y-13416965D01*
X-5563031Y-13416961D01*
X-5563040Y-13416959D01*
X-5761520Y-13351537D01*
X-5797418Y-13343484D01*
X-5833213Y-13334928D01*
X-5838826Y-13334195D01*
X-5838835Y-13334193D01*
X-5838844Y-13334193D01*
X-6046248Y-13308568D01*
X-6083036Y-13307641D01*
X-6119803Y-13306201D01*
X-6125460Y-13306572D01*
X-6333901Y-13321721D01*
X-6370186Y-13327960D01*
X-6406515Y-13333686D01*
X-6411992Y-13335149D01*
X-6587648Y-13383390D01*
X-6600666Y-13385172D01*
X-6657324Y-13404728D01*
X-16332660Y-17848223D01*
X-16572230Y-17824733D01*
X-16869684Y-17734926D01*
X-17144025Y-17589056D01*
X-17384813Y-17392675D01*
X-17582871Y-17153265D01*
X-17725337Y-16889780D01*
X-16889073Y-16889780D01*
X-16889073Y-17024484D01*
X-16463107Y-17453056D01*
X-16405092Y-17500668D01*
X-16338903Y-17536046D01*
X-16267085Y-17557832D01*
X-16192396Y-17565188D01*
X-16117707Y-17557832D01*
X-16045888Y-17536046D01*
X-15979699Y-17500668D01*
X-15921685Y-17453056D01*
X-15584107Y-17112872D01*
X-15584107Y-16978168D01*
X-16280784Y-16281491D01*
X-16889073Y-16889780D01*
X-17725337Y-16889780D01*
X-17730654Y-16879948D01*
X-17822535Y-16583128D01*
X-17848742Y-16333790D01*
X-17783806Y-16192396D01*
X-17565188Y-16192396D01*
X-17557832Y-16267085D01*
X-17536046Y-16338903D01*
X-17500668Y-16405092D01*
X-17453056Y-16463107D01*
X-17024484Y-16889073D01*
X-16889780Y-16889073D01*
X-16281491Y-16280784D01*
X-16978168Y-15584107D01*
X-17112872Y-15584107D01*
X-17453056Y-15921685D01*
X-17500668Y-15979699D01*
X-17536046Y-16045888D01*
X-17557832Y-16117707D01*
X-17565188Y-16192396D01*
X-17783806Y-16192396D01*
X-16762212Y-13967962D01*
X-16765078Y-13977411D01*
X-16773660Y-14064548D01*
X-16771510Y-14086377D01*
X-16771511Y-14961898D01*
X-16773660Y-14983718D01*
X-16771511Y-15005538D01*
X-16771511Y-15005547D01*
X-16765079Y-15070854D01*
X-16752083Y-15113695D01*
X-16739662Y-15154643D01*
X-16720757Y-15190011D01*
X-16977461Y-15448696D01*
X-16977461Y-15583400D01*
X-16280784Y-16280077D01*
X-16266642Y-16265935D01*
X-16265935Y-16266642D01*
X-16280077Y-16280784D01*
X-15583400Y-16977461D01*
X-15448696Y-16977461D01*
X-15131234Y-16662431D01*
X-15112814Y-16664245D01*
X-15112805Y-16664245D01*
X-15090985Y-16666394D01*
X-15069165Y-16664245D01*
X-14416492Y-16664245D01*
X-14394672Y-16666394D01*
X-14372852Y-16664245D01*
X-14372842Y-16664245D01*
X-14307535Y-16657813D01*
X-14223746Y-16632396D01*
X-14146527Y-16591121D01*
X-14078843Y-16535574D01*
X-14064925Y-16518615D01*
X-10581322Y-13035013D01*
X-3527333Y-13035013D01*
X-3505513Y-13037162D01*
X-3483693Y-13035013D01*
X-3483683Y-13035013D01*
X-3418376Y-13028581D01*
X-3334587Y-13003164D01*
X-3257368Y-12961889D01*
X-3189684Y-12906342D01*
X-3175766Y-12889383D01*
X512951Y-9200667D01*
X489000Y-9321078D01*
X489000Y-9474922D01*
X518500Y-9623230D01*
X516553Y-9643000D01*
X519001Y-9667856D01*
X519000Y-14446771D01*
X457821Y-14465329D01*
X348411Y-14523810D01*
X252512Y-14602512D01*
X173810Y-14698411D01*
X115329Y-14807821D01*
X79317Y-14926538D01*
X67157Y-15049999D01*
X67157Y-15950001D01*
X79317Y-16073462D01*
X115329Y-16192179D01*
X173810Y-16301589D01*
X252512Y-16397488D01*
X348411Y-16476190D01*
X457821Y-16534671D01*
X576538Y-16570683D01*
X699999Y-16582843D01*
X1350001Y-16582843D01*
X1473462Y-16570683D01*
X1592179Y-16534671D01*
X1701589Y-16476190D01*
X1797488Y-16397488D01*
X1876190Y-16301589D01*
X1934671Y-16192179D01*
X1970683Y-16073462D01*
X1982843Y-15950001D01*
X1982843Y-15049999D01*
X1970683Y-14926538D01*
X1934671Y-14807821D01*
X1876190Y-14698411D01*
X1797488Y-14602512D01*
X1701589Y-14523810D01*
X1592179Y-14465329D01*
X1531000Y-14446771D01*
X1531000Y-10135239D01*
X1639942Y-10090113D01*
X1767859Y-10004642D01*
X1876642Y-9895859D01*
X1962113Y-9767942D01*
X2020987Y-9625809D01*
X2051000Y-9474922D01*
X2051000Y-9321078D01*
X2020987Y-9170191D01*
X1962113Y-9028058D01*
X1891811Y-8922843D01*
X2105000Y-8922843D01*
X2218707Y-8911644D01*
X2328044Y-8878477D01*
X2369000Y-8856585D01*
X2369001Y-18590407D01*
G04 #@! TA.AperFunction,Conductor*
D16*
G36*
X2369001Y-18590407D02*
G01*
X820269Y-20139140D01*
X801589Y-20123810D01*
X692179Y-20065329D01*
X573462Y-20029317D01*
X450001Y-20017157D01*
X-450001Y-20017157D01*
X-573462Y-20029317D01*
X-692179Y-20065329D01*
X-801589Y-20123810D01*
X-897488Y-20202512D01*
X-976190Y-20298411D01*
X-1034671Y-20407821D01*
X-1070683Y-20526538D01*
X-1082843Y-20649999D01*
X-1082843Y-21300001D01*
X-1070683Y-21423462D01*
X-1034671Y-21542179D01*
X-976190Y-21651589D01*
X-897488Y-21747488D01*
X-801589Y-21826190D01*
X-692179Y-21884671D01*
X-573462Y-21920683D01*
X-450001Y-21932843D01*
X450001Y-21932843D01*
X573462Y-21920683D01*
X692179Y-21884671D01*
X801589Y-21826190D01*
X897488Y-21747488D01*
X976190Y-21651589D01*
X1034671Y-21542179D01*
X1070683Y-21423462D01*
X1081997Y-21308594D01*
X2748186Y-19642406D01*
X1071420Y-24169991D01*
X885482Y-24322721D01*
X611703Y-24469521D01*
X314624Y-24560347D01*
X5553Y-24591741D01*
X-303720Y-24562506D01*
X-601427Y-24473756D01*
X-876230Y-24328869D01*
X-1070988Y-24171157D01*
X-1282512Y-23600000D01*
X-1082843Y-23600000D01*
X-1075487Y-23674689D01*
X-1053701Y-23746508D01*
X-1018322Y-23812696D01*
X-970711Y-23870711D01*
X-912696Y-23918322D01*
X-846508Y-23953701D01*
X-774689Y-23975487D01*
X-700000Y-23982843D01*
X-95750Y-23981000D01*
X-500Y-23885750D01*
X-500Y-23025500D01*
X500Y-23025500D01*
X500Y-23885750D01*
X95750Y-23981000D01*
X700000Y-23982843D01*
X774689Y-23975487D01*
X846508Y-23953701D01*
X912696Y-23918322D01*
X970711Y-23870711D01*
X1018322Y-23812696D01*
X1053701Y-23746508D01*
X1075487Y-23674689D01*
X1082843Y-23600000D01*
X1081000Y-23120750D01*
X985750Y-23025500D01*
X500Y-23025500D01*
X-500Y-23025500D01*
X-985750Y-23025500D01*
X-1081000Y-23120750D01*
X-1082843Y-23600000D01*
X-1282512Y-23600000D01*
X-1708408Y-22450000D01*
X-1082843Y-22450000D01*
X-1081000Y-22929250D01*
X-985750Y-23024500D01*
X-500Y-23024500D01*
X-500Y-22164250D01*
X500Y-22164250D01*
X500Y-23024500D01*
X985750Y-23024500D01*
X1081000Y-22929250D01*
X1082843Y-22450000D01*
X1075487Y-22375311D01*
X1053701Y-22303492D01*
X1018322Y-22237304D01*
X970711Y-22179289D01*
X912696Y-22131678D01*
X846508Y-22096299D01*
X774689Y-22074513D01*
X700000Y-22067157D01*
X95750Y-22069000D01*
X500Y-22164250D01*
X-500Y-22164250D01*
X-95750Y-22069000D01*
X-700000Y-22067157D01*
X-774689Y-22074513D01*
X-846508Y-22096299D01*
X-912696Y-22131678D01*
X-970711Y-22179289D01*
X-1018322Y-22237304D01*
X-1053701Y-22303492D01*
X-1075487Y-22375311D01*
X-1082843Y-22450000D01*
X-1708408Y-22450000D01*
X-4023062Y-16200000D01*
X-1982843Y-16200000D01*
X-1975487Y-16274689D01*
X-1953701Y-16346508D01*
X-1918322Y-16412696D01*
X-1870711Y-16470711D01*
X-1812696Y-16518322D01*
X-1746508Y-16553701D01*
X-1674689Y-16575487D01*
X-1600000Y-16582843D01*
X-1120750Y-16581000D01*
X-1025500Y-16485750D01*
X-1025500Y-15500500D01*
X-1024500Y-15500500D01*
X-1024500Y-16485750D01*
X-929250Y-16581000D01*
X-450000Y-16582843D01*
X-375311Y-16575487D01*
X-303492Y-16553701D01*
X-237304Y-16518322D01*
X-179289Y-16470711D01*
X-131678Y-16412696D01*
X-96299Y-16346508D01*
X-74513Y-16274689D01*
X-67157Y-16200000D01*
X-69000Y-15595750D01*
X-164250Y-15500500D01*
X-1024500Y-15500500D01*
X-1025500Y-15500500D01*
X-1885750Y-15500500D01*
X-1981000Y-15595750D01*
X-1982843Y-16200000D01*
X-4023062Y-16200000D01*
X-4541544Y-14800000D01*
X-1982843Y-14800000D01*
X-1981000Y-15404250D01*
X-1885750Y-15499500D01*
X-1025500Y-15499500D01*
X-1025500Y-14514250D01*
X-1024500Y-14514250D01*
X-1024500Y-15499500D01*
X-164250Y-15499500D01*
X-69000Y-15404250D01*
X-67157Y-14800000D01*
X-74513Y-14725311D01*
X-96299Y-14653492D01*
X-131678Y-14587304D01*
X-179289Y-14529289D01*
X-237304Y-14481678D01*
X-303492Y-14446299D01*
X-375311Y-14424513D01*
X-450000Y-14417157D01*
X-929250Y-14419000D01*
X-1024500Y-14514250D01*
X-1025500Y-14514250D01*
X-1120750Y-14419000D01*
X-1600000Y-14417157D01*
X-1674689Y-14424513D01*
X-1746508Y-14446299D01*
X-1812696Y-14481678D01*
X-1870711Y-14529289D01*
X-1918322Y-14587304D01*
X-1953701Y-14653492D01*
X-1975487Y-14725311D01*
X-1982843Y-14800000D01*
X-4541544Y-14800000D01*
X-4742351Y-14257785D01*
X-4742353Y-14257778D01*
X-4742387Y-14257688D01*
X-4749197Y-14239300D01*
X-4758948Y-14219260D01*
X-4761277Y-14213050D01*
X-4763811Y-14207979D01*
X-4858551Y-14021696D01*
X-4878359Y-13990673D01*
X-4897719Y-13959395D01*
X-4901190Y-13954912D01*
X-5030307Y-13790579D01*
X-5055768Y-13763988D01*
X-5080834Y-13737068D01*
X-5085103Y-13733351D01*
X-5085107Y-13733347D01*
X-5085112Y-13733344D01*
X-5243687Y-13597221D01*
X-5273820Y-13576087D01*
X-5303641Y-13554546D01*
X-5308558Y-13551724D01*
X-5490557Y-13448992D01*
X-5524239Y-13434106D01*
X-5557662Y-13418773D01*
X-5563021Y-13416965D01*
X-5563031Y-13416961D01*
X-5563040Y-13416959D01*
X-5761520Y-13351537D01*
X-5797418Y-13343484D01*
X-5833213Y-13334928D01*
X-5838826Y-13334195D01*
X-5838835Y-13334193D01*
X-5838844Y-13334193D01*
X-6046248Y-13308568D01*
X-6083036Y-13307641D01*
X-6119803Y-13306201D01*
X-6125460Y-13306572D01*
X-6333901Y-13321721D01*
X-6370186Y-13327960D01*
X-6406515Y-13333686D01*
X-6411992Y-13335149D01*
X-6587648Y-13383390D01*
X-6600666Y-13385172D01*
X-6657324Y-13404728D01*
X-16332660Y-17848223D01*
X-16572230Y-17824733D01*
X-16869684Y-17734926D01*
X-17144025Y-17589056D01*
X-17384813Y-17392675D01*
X-17582871Y-17153265D01*
X-17725337Y-16889780D01*
X-16889073Y-16889780D01*
X-16889073Y-17024484D01*
X-16463107Y-17453056D01*
X-16405092Y-17500668D01*
X-16338903Y-17536046D01*
X-16267085Y-17557832D01*
X-16192396Y-17565188D01*
X-16117707Y-17557832D01*
X-16045888Y-17536046D01*
X-15979699Y-17500668D01*
X-15921685Y-17453056D01*
X-15584107Y-17112872D01*
X-15584107Y-16978168D01*
X-16280784Y-16281491D01*
X-16889073Y-16889780D01*
X-17725337Y-16889780D01*
X-17730654Y-16879948D01*
X-17822535Y-16583128D01*
X-17848742Y-16333790D01*
X-17783806Y-16192396D01*
X-17565188Y-16192396D01*
X-17557832Y-16267085D01*
X-17536046Y-16338903D01*
X-17500668Y-16405092D01*
X-17453056Y-16463107D01*
X-17024484Y-16889073D01*
X-16889780Y-16889073D01*
X-16281491Y-16280784D01*
X-16978168Y-15584107D01*
X-17112872Y-15584107D01*
X-17453056Y-15921685D01*
X-17500668Y-15979699D01*
X-17536046Y-16045888D01*
X-17557832Y-16117707D01*
X-17565188Y-16192396D01*
X-17783806Y-16192396D01*
X-16762212Y-13967962D01*
X-16765078Y-13977411D01*
X-16773660Y-14064548D01*
X-16771510Y-14086377D01*
X-16771511Y-14961898D01*
X-16773660Y-14983718D01*
X-16771511Y-15005538D01*
X-16771511Y-15005547D01*
X-16765079Y-15070854D01*
X-16752083Y-15113695D01*
X-16739662Y-15154643D01*
X-16720757Y-15190011D01*
X-16977461Y-15448696D01*
X-16977461Y-15583400D01*
X-16280784Y-16280077D01*
X-16266642Y-16265935D01*
X-16265935Y-16266642D01*
X-16280077Y-16280784D01*
X-15583400Y-16977461D01*
X-15448696Y-16977461D01*
X-15131234Y-16662431D01*
X-15112814Y-16664245D01*
X-15112805Y-16664245D01*
X-15090985Y-16666394D01*
X-15069165Y-16664245D01*
X-14416492Y-16664245D01*
X-14394672Y-16666394D01*
X-14372852Y-16664245D01*
X-14372842Y-16664245D01*
X-14307535Y-16657813D01*
X-14223746Y-16632396D01*
X-14146527Y-16591121D01*
X-14078843Y-16535574D01*
X-14064925Y-16518615D01*
X-10581322Y-13035013D01*
X-3527333Y-13035013D01*
X-3505513Y-13037162D01*
X-3483693Y-13035013D01*
X-3483683Y-13035013D01*
X-3418376Y-13028581D01*
X-3334587Y-13003164D01*
X-3257368Y-12961889D01*
X-3189684Y-12906342D01*
X-3175766Y-12889383D01*
X512951Y-9200667D01*
X489000Y-9321078D01*
X489000Y-9474922D01*
X518500Y-9623230D01*
X516553Y-9643000D01*
X519001Y-9667856D01*
X519000Y-14446771D01*
X457821Y-14465329D01*
X348411Y-14523810D01*
X252512Y-14602512D01*
X173810Y-14698411D01*
X115329Y-14807821D01*
X79317Y-14926538D01*
X67157Y-15049999D01*
X67157Y-15950001D01*
X79317Y-16073462D01*
X115329Y-16192179D01*
X173810Y-16301589D01*
X252512Y-16397488D01*
X348411Y-16476190D01*
X457821Y-16534671D01*
X576538Y-16570683D01*
X699999Y-16582843D01*
X1350001Y-16582843D01*
X1473462Y-16570683D01*
X1592179Y-16534671D01*
X1701589Y-16476190D01*
X1797488Y-16397488D01*
X1876190Y-16301589D01*
X1934671Y-16192179D01*
X1970683Y-16073462D01*
X1982843Y-15950001D01*
X1982843Y-15049999D01*
X1970683Y-14926538D01*
X1934671Y-14807821D01*
X1876190Y-14698411D01*
X1797488Y-14602512D01*
X1701589Y-14523810D01*
X1592179Y-14465329D01*
X1531000Y-14446771D01*
X1531000Y-10135239D01*
X1639942Y-10090113D01*
X1767859Y-10004642D01*
X1876642Y-9895859D01*
X1962113Y-9767942D01*
X2020987Y-9625809D01*
X2051000Y-9474922D01*
X2051000Y-9321078D01*
X2020987Y-9170191D01*
X1962113Y-9028058D01*
X1891811Y-8922843D01*
X2105000Y-8922843D01*
X2218707Y-8911644D01*
X2328044Y-8878477D01*
X2369000Y-8856585D01*
X2369001Y-18590407D01*
G37*
G04 #@! TD.AperFunction*
D15*
X13321721Y-6333901D02*
X13327960Y-6370186D01*
X13333686Y-6406515D01*
X13335149Y-6411992D01*
X13383391Y-6587649D01*
X13385172Y-6600665D01*
X13404727Y-6657323D01*
X17848223Y-16332662D01*
X17824733Y-16572230D01*
X17734926Y-16869684D01*
X17589056Y-17144025D01*
X17392675Y-17384813D01*
X17153265Y-17582871D01*
X16879948Y-17730654D01*
X16583128Y-17822535D01*
X16333791Y-17848742D01*
X14438190Y-16978168D01*
X15584107Y-16978168D01*
X15584107Y-17112872D01*
X15921685Y-17453056D01*
X15979699Y-17500668D01*
X16045888Y-17536046D01*
X16117707Y-17557832D01*
X16192396Y-17565188D01*
X16267085Y-17557832D01*
X16338903Y-17536046D01*
X16405092Y-17500668D01*
X16463107Y-17453056D01*
X16889073Y-17024484D01*
X16889073Y-16889780D01*
X16280784Y-16281491D01*
X15584107Y-16978168D01*
X14438190Y-16978168D01*
X6657323Y-13404727D01*
X6644230Y-13400208D01*
X6642868Y-13399692D01*
X6642249Y-13399524D01*
X6600665Y-13385172D01*
X6592239Y-13384019D01*
X6401885Y-13333167D01*
X6365513Y-13327174D01*
X6329356Y-13320696D01*
X6323713Y-13320286D01*
X6323702Y-13320284D01*
X6323692Y-13320284D01*
X6115161Y-13306591D01*
X6078415Y-13307773D01*
X6041589Y-13308444D01*
X6035962Y-13309139D01*
X5828732Y-13336213D01*
X5792848Y-13344526D01*
X5756926Y-13352321D01*
X5751542Y-13354095D01*
X5553518Y-13420903D01*
X5519927Y-13436030D01*
X5486203Y-13450654D01*
X5481266Y-13453440D01*
X5299990Y-13557440D01*
X5270004Y-13578784D01*
X5239740Y-13599695D01*
X5235441Y-13603386D01*
X5235436Y-13603389D01*
X5235432Y-13603393D01*
X5077814Y-13740616D01*
X5052531Y-13767392D01*
X5026916Y-13793773D01*
X5023413Y-13798230D01*
X4895446Y-13963462D01*
X4875852Y-13994629D01*
X4855844Y-14025489D01*
X4853274Y-14030542D01*
X4776738Y-14183668D01*
X4775421Y-14185404D01*
X4749196Y-14239300D01*
X3381000Y-17933688D01*
X3381000Y-8922252D01*
X3488707Y-8911644D01*
X3598044Y-8878477D01*
X3698810Y-8824616D01*
X3787132Y-8752132D01*
X3810000Y-8724267D01*
X3832868Y-8752132D01*
X3921190Y-8824616D01*
X4021956Y-8878477D01*
X4131293Y-8911644D01*
X4245000Y-8922843D01*
X4645000Y-8922843D01*
X4758707Y-8911644D01*
X4868044Y-8878477D01*
X4968810Y-8824616D01*
X5057132Y-8752132D01*
X5129616Y-8663810D01*
X5183477Y-8563044D01*
X5216644Y-8453707D01*
X5227843Y-8340000D01*
X5227843Y-8215298D01*
X5332881Y-8194405D01*
X5475014Y-8135531D01*
X5602931Y-8050060D01*
X5711714Y-7941277D01*
X5729011Y-7915390D01*
X5729010Y-8750163D01*
X5726563Y-8775010D01*
X5729010Y-8799856D01*
X5729010Y-8799863D01*
X5736332Y-8874202D01*
X5765265Y-8969584D01*
X5812251Y-9057489D01*
X5875483Y-9134537D01*
X5894795Y-9150386D01*
X12977362Y-16232954D01*
X12993207Y-16252261D01*
X13070255Y-16315493D01*
X13153486Y-16359981D01*
X13158159Y-16362479D01*
X13253541Y-16391412D01*
X13352734Y-16401182D01*
X13377588Y-16398734D01*
X13994854Y-16398734D01*
X14069193Y-16391412D01*
X14164575Y-16362479D01*
X14211805Y-16337234D01*
X14933712Y-16337234D01*
X14955532Y-16339383D01*
X14977352Y-16337234D01*
X14977362Y-16337234D01*
X14999743Y-16335030D01*
X14996380Y-16369172D01*
X15003736Y-16443861D01*
X15025522Y-16515680D01*
X15060900Y-16581869D01*
X15108512Y-16639883D01*
X15448696Y-16977461D01*
X15583400Y-16977461D01*
X16280077Y-16280784D01*
X16281491Y-16280784D01*
X16889780Y-16889073D01*
X17024484Y-16889073D01*
X17453056Y-16463107D01*
X17500668Y-16405092D01*
X17536046Y-16338903D01*
X17557832Y-16267085D01*
X17565188Y-16192396D01*
X17557832Y-16117707D01*
X17536046Y-16045888D01*
X17500668Y-15979699D01*
X17453056Y-15921685D01*
X17112872Y-15584107D01*
X16978168Y-15584107D01*
X16281491Y-16280784D01*
X16280077Y-16280784D01*
X16265935Y-16266642D01*
X16266642Y-16265935D01*
X16280784Y-16280077D01*
X16977461Y-15583400D01*
X16977461Y-15448696D01*
X16639883Y-15108512D01*
X16581869Y-15060900D01*
X16515680Y-15025522D01*
X16443861Y-15003736D01*
X16369172Y-14996380D01*
X16335030Y-14999743D01*
X16337234Y-14977362D01*
X16337234Y-14977352D01*
X16339383Y-14955532D01*
X16337234Y-14933712D01*
X16337234Y-14390553D01*
X16339383Y-14368733D01*
X16337234Y-14346913D01*
X16337234Y-14346904D01*
X16330802Y-14281597D01*
X16305385Y-14197808D01*
X16264110Y-14120589D01*
X16264109Y-14120587D01*
X16222478Y-14069860D01*
X16222476Y-14069858D01*
X16208563Y-14052905D01*
X16191610Y-14038992D01*
X15471290Y-13318673D01*
X15455745Y-13267425D01*
X15408758Y-13179521D01*
X15361370Y-13121778D01*
X13167773Y-10928181D01*
X13167773Y-6443461D01*
X13318714Y-6292521D01*
X13321721Y-6333901D01*
G04 #@! TA.AperFunction,Conductor*
D16*
G36*
X13321721Y-6333901D02*
G01*
X13327960Y-6370186D01*
X13333686Y-6406515D01*
X13335149Y-6411992D01*
X13383391Y-6587649D01*
X13385172Y-6600665D01*
X13404727Y-6657323D01*
X17848223Y-16332662D01*
X17824733Y-16572230D01*
X17734926Y-16869684D01*
X17589056Y-17144025D01*
X17392675Y-17384813D01*
X17153265Y-17582871D01*
X16879948Y-17730654D01*
X16583128Y-17822535D01*
X16333791Y-17848742D01*
X14438190Y-16978168D01*
X15584107Y-16978168D01*
X15584107Y-17112872D01*
X15921685Y-17453056D01*
X15979699Y-17500668D01*
X16045888Y-17536046D01*
X16117707Y-17557832D01*
X16192396Y-17565188D01*
X16267085Y-17557832D01*
X16338903Y-17536046D01*
X16405092Y-17500668D01*
X16463107Y-17453056D01*
X16889073Y-17024484D01*
X16889073Y-16889780D01*
X16280784Y-16281491D01*
X15584107Y-16978168D01*
X14438190Y-16978168D01*
X6657323Y-13404727D01*
X6644230Y-13400208D01*
X6642868Y-13399692D01*
X6642249Y-13399524D01*
X6600665Y-13385172D01*
X6592239Y-13384019D01*
X6401885Y-13333167D01*
X6365513Y-13327174D01*
X6329356Y-13320696D01*
X6323713Y-13320286D01*
X6323702Y-13320284D01*
X6323692Y-13320284D01*
X6115161Y-13306591D01*
X6078415Y-13307773D01*
X6041589Y-13308444D01*
X6035962Y-13309139D01*
X5828732Y-13336213D01*
X5792848Y-13344526D01*
X5756926Y-13352321D01*
X5751542Y-13354095D01*
X5553518Y-13420903D01*
X5519927Y-13436030D01*
X5486203Y-13450654D01*
X5481266Y-13453440D01*
X5299990Y-13557440D01*
X5270004Y-13578784D01*
X5239740Y-13599695D01*
X5235441Y-13603386D01*
X5235436Y-13603389D01*
X5235432Y-13603393D01*
X5077814Y-13740616D01*
X5052531Y-13767392D01*
X5026916Y-13793773D01*
X5023413Y-13798230D01*
X4895446Y-13963462D01*
X4875852Y-13994629D01*
X4855844Y-14025489D01*
X4853274Y-14030542D01*
X4776738Y-14183668D01*
X4775421Y-14185404D01*
X4749196Y-14239300D01*
X3381000Y-17933688D01*
X3381000Y-8922252D01*
X3488707Y-8911644D01*
X3598044Y-8878477D01*
X3698810Y-8824616D01*
X3787132Y-8752132D01*
X3810000Y-8724267D01*
X3832868Y-8752132D01*
X3921190Y-8824616D01*
X4021956Y-8878477D01*
X4131293Y-8911644D01*
X4245000Y-8922843D01*
X4645000Y-8922843D01*
X4758707Y-8911644D01*
X4868044Y-8878477D01*
X4968810Y-8824616D01*
X5057132Y-8752132D01*
X5129616Y-8663810D01*
X5183477Y-8563044D01*
X5216644Y-8453707D01*
X5227843Y-8340000D01*
X5227843Y-8215298D01*
X5332881Y-8194405D01*
X5475014Y-8135531D01*
X5602931Y-8050060D01*
X5711714Y-7941277D01*
X5729011Y-7915390D01*
X5729010Y-8750163D01*
X5726563Y-8775010D01*
X5729010Y-8799856D01*
X5729010Y-8799863D01*
X5736332Y-8874202D01*
X5765265Y-8969584D01*
X5812251Y-9057489D01*
X5875483Y-9134537D01*
X5894795Y-9150386D01*
X12977362Y-16232954D01*
X12993207Y-16252261D01*
X13070255Y-16315493D01*
X13153486Y-16359981D01*
X13158159Y-16362479D01*
X13253541Y-16391412D01*
X13352734Y-16401182D01*
X13377588Y-16398734D01*
X13994854Y-16398734D01*
X14069193Y-16391412D01*
X14164575Y-16362479D01*
X14211805Y-16337234D01*
X14933712Y-16337234D01*
X14955532Y-16339383D01*
X14977352Y-16337234D01*
X14977362Y-16337234D01*
X14999743Y-16335030D01*
X14996380Y-16369172D01*
X15003736Y-16443861D01*
X15025522Y-16515680D01*
X15060900Y-16581869D01*
X15108512Y-16639883D01*
X15448696Y-16977461D01*
X15583400Y-16977461D01*
X16280077Y-16280784D01*
X16281491Y-16280784D01*
X16889780Y-16889073D01*
X17024484Y-16889073D01*
X17453056Y-16463107D01*
X17500668Y-16405092D01*
X17536046Y-16338903D01*
X17557832Y-16267085D01*
X17565188Y-16192396D01*
X17557832Y-16117707D01*
X17536046Y-16045888D01*
X17500668Y-15979699D01*
X17453056Y-15921685D01*
X17112872Y-15584107D01*
X16978168Y-15584107D01*
X16281491Y-16280784D01*
X16280077Y-16280784D01*
X16265935Y-16266642D01*
X16266642Y-16265935D01*
X16280784Y-16280077D01*
X16977461Y-15583400D01*
X16977461Y-15448696D01*
X16639883Y-15108512D01*
X16581869Y-15060900D01*
X16515680Y-15025522D01*
X16443861Y-15003736D01*
X16369172Y-14996380D01*
X16335030Y-14999743D01*
X16337234Y-14977362D01*
X16337234Y-14977352D01*
X16339383Y-14955532D01*
X16337234Y-14933712D01*
X16337234Y-14390553D01*
X16339383Y-14368733D01*
X16337234Y-14346913D01*
X16337234Y-14346904D01*
X16330802Y-14281597D01*
X16305385Y-14197808D01*
X16264110Y-14120589D01*
X16264109Y-14120587D01*
X16222478Y-14069860D01*
X16222476Y-14069858D01*
X16208563Y-14052905D01*
X16191610Y-14038992D01*
X15471290Y-13318673D01*
X15455745Y-13267425D01*
X15408758Y-13179521D01*
X15361370Y-13121778D01*
X13167773Y-10928181D01*
X13167773Y-6443461D01*
X13318714Y-6292521D01*
X13321721Y-6333901D01*
G37*
G04 #@! TD.AperFunction*
D15*
X-17335498Y1968500D02*
X-21017371Y1968500D01*
X-21039191Y1970649D01*
X-21061011Y1968500D01*
X-21061020Y1968500D01*
X-21126327Y1962068D01*
X-21210116Y1936651D01*
X-21282350Y1898040D01*
X-21287337Y1895375D01*
X-21337752Y1854000D01*
X-21355019Y1839829D01*
X-21368932Y1822876D01*
X-22202252Y989556D01*
X-22237304Y1018322D01*
X-22303492Y1053701D01*
X-22375311Y1075487D01*
X-22450000Y1082843D01*
X-22929250Y1081000D01*
X-23024500Y985750D01*
X-23024500Y500D01*
X-23004500Y500D01*
X-23004500Y-500D01*
X-23024500Y-500D01*
X-23024500Y-985750D01*
X-22929250Y-1081000D01*
X-22450000Y-1082843D01*
X-22375311Y-1075487D01*
X-22303492Y-1053701D01*
X-22237304Y-1018322D01*
X-22202251Y-989556D01*
X-21622937Y-1568870D01*
X-21609019Y-1585829D01*
X-21541335Y-1641376D01*
X-21464116Y-1682651D01*
X-21380327Y-1708068D01*
X-21315020Y-1714500D01*
X-21315011Y-1714500D01*
X-21293191Y-1716649D01*
X-21271371Y-1714500D01*
X-16440117Y-1714500D01*
X-12640945Y-5513673D01*
X-12640946Y-9749865D01*
X-16625886Y-13734806D01*
X-16642839Y-13748719D01*
X-16656752Y-13765672D01*
X-16656756Y-13765676D01*
X-16685262Y-13800410D01*
X-13404728Y-6657324D01*
X-13400213Y-6644242D01*
X-13399692Y-6642868D01*
X-13399523Y-6642244D01*
X-13385172Y-6600666D01*
X-13384019Y-6592237D01*
X-13333167Y-6401884D01*
X-13327175Y-6365519D01*
X-13320696Y-6329356D01*
X-13320286Y-6323713D01*
X-13320284Y-6323702D01*
X-13320284Y-6323692D01*
X-13306591Y-6115161D01*
X-13307773Y-6078415D01*
X-13308444Y-6041589D01*
X-13309139Y-6035962D01*
X-13336213Y-5828732D01*
X-13344526Y-5792848D01*
X-13352321Y-5756926D01*
X-13354095Y-5751542D01*
X-13420903Y-5553518D01*
X-13436030Y-5519927D01*
X-13450654Y-5486203D01*
X-13453440Y-5481266D01*
X-13557440Y-5299990D01*
X-13578784Y-5270004D01*
X-13599695Y-5239740D01*
X-13603388Y-5235438D01*
X-13603389Y-5235436D01*
X-13603393Y-5235432D01*
X-13740616Y-5077814D01*
X-13767392Y-5052531D01*
X-13793773Y-5026916D01*
X-13798230Y-5023413D01*
X-13963462Y-4895446D01*
X-13994629Y-4875852D01*
X-14025489Y-4855844D01*
X-14030542Y-4853274D01*
X-14183668Y-4776738D01*
X-14185404Y-4775421D01*
X-14239300Y-4749196D01*
X-24169991Y-1071420D01*
X-24322721Y-885482D01*
X-24422176Y-700000D01*
X-23982843Y-700000D01*
X-23975487Y-774689D01*
X-23953701Y-846508D01*
X-23918322Y-912696D01*
X-23870711Y-970711D01*
X-23812696Y-1018322D01*
X-23746508Y-1053701D01*
X-23674689Y-1075487D01*
X-23600000Y-1082843D01*
X-23120750Y-1081000D01*
X-23025500Y-985750D01*
X-23025500Y-500D01*
X-23885750Y-500D01*
X-23981000Y-95750D01*
X-23982843Y-700000D01*
X-24422176Y-700000D01*
X-24469521Y-611703D01*
X-24560347Y-314624D01*
X-24591741Y-5553D01*
X-24562506Y303720D01*
X-24473756Y601428D01*
X-24421785Y700000D01*
X-23982843Y700000D01*
X-23981000Y95750D01*
X-23885750Y500D01*
X-23025500Y500D01*
X-23025500Y985750D01*
X-23120750Y1081000D01*
X-23600000Y1082843D01*
X-23674689Y1075487D01*
X-23746508Y1053701D01*
X-23812696Y1018322D01*
X-23870711Y970711D01*
X-23918322Y912696D01*
X-23953701Y846508D01*
X-23975487Y774689D01*
X-23982843Y700000D01*
X-24421785Y700000D01*
X-24328869Y876230D01*
X-24171157Y1070988D01*
X-14740373Y4563626D01*
X-17335498Y1968500D01*
G04 #@! TA.AperFunction,Conductor*
D16*
G36*
X-17335498Y1968500D02*
G01*
X-21017371Y1968500D01*
X-21039191Y1970649D01*
X-21061011Y1968500D01*
X-21061020Y1968500D01*
X-21126327Y1962068D01*
X-21210116Y1936651D01*
X-21282350Y1898040D01*
X-21287337Y1895375D01*
X-21337752Y1854000D01*
X-21355019Y1839829D01*
X-21368932Y1822876D01*
X-22202252Y989556D01*
X-22237304Y1018322D01*
X-22303492Y1053701D01*
X-22375311Y1075487D01*
X-22450000Y1082843D01*
X-22929250Y1081000D01*
X-23024500Y985750D01*
X-23024500Y500D01*
X-23004500Y500D01*
X-23004500Y-500D01*
X-23024500Y-500D01*
X-23024500Y-985750D01*
X-22929250Y-1081000D01*
X-22450000Y-1082843D01*
X-22375311Y-1075487D01*
X-22303492Y-1053701D01*
X-22237304Y-1018322D01*
X-22202251Y-989556D01*
X-21622937Y-1568870D01*
X-21609019Y-1585829D01*
X-21541335Y-1641376D01*
X-21464116Y-1682651D01*
X-21380327Y-1708068D01*
X-21315020Y-1714500D01*
X-21315011Y-1714500D01*
X-21293191Y-1716649D01*
X-21271371Y-1714500D01*
X-16440117Y-1714500D01*
X-12640945Y-5513673D01*
X-12640946Y-9749865D01*
X-16625886Y-13734806D01*
X-16642839Y-13748719D01*
X-16656752Y-13765672D01*
X-16656756Y-13765676D01*
X-16685262Y-13800410D01*
X-13404728Y-6657324D01*
X-13400213Y-6644242D01*
X-13399692Y-6642868D01*
X-13399523Y-6642244D01*
X-13385172Y-6600666D01*
X-13384019Y-6592237D01*
X-13333167Y-6401884D01*
X-13327175Y-6365519D01*
X-13320696Y-6329356D01*
X-13320286Y-6323713D01*
X-13320284Y-6323702D01*
X-13320284Y-6323692D01*
X-13306591Y-6115161D01*
X-13307773Y-6078415D01*
X-13308444Y-6041589D01*
X-13309139Y-6035962D01*
X-13336213Y-5828732D01*
X-13344526Y-5792848D01*
X-13352321Y-5756926D01*
X-13354095Y-5751542D01*
X-13420903Y-5553518D01*
X-13436030Y-5519927D01*
X-13450654Y-5486203D01*
X-13453440Y-5481266D01*
X-13557440Y-5299990D01*
X-13578784Y-5270004D01*
X-13599695Y-5239740D01*
X-13603388Y-5235438D01*
X-13603389Y-5235436D01*
X-13603393Y-5235432D01*
X-13740616Y-5077814D01*
X-13767392Y-5052531D01*
X-13793773Y-5026916D01*
X-13798230Y-5023413D01*
X-13963462Y-4895446D01*
X-13994629Y-4875852D01*
X-14025489Y-4855844D01*
X-14030542Y-4853274D01*
X-14183668Y-4776738D01*
X-14185404Y-4775421D01*
X-14239300Y-4749196D01*
X-24169991Y-1071420D01*
X-24322721Y-885482D01*
X-24422176Y-700000D01*
X-23982843Y-700000D01*
X-23975487Y-774689D01*
X-23953701Y-846508D01*
X-23918322Y-912696D01*
X-23870711Y-970711D01*
X-23812696Y-1018322D01*
X-23746508Y-1053701D01*
X-23674689Y-1075487D01*
X-23600000Y-1082843D01*
X-23120750Y-1081000D01*
X-23025500Y-985750D01*
X-23025500Y-500D01*
X-23885750Y-500D01*
X-23981000Y-95750D01*
X-23982843Y-700000D01*
X-24422176Y-700000D01*
X-24469521Y-611703D01*
X-24560347Y-314624D01*
X-24591741Y-5553D01*
X-24562506Y303720D01*
X-24473756Y601428D01*
X-24421785Y700000D01*
X-23982843Y700000D01*
X-23981000Y95750D01*
X-23885750Y500D01*
X-23025500Y500D01*
X-23025500Y985750D01*
X-23120750Y1081000D01*
X-23600000Y1082843D01*
X-23674689Y1075487D01*
X-23746508Y1053701D01*
X-23812696Y1018322D01*
X-23870711Y970711D01*
X-23918322Y912696D01*
X-23953701Y846508D01*
X-23975487Y774689D01*
X-23982843Y700000D01*
X-24421785Y700000D01*
X-24328869Y876230D01*
X-24171157Y1070988D01*
X-14740373Y4563626D01*
X-17335498Y1968500D01*
G37*
G04 #@! TD.AperFunction*
D15*
X12321553Y-5858499D02*
X12302247Y-5874343D01*
X12239015Y-5951391D01*
X12231811Y-5964869D01*
X12192028Y-6039296D01*
X12163095Y-6134678D01*
X12153326Y-6233870D01*
X12155774Y-6258726D01*
X12155773Y-11112925D01*
X12153326Y-11137772D01*
X12155773Y-11162618D01*
X12155773Y-11162625D01*
X12163095Y-11236964D01*
X12192028Y-11332346D01*
X12239014Y-11420251D01*
X12302246Y-11497299D01*
X12321558Y-11513148D01*
X14566593Y-13758185D01*
X14515615Y-13800023D01*
X7452221Y-6736630D01*
X7394478Y-6689242D01*
X7306574Y-6642255D01*
X7211192Y-6613322D01*
X7112000Y-6603553D01*
X7012808Y-6613322D01*
X6917426Y-6642255D01*
X6870197Y-6667500D01*
X6358581Y-6667500D01*
X6063091Y-6372010D01*
X7546687Y-6372010D01*
X7593916Y-6397255D01*
X7689298Y-6426188D01*
X7788490Y-6435957D01*
X7887682Y-6426188D01*
X7983064Y-6397255D01*
X8070968Y-6350268D01*
X8128711Y-6302880D01*
X8825572Y-5606020D01*
X12497956Y-5606020D01*
X12522802Y-5608467D01*
X12547648Y-5606020D01*
X12547656Y-5606020D01*
X12576913Y-5603138D01*
X12321553Y-5858499D01*
G04 #@! TA.AperFunction,Conductor*
D16*
G36*
X12321553Y-5858499D02*
G01*
X12302247Y-5874343D01*
X12239015Y-5951391D01*
X12231811Y-5964869D01*
X12192028Y-6039296D01*
X12163095Y-6134678D01*
X12153326Y-6233870D01*
X12155774Y-6258726D01*
X12155773Y-11112925D01*
X12153326Y-11137772D01*
X12155773Y-11162618D01*
X12155773Y-11162625D01*
X12163095Y-11236964D01*
X12192028Y-11332346D01*
X12239014Y-11420251D01*
X12302246Y-11497299D01*
X12321558Y-11513148D01*
X14566593Y-13758185D01*
X14515615Y-13800023D01*
X7452221Y-6736630D01*
X7394478Y-6689242D01*
X7306574Y-6642255D01*
X7211192Y-6613322D01*
X7112000Y-6603553D01*
X7012808Y-6613322D01*
X6917426Y-6642255D01*
X6870197Y-6667500D01*
X6358581Y-6667500D01*
X6063091Y-6372010D01*
X7546687Y-6372010D01*
X7593916Y-6397255D01*
X7689298Y-6426188D01*
X7788490Y-6435957D01*
X7887682Y-6426188D01*
X7983064Y-6397255D01*
X8070968Y-6350268D01*
X8128711Y-6302880D01*
X8825572Y-5606020D01*
X12497956Y-5606020D01*
X12522802Y-5608467D01*
X12547648Y-5606020D01*
X12547656Y-5606020D01*
X12576913Y-5603138D01*
X12321553Y-5858499D01*
G37*
G04 #@! TD.AperFunction*
D15*
X303720Y24562506D02*
X601428Y24473756D01*
X876230Y24328869D01*
X1070988Y24171157D01*
X4749196Y14239300D01*
X4758951Y14219252D01*
X4761277Y14213050D01*
X4763811Y14207979D01*
X4858551Y14021697D01*
X4878362Y13990667D01*
X4897719Y13959395D01*
X4901188Y13954915D01*
X4901191Y13954911D01*
X4901194Y13954908D01*
X5030307Y13790579D01*
X5055767Y13763989D01*
X5080833Y13737069D01*
X5085103Y13733351D01*
X5085107Y13733347D01*
X5085112Y13733344D01*
X5243686Y13597221D01*
X5273850Y13576066D01*
X5303642Y13554546D01*
X5308559Y13551724D01*
X5490557Y13448992D01*
X5524239Y13434106D01*
X5557662Y13418773D01*
X5563021Y13416965D01*
X5563031Y13416961D01*
X5563040Y13416959D01*
X5761519Y13351537D01*
X5797463Y13343474D01*
X5833213Y13334929D01*
X5838826Y13334195D01*
X5838835Y13334193D01*
X5838844Y13334193D01*
X6046248Y13308568D01*
X6083039Y13307641D01*
X6119804Y13306201D01*
X6125461Y13306572D01*
X6333901Y13321721D01*
X6370186Y13327960D01*
X6406515Y13333686D01*
X6411992Y13335149D01*
X6587649Y13383391D01*
X6600665Y13385172D01*
X6657323Y13404727D01*
X14731497Y17112872D01*
X15584107Y17112872D01*
X15584107Y16978168D01*
X16280784Y16281491D01*
X16889073Y16889780D01*
X16889073Y17024484D01*
X16463107Y17453056D01*
X16405092Y17500668D01*
X16338903Y17536046D01*
X16267085Y17557832D01*
X16192396Y17565188D01*
X16117707Y17557832D01*
X16045888Y17536046D01*
X15979699Y17500668D01*
X15921685Y17453056D01*
X15584107Y17112872D01*
X14731497Y17112872D01*
X16332662Y17848223D01*
X16572229Y17824733D01*
X16869688Y17734925D01*
X17144028Y17589055D01*
X17384813Y17392675D01*
X17582873Y17153264D01*
X17730654Y16879947D01*
X17822535Y16583128D01*
X17848742Y16333791D01*
X13571461Y7020372D01*
X13571461Y10823870D01*
X16342220Y13594628D01*
X16361527Y13610473D01*
X16424759Y13687521D01*
X16471745Y13775425D01*
X16499482Y13866863D01*
X16500678Y13870806D01*
X16503325Y13897679D01*
X16508000Y13945146D01*
X16508000Y13945153D01*
X16510447Y13969999D01*
X16508000Y13994845D01*
X16508000Y14908386D01*
X16510448Y14933240D01*
X16501774Y15021304D01*
X16515680Y15025522D01*
X16581869Y15060900D01*
X16639883Y15108512D01*
X16977461Y15448696D01*
X16977461Y15583400D01*
X16280784Y16280077D01*
X16266642Y16265935D01*
X16265935Y16266642D01*
X16280077Y16280784D01*
X16281491Y16280784D01*
X16978168Y15584107D01*
X17112872Y15584107D01*
X17453056Y15921685D01*
X17500668Y15979699D01*
X17536046Y16045888D01*
X17557832Y16117707D01*
X17565188Y16192396D01*
X17557832Y16267085D01*
X17536046Y16338903D01*
X17500668Y16405092D01*
X17453056Y16463107D01*
X17024484Y16889073D01*
X16889780Y16889073D01*
X16281491Y16280784D01*
X16280077Y16280784D01*
X15583400Y16977461D01*
X15448696Y16977461D01*
X15108512Y16639883D01*
X15060900Y16581869D01*
X15025522Y16515680D01*
X15008620Y16459962D01*
X15005860Y16460234D01*
X15005852Y16460234D01*
X14981006Y16462681D01*
X14956160Y16460234D01*
X13947079Y16460234D01*
X13922233Y16462681D01*
X13897387Y16460234D01*
X13897380Y16460234D01*
X13832928Y16453886D01*
X13823040Y16452912D01*
X13765943Y16435592D01*
X13727659Y16423979D01*
X13639755Y16376993D01*
X13562707Y16313761D01*
X13546862Y16294454D01*
X10485996Y13233588D01*
X-416128Y13233588D01*
X-440974Y13236035D01*
X-465820Y13233588D01*
X-465827Y13233588D01*
X-530279Y13227240D01*
X-540167Y13226266D01*
X-635548Y13197333D01*
X-723452Y13150347D01*
X-800500Y13087115D01*
X-816344Y13067809D01*
X-5594383Y8289769D01*
X-5611677Y8295430D01*
X-5734844Y8310280D01*
X-5858541Y8300817D01*
X-6498668Y8187946D01*
X-6618143Y8154532D01*
X-6728802Y8098452D01*
X-6826395Y8021861D01*
X-6907171Y7927702D01*
X-6968024Y7819593D01*
X-7006618Y7701691D01*
X-7021468Y7578524D01*
X-7012005Y7454827D01*
X-6855722Y6568498D01*
X-6822308Y6449024D01*
X-6766228Y6338364D01*
X-6689637Y6240771D01*
X-6595478Y6159996D01*
X-6487370Y6099142D01*
X-6369467Y6060548D01*
X-6246300Y6045698D01*
X-6122603Y6055161D01*
X-5482476Y6168032D01*
X-5363001Y6201446D01*
X-5252342Y6257526D01*
X-5154749Y6334117D01*
X-5073973Y6428276D01*
X-5013120Y6536385D01*
X-4974526Y6654287D01*
X-4959676Y6777454D01*
X-4969139Y6901151D01*
X-5056480Y7396490D01*
X-231381Y12221588D01*
X10670741Y12221588D01*
X10695587Y12219141D01*
X10720433Y12221588D01*
X10720441Y12221588D01*
X10794780Y12228910D01*
X10890162Y12257843D01*
X10978066Y12304829D01*
X11055114Y12368061D01*
X11070963Y12387373D01*
X13655518Y14971927D01*
X13650365Y14919604D01*
X13662525Y14796143D01*
X13698537Y14677426D01*
X13757018Y14568016D01*
X13800023Y14515615D01*
X11859790Y12575381D01*
X11840483Y12559536D01*
X11777251Y12482488D01*
X11757272Y12445110D01*
X11730264Y12394583D01*
X11701331Y12299201D01*
X11691562Y12200009D01*
X11694010Y12175153D01*
X11694009Y6061248D01*
X11691562Y6036402D01*
X11694009Y6011556D01*
X11694009Y6011549D01*
X11701331Y5937210D01*
X11730264Y5841828D01*
X11777250Y5753923D01*
X11840482Y5676875D01*
X11859794Y5661026D01*
X12431057Y5089763D01*
X8083592Y5089763D01*
X7330958Y5842397D01*
X7727419Y5774061D01*
X7837513Y5851150D01*
X7838747Y5851150D01*
X7916010Y5740807D01*
X8387659Y5655771D01*
X8462490Y5650046D01*
X8537001Y5659030D01*
X8608327Y5682378D01*
X8673729Y5719191D01*
X8730690Y5768057D01*
X8777025Y5827096D01*
X8810952Y5894041D01*
X8831165Y5966318D01*
X8934277Y6561708D01*
X8857014Y6672051D01*
X8009834Y6821432D01*
X7838747Y5851150D01*
X7837513Y5851150D01*
X7837762Y5851324D01*
X8008849Y6821605D01*
X8004244Y6822417D01*
X8010007Y6822417D01*
X8857188Y6673036D01*
X8967531Y6750299D01*
X9074273Y7345049D01*
X9079998Y7419880D01*
X9071015Y7494391D01*
X9047666Y7565717D01*
X9010853Y7631119D01*
X8961987Y7688080D01*
X8902948Y7734415D01*
X8836003Y7768342D01*
X8763726Y7788555D01*
X8291437Y7869961D01*
X8181094Y7792698D01*
X8010007Y6822417D01*
X8004244Y6822417D01*
X7161668Y6970986D01*
X7051325Y6893723D01*
X6944583Y6298973D01*
X6939594Y6233760D01*
X6789355Y6383999D01*
X6822308Y6449023D01*
X6855722Y6568498D01*
X6946321Y7082314D01*
X7084579Y7082314D01*
X7161842Y6971971D01*
X8009022Y6822590D01*
X8180109Y7792872D01*
X8102846Y7903215D01*
X7631197Y7988251D01*
X7556366Y7993976D01*
X7481855Y7984992D01*
X7410529Y7961644D01*
X7345127Y7924831D01*
X7288166Y7875965D01*
X7241831Y7816926D01*
X7207904Y7749981D01*
X7187691Y7677704D01*
X7084579Y7082314D01*
X6946321Y7082314D01*
X7012005Y7454827D01*
X7021468Y7578524D01*
X7006618Y7701691D01*
X6968024Y7819594D01*
X6907170Y7927702D01*
X6826395Y8021861D01*
X6728802Y8098452D01*
X6618142Y8154532D01*
X6498668Y8187946D01*
X5858541Y8300817D01*
X5734844Y8310280D01*
X5611677Y8295430D01*
X5493775Y8256836D01*
X5385666Y8195983D01*
X5291507Y8115207D01*
X5214916Y8017614D01*
X5158836Y7906955D01*
X5125422Y7787480D01*
X4969139Y6901151D01*
X4959676Y6777454D01*
X4974526Y6654287D01*
X5013120Y6536384D01*
X5073974Y6428276D01*
X5154749Y6334117D01*
X5252342Y6257526D01*
X5363002Y6201446D01*
X5482476Y6168032D01*
X5598257Y6147617D01*
X5631046Y6107664D01*
X5650353Y6091819D01*
X7498628Y4243543D01*
X7514473Y4224236D01*
X7591521Y4161004D01*
X7679425Y4114018D01*
X7752607Y4091819D01*
X7774806Y4085085D01*
X7784694Y4084111D01*
X7849146Y4077763D01*
X7849153Y4077763D01*
X7873999Y4075316D01*
X7898845Y4077763D01*
X12806647Y4077763D01*
X15444000Y1440409D01*
X15444001Y-190407D01*
X11940410Y-3693999D01*
X8672616Y-3693999D01*
X8557256Y-3578639D01*
X8543339Y-3561681D01*
X8475655Y-3506134D01*
X8398436Y-3464859D01*
X8314647Y-3439442D01*
X8249340Y-3433010D01*
X8249330Y-3433010D01*
X8227510Y-3430861D01*
X8205690Y-3433010D01*
X7676046Y-3433010D01*
X7682843Y-3364001D01*
X7682843Y-2713999D01*
X7670683Y-2590538D01*
X7634671Y-2471821D01*
X7576190Y-2362411D01*
X7497488Y-2266512D01*
X7401589Y-2187810D01*
X7292179Y-2129329D01*
X7173462Y-2093317D01*
X7050001Y-2081157D01*
X7025135Y-2081157D01*
X7022759Y-2076711D01*
X6959527Y-1999663D01*
X6940220Y-1983818D01*
X6685245Y-1728843D01*
X7050001Y-1728843D01*
X7173462Y-1716683D01*
X7292179Y-1680671D01*
X7401589Y-1622190D01*
X7497488Y-1543488D01*
X7576190Y-1447589D01*
X7634671Y-1338179D01*
X7670683Y-1219462D01*
X7682843Y-1096001D01*
X7682843Y-445999D01*
X7670683Y-322538D01*
X7634671Y-203821D01*
X7576190Y-94411D01*
X7497488Y1488D01*
X7401589Y80190D01*
X7292179Y138671D01*
X7173462Y174683D01*
X7050001Y186843D01*
X6149999Y186843D01*
X6026538Y174683D01*
X5907821Y138671D01*
X5840000Y102420D01*
X5840000Y405580D01*
X5907821Y369329D01*
X6026538Y333317D01*
X6149999Y321157D01*
X7050001Y321157D01*
X7173462Y333317D01*
X7292179Y369329D01*
X7401589Y427810D01*
X7497488Y506512D01*
X7576190Y602411D01*
X7634671Y711821D01*
X7670683Y830538D01*
X7682843Y953999D01*
X7682843Y1604001D01*
X7670683Y1727462D01*
X7634671Y1846179D01*
X7576190Y1955589D01*
X7497488Y2051488D01*
X7401589Y2130190D01*
X7292179Y2188671D01*
X7173462Y2224683D01*
X7110000Y2230934D01*
X7110000Y2584409D01*
X7363596Y2838004D01*
X10347261Y2838004D01*
X10319000Y2695924D01*
X10319000Y2553594D01*
X9659780Y1894373D01*
X9640474Y1878529D01*
X9608900Y1840056D01*
X9451333Y1808714D01*
X9109013Y1666920D01*
X8800933Y1461068D01*
X8538932Y1199067D01*
X8333080Y890987D01*
X8191286Y548667D01*
X8119000Y185262D01*
X8119000Y-185262D01*
X8191286Y-548667D01*
X8333080Y-890987D01*
X8538932Y-1199067D01*
X8800933Y-1461068D01*
X9109013Y-1666920D01*
X9451333Y-1808714D01*
X9814738Y-1881000D01*
X10185262Y-1881000D01*
X10548667Y-1808714D01*
X10890987Y-1666920D01*
X11199067Y-1461068D01*
X11461068Y-1199067D01*
X11549000Y-1067467D01*
X11549000Y-1092922D01*
X11579013Y-1243809D01*
X11637887Y-1385942D01*
X11723358Y-1513859D01*
X11832141Y-1622642D01*
X11960058Y-1708113D01*
X12102191Y-1766987D01*
X12253078Y-1797000D01*
X12406922Y-1797000D01*
X12557809Y-1766987D01*
X12699942Y-1708113D01*
X12827859Y-1622642D01*
X12936642Y-1513859D01*
X13022113Y-1385942D01*
X13080987Y-1243809D01*
X13111000Y-1092922D01*
X13111000Y-939078D01*
X13080987Y-788191D01*
X13022113Y-646058D01*
X12936642Y-518141D01*
X12836000Y-417499D01*
X12836000Y2437152D01*
X12838448Y2462006D01*
X12828678Y2561199D01*
X12799745Y2656581D01*
X12779312Y2694808D01*
X12752759Y2744485D01*
X12689527Y2821533D01*
X12670220Y2837378D01*
X11823378Y3684219D01*
X11807529Y3703531D01*
X11730481Y3766763D01*
X11642577Y3813749D01*
X11547195Y3842682D01*
X11472856Y3850004D01*
X11472848Y3850004D01*
X11448002Y3852451D01*
X11423156Y3850004D01*
X7178849Y3850004D01*
X7154003Y3852451D01*
X7129157Y3850004D01*
X7129150Y3850004D01*
X7064698Y3843656D01*
X7054810Y3842682D01*
X6965630Y3815630D01*
X6959429Y3813749D01*
X6871525Y3766763D01*
X6794477Y3703531D01*
X6778632Y3684224D01*
X6604000Y3509592D01*
X4407355Y5706236D01*
X4391506Y5725548D01*
X4314458Y5788780D01*
X4226554Y5835766D01*
X4131172Y5864699D01*
X4056833Y5872021D01*
X4056825Y5872021D01*
X4031979Y5874468D01*
X4007133Y5872021D01*
X2558833Y5872021D01*
X2533979Y5874469D01*
X2509125Y5872021D01*
X-4712734Y5872021D01*
X-4737580Y5874468D01*
X-4762426Y5872021D01*
X-4762434Y5872021D01*
X-4836773Y5864699D01*
X-4932155Y5835766D01*
X-5020059Y5788780D01*
X-5097107Y5725548D01*
X-5112952Y5706241D01*
X-8468219Y2350973D01*
X-8487526Y2335128D01*
X-8550758Y2258080D01*
X-8562109Y2236843D01*
X-8597745Y2170175D01*
X-8626678Y2074793D01*
X-8636447Y1975601D01*
X-8633999Y1950745D01*
X-8633999Y1294134D01*
X-8800933Y1461068D01*
X-9109013Y1666920D01*
X-9451333Y1808714D01*
X-9814738Y1881000D01*
X-10185262Y1881000D01*
X-10548667Y1808714D01*
X-10890987Y1666920D01*
X-11199067Y1461068D01*
X-11461068Y1199067D01*
X-11666920Y890987D01*
X-11808714Y548667D01*
X-11881000Y185262D01*
X-11881000Y-185262D01*
X-11837081Y-406057D01*
X-11960058Y-323887D01*
X-12102191Y-265013D01*
X-12253078Y-235000D01*
X-12406922Y-235000D01*
X-12557809Y-265013D01*
X-12699942Y-323887D01*
X-12827859Y-409358D01*
X-12936642Y-518141D01*
X-13022113Y-646058D01*
X-13080987Y-788191D01*
X-13111000Y-939078D01*
X-13111000Y-1092922D01*
X-13080987Y-1243809D01*
X-13022113Y-1385942D01*
X-12936642Y-1513859D01*
X-12827859Y-1622642D01*
X-12699942Y-1708113D01*
X-12557809Y-1766987D01*
X-12406922Y-1797000D01*
X-12253078Y-1797000D01*
X-12102191Y-1766987D01*
X-11960058Y-1708113D01*
X-11832141Y-1622642D01*
X-11723358Y-1513859D01*
X-11699398Y-1478000D01*
X-11173726Y-1478000D01*
X-10890987Y-1666920D01*
X-10548667Y-1808714D01*
X-10185262Y-1881000D01*
X-9814738Y-1881000D01*
X-9451333Y-1808714D01*
X-9109013Y-1666920D01*
X-8826274Y-1478000D01*
X-8633999Y-1478000D01*
X-8634000Y-5124344D01*
X-8636447Y-5149190D01*
X-8634000Y-5174036D01*
X-8634000Y-5174043D01*
X-8626678Y-5248382D01*
X-8597745Y-5343764D01*
X-8550759Y-5431669D01*
X-8487527Y-5508717D01*
X-8468215Y-5524566D01*
X-7663552Y-6329230D01*
X-7647707Y-6348537D01*
X-7570659Y-6411769D01*
X-7495475Y-6451956D01*
X-7482755Y-6458755D01*
X-7387373Y-6487688D01*
X-7288180Y-6497458D01*
X-7263326Y-6495010D01*
X-6887628Y-6495010D01*
X-10219000Y-9826383D01*
X-10219000Y-9723078D01*
X-10249013Y-9572191D01*
X-10307887Y-9430058D01*
X-10393358Y-9302141D01*
X-10494000Y-9201499D01*
X-10494000Y-5424845D01*
X-10491553Y-5399999D01*
X-10494000Y-5375153D01*
X-10494000Y-5375146D01*
X-10501322Y-5300807D01*
X-10502207Y-5297887D01*
X-10509927Y-5272438D01*
X-10530255Y-5205425D01*
X-10577241Y-5117521D01*
X-10640473Y-5040473D01*
X-10659780Y-5024628D01*
X-13694000Y-1990409D01*
X-13694000Y2590409D01*
X-9722701Y6561708D01*
X-8934277Y6561708D01*
X-8831165Y5966318D01*
X-8810952Y5894041D01*
X-8777025Y5827096D01*
X-8730690Y5768057D01*
X-8673729Y5719191D01*
X-8608327Y5682378D01*
X-8537001Y5659030D01*
X-8462490Y5650046D01*
X-8387659Y5655771D01*
X-7916010Y5740807D01*
X-7838747Y5851150D01*
X-8009834Y6821432D01*
X-8857014Y6672051D01*
X-8934277Y6561708D01*
X-9722701Y6561708D01*
X-9053744Y7230665D01*
X-8967531Y6750299D01*
X-8857188Y6673036D01*
X-8014613Y6821605D01*
X-8008849Y6821605D01*
X-7837762Y5851324D01*
X-7727419Y5774061D01*
X-7255130Y5855467D01*
X-7182853Y5875680D01*
X-7115908Y5909607D01*
X-7056869Y5955942D01*
X-7008003Y6012903D01*
X-6971190Y6078305D01*
X-6947841Y6149631D01*
X-6938858Y6224142D01*
X-6944583Y6298973D01*
X-7051325Y6893723D01*
X-7161668Y6970986D01*
X-8008849Y6821605D01*
X-8014613Y6821605D01*
X-8010007Y6822417D01*
X-8181094Y7792698D01*
X-8181342Y7792872D01*
X-8180109Y7792872D01*
X-8009022Y6822590D01*
X-7161842Y6971971D01*
X-7084579Y7082314D01*
X-7187691Y7677704D01*
X-7207904Y7749981D01*
X-7241831Y7816926D01*
X-7288166Y7875965D01*
X-7345127Y7924831D01*
X-7410529Y7961644D01*
X-7481855Y7984992D01*
X-7556366Y7993976D01*
X-7631197Y7988251D01*
X-8102846Y7903215D01*
X-8180109Y7792872D01*
X-8181342Y7792872D01*
X-8291437Y7869961D01*
X-8440066Y7844343D01*
X-2489781Y13794627D01*
X-2470474Y13810472D01*
X-2407242Y13887520D01*
X-2360256Y13975424D01*
X-2331323Y14070806D01*
X-2324001Y14145145D01*
X-2321553Y14169999D01*
X-2324001Y14194853D01*
X-2324001Y18420810D01*
X-682437Y20062374D01*
X-573462Y20029317D01*
X-450001Y20017157D01*
X450001Y20017157D01*
X573462Y20029317D01*
X692179Y20065329D01*
X801589Y20123810D01*
X897488Y20202512D01*
X976190Y20298411D01*
X1034671Y20407821D01*
X1070683Y20526538D01*
X1082843Y20649999D01*
X1082843Y20748308D01*
X1112651Y20804074D01*
X1138068Y20887863D01*
X1146650Y20975000D01*
X1138068Y21062137D01*
X1112651Y21145926D01*
X1082843Y21201692D01*
X1082843Y21300001D01*
X1070683Y21423462D01*
X1034671Y21542179D01*
X976190Y21651589D01*
X897488Y21747488D01*
X801589Y21826190D01*
X692179Y21884671D01*
X573462Y21920683D01*
X450001Y21932843D01*
X-450001Y21932843D01*
X-573462Y21920683D01*
X-692179Y21884671D01*
X-801589Y21826190D01*
X-897488Y21747488D01*
X-976190Y21651589D01*
X-1034671Y21542179D01*
X-1070683Y21423462D01*
X-1082843Y21300001D01*
X-1082843Y21093151D01*
X-2874407Y19301586D01*
X-1708409Y22450000D01*
X-1082843Y22450000D01*
X-1075487Y22375311D01*
X-1053701Y22303492D01*
X-1018322Y22237304D01*
X-970711Y22179289D01*
X-912696Y22131678D01*
X-846508Y22096299D01*
X-774689Y22074513D01*
X-700000Y22067157D01*
X-95750Y22069000D01*
X-500Y22164250D01*
X-500Y23024500D01*
X500Y23024500D01*
X500Y22164250D01*
X95750Y22069000D01*
X700000Y22067157D01*
X774689Y22074513D01*
X846508Y22096299D01*
X912696Y22131678D01*
X970711Y22179289D01*
X1018322Y22237304D01*
X1053701Y22303492D01*
X1075487Y22375311D01*
X1082843Y22450000D01*
X1081000Y22929250D01*
X985750Y23024500D01*
X500Y23024500D01*
X-500Y23024500D01*
X-985750Y23024500D01*
X-1081000Y22929250D01*
X-1082843Y22450000D01*
X-1708409Y22450000D01*
X-1282513Y23600000D01*
X-1082843Y23600000D01*
X-1081000Y23120750D01*
X-985750Y23025500D01*
X-500Y23025500D01*
X-500Y23885750D01*
X500Y23885750D01*
X500Y23025500D01*
X985750Y23025500D01*
X1081000Y23120750D01*
X1082843Y23600000D01*
X1075487Y23674689D01*
X1053701Y23746508D01*
X1018322Y23812696D01*
X970711Y23870711D01*
X912696Y23918322D01*
X846508Y23953701D01*
X774689Y23975487D01*
X700000Y23982843D01*
X95750Y23981000D01*
X500Y23885750D01*
X-500Y23885750D01*
X-95750Y23981000D01*
X-700000Y23982843D01*
X-774689Y23975487D01*
X-846508Y23953701D01*
X-912696Y23918322D01*
X-970711Y23870711D01*
X-1018322Y23812696D01*
X-1053701Y23746508D01*
X-1075487Y23674689D01*
X-1082843Y23600000D01*
X-1282513Y23600000D01*
X-1071420Y24169990D01*
X-885482Y24322722D01*
X-611703Y24469521D01*
X-314624Y24560347D01*
X-5553Y24591741D01*
X303720Y24562506D01*
G04 #@! TA.AperFunction,Conductor*
D16*
G36*
X303720Y24562506D02*
G01*
X601428Y24473756D01*
X876230Y24328869D01*
X1070988Y24171157D01*
X4749196Y14239300D01*
X4758951Y14219252D01*
X4761277Y14213050D01*
X4763811Y14207979D01*
X4858551Y14021697D01*
X4878362Y13990667D01*
X4897719Y13959395D01*
X4901188Y13954915D01*
X4901191Y13954911D01*
X4901194Y13954908D01*
X5030307Y13790579D01*
X5055767Y13763989D01*
X5080833Y13737069D01*
X5085103Y13733351D01*
X5085107Y13733347D01*
X5085112Y13733344D01*
X5243686Y13597221D01*
X5273850Y13576066D01*
X5303642Y13554546D01*
X5308559Y13551724D01*
X5490557Y13448992D01*
X5524239Y13434106D01*
X5557662Y13418773D01*
X5563021Y13416965D01*
X5563031Y13416961D01*
X5563040Y13416959D01*
X5761519Y13351537D01*
X5797463Y13343474D01*
X5833213Y13334929D01*
X5838826Y13334195D01*
X5838835Y13334193D01*
X5838844Y13334193D01*
X6046248Y13308568D01*
X6083039Y13307641D01*
X6119804Y13306201D01*
X6125461Y13306572D01*
X6333901Y13321721D01*
X6370186Y13327960D01*
X6406515Y13333686D01*
X6411992Y13335149D01*
X6587649Y13383391D01*
X6600665Y13385172D01*
X6657323Y13404727D01*
X14731497Y17112872D01*
X15584107Y17112872D01*
X15584107Y16978168D01*
X16280784Y16281491D01*
X16889073Y16889780D01*
X16889073Y17024484D01*
X16463107Y17453056D01*
X16405092Y17500668D01*
X16338903Y17536046D01*
X16267085Y17557832D01*
X16192396Y17565188D01*
X16117707Y17557832D01*
X16045888Y17536046D01*
X15979699Y17500668D01*
X15921685Y17453056D01*
X15584107Y17112872D01*
X14731497Y17112872D01*
X16332662Y17848223D01*
X16572229Y17824733D01*
X16869688Y17734925D01*
X17144028Y17589055D01*
X17384813Y17392675D01*
X17582873Y17153264D01*
X17730654Y16879947D01*
X17822535Y16583128D01*
X17848742Y16333791D01*
X13571461Y7020372D01*
X13571461Y10823870D01*
X16342220Y13594628D01*
X16361527Y13610473D01*
X16424759Y13687521D01*
X16471745Y13775425D01*
X16499482Y13866863D01*
X16500678Y13870806D01*
X16503325Y13897679D01*
X16508000Y13945146D01*
X16508000Y13945153D01*
X16510447Y13969999D01*
X16508000Y13994845D01*
X16508000Y14908386D01*
X16510448Y14933240D01*
X16501774Y15021304D01*
X16515680Y15025522D01*
X16581869Y15060900D01*
X16639883Y15108512D01*
X16977461Y15448696D01*
X16977461Y15583400D01*
X16280784Y16280077D01*
X16266642Y16265935D01*
X16265935Y16266642D01*
X16280077Y16280784D01*
X16281491Y16280784D01*
X16978168Y15584107D01*
X17112872Y15584107D01*
X17453056Y15921685D01*
X17500668Y15979699D01*
X17536046Y16045888D01*
X17557832Y16117707D01*
X17565188Y16192396D01*
X17557832Y16267085D01*
X17536046Y16338903D01*
X17500668Y16405092D01*
X17453056Y16463107D01*
X17024484Y16889073D01*
X16889780Y16889073D01*
X16281491Y16280784D01*
X16280077Y16280784D01*
X15583400Y16977461D01*
X15448696Y16977461D01*
X15108512Y16639883D01*
X15060900Y16581869D01*
X15025522Y16515680D01*
X15008620Y16459962D01*
X15005860Y16460234D01*
X15005852Y16460234D01*
X14981006Y16462681D01*
X14956160Y16460234D01*
X13947079Y16460234D01*
X13922233Y16462681D01*
X13897387Y16460234D01*
X13897380Y16460234D01*
X13832928Y16453886D01*
X13823040Y16452912D01*
X13765943Y16435592D01*
X13727659Y16423979D01*
X13639755Y16376993D01*
X13562707Y16313761D01*
X13546862Y16294454D01*
X10485996Y13233588D01*
X-416128Y13233588D01*
X-440974Y13236035D01*
X-465820Y13233588D01*
X-465827Y13233588D01*
X-530279Y13227240D01*
X-540167Y13226266D01*
X-635548Y13197333D01*
X-723452Y13150347D01*
X-800500Y13087115D01*
X-816344Y13067809D01*
X-5594383Y8289769D01*
X-5611677Y8295430D01*
X-5734844Y8310280D01*
X-5858541Y8300817D01*
X-6498668Y8187946D01*
X-6618143Y8154532D01*
X-6728802Y8098452D01*
X-6826395Y8021861D01*
X-6907171Y7927702D01*
X-6968024Y7819593D01*
X-7006618Y7701691D01*
X-7021468Y7578524D01*
X-7012005Y7454827D01*
X-6855722Y6568498D01*
X-6822308Y6449024D01*
X-6766228Y6338364D01*
X-6689637Y6240771D01*
X-6595478Y6159996D01*
X-6487370Y6099142D01*
X-6369467Y6060548D01*
X-6246300Y6045698D01*
X-6122603Y6055161D01*
X-5482476Y6168032D01*
X-5363001Y6201446D01*
X-5252342Y6257526D01*
X-5154749Y6334117D01*
X-5073973Y6428276D01*
X-5013120Y6536385D01*
X-4974526Y6654287D01*
X-4959676Y6777454D01*
X-4969139Y6901151D01*
X-5056480Y7396490D01*
X-231381Y12221588D01*
X10670741Y12221588D01*
X10695587Y12219141D01*
X10720433Y12221588D01*
X10720441Y12221588D01*
X10794780Y12228910D01*
X10890162Y12257843D01*
X10978066Y12304829D01*
X11055114Y12368061D01*
X11070963Y12387373D01*
X13655518Y14971927D01*
X13650365Y14919604D01*
X13662525Y14796143D01*
X13698537Y14677426D01*
X13757018Y14568016D01*
X13800023Y14515615D01*
X11859790Y12575381D01*
X11840483Y12559536D01*
X11777251Y12482488D01*
X11757272Y12445110D01*
X11730264Y12394583D01*
X11701331Y12299201D01*
X11691562Y12200009D01*
X11694010Y12175153D01*
X11694009Y6061248D01*
X11691562Y6036402D01*
X11694009Y6011556D01*
X11694009Y6011549D01*
X11701331Y5937210D01*
X11730264Y5841828D01*
X11777250Y5753923D01*
X11840482Y5676875D01*
X11859794Y5661026D01*
X12431057Y5089763D01*
X8083592Y5089763D01*
X7330958Y5842397D01*
X7727419Y5774061D01*
X7837513Y5851150D01*
X7838747Y5851150D01*
X7916010Y5740807D01*
X8387659Y5655771D01*
X8462490Y5650046D01*
X8537001Y5659030D01*
X8608327Y5682378D01*
X8673729Y5719191D01*
X8730690Y5768057D01*
X8777025Y5827096D01*
X8810952Y5894041D01*
X8831165Y5966318D01*
X8934277Y6561708D01*
X8857014Y6672051D01*
X8009834Y6821432D01*
X7838747Y5851150D01*
X7837513Y5851150D01*
X7837762Y5851324D01*
X8008849Y6821605D01*
X8004244Y6822417D01*
X8010007Y6822417D01*
X8857188Y6673036D01*
X8967531Y6750299D01*
X9074273Y7345049D01*
X9079998Y7419880D01*
X9071015Y7494391D01*
X9047666Y7565717D01*
X9010853Y7631119D01*
X8961987Y7688080D01*
X8902948Y7734415D01*
X8836003Y7768342D01*
X8763726Y7788555D01*
X8291437Y7869961D01*
X8181094Y7792698D01*
X8010007Y6822417D01*
X8004244Y6822417D01*
X7161668Y6970986D01*
X7051325Y6893723D01*
X6944583Y6298973D01*
X6939594Y6233760D01*
X6789355Y6383999D01*
X6822308Y6449023D01*
X6855722Y6568498D01*
X6946321Y7082314D01*
X7084579Y7082314D01*
X7161842Y6971971D01*
X8009022Y6822590D01*
X8180109Y7792872D01*
X8102846Y7903215D01*
X7631197Y7988251D01*
X7556366Y7993976D01*
X7481855Y7984992D01*
X7410529Y7961644D01*
X7345127Y7924831D01*
X7288166Y7875965D01*
X7241831Y7816926D01*
X7207904Y7749981D01*
X7187691Y7677704D01*
X7084579Y7082314D01*
X6946321Y7082314D01*
X7012005Y7454827D01*
X7021468Y7578524D01*
X7006618Y7701691D01*
X6968024Y7819594D01*
X6907170Y7927702D01*
X6826395Y8021861D01*
X6728802Y8098452D01*
X6618142Y8154532D01*
X6498668Y8187946D01*
X5858541Y8300817D01*
X5734844Y8310280D01*
X5611677Y8295430D01*
X5493775Y8256836D01*
X5385666Y8195983D01*
X5291507Y8115207D01*
X5214916Y8017614D01*
X5158836Y7906955D01*
X5125422Y7787480D01*
X4969139Y6901151D01*
X4959676Y6777454D01*
X4974526Y6654287D01*
X5013120Y6536384D01*
X5073974Y6428276D01*
X5154749Y6334117D01*
X5252342Y6257526D01*
X5363002Y6201446D01*
X5482476Y6168032D01*
X5598257Y6147617D01*
X5631046Y6107664D01*
X5650353Y6091819D01*
X7498628Y4243543D01*
X7514473Y4224236D01*
X7591521Y4161004D01*
X7679425Y4114018D01*
X7752607Y4091819D01*
X7774806Y4085085D01*
X7784694Y4084111D01*
X7849146Y4077763D01*
X7849153Y4077763D01*
X7873999Y4075316D01*
X7898845Y4077763D01*
X12806647Y4077763D01*
X15444000Y1440409D01*
X15444001Y-190407D01*
X11940410Y-3693999D01*
X8672616Y-3693999D01*
X8557256Y-3578639D01*
X8543339Y-3561681D01*
X8475655Y-3506134D01*
X8398436Y-3464859D01*
X8314647Y-3439442D01*
X8249340Y-3433010D01*
X8249330Y-3433010D01*
X8227510Y-3430861D01*
X8205690Y-3433010D01*
X7676046Y-3433010D01*
X7682843Y-3364001D01*
X7682843Y-2713999D01*
X7670683Y-2590538D01*
X7634671Y-2471821D01*
X7576190Y-2362411D01*
X7497488Y-2266512D01*
X7401589Y-2187810D01*
X7292179Y-2129329D01*
X7173462Y-2093317D01*
X7050001Y-2081157D01*
X7025135Y-2081157D01*
X7022759Y-2076711D01*
X6959527Y-1999663D01*
X6940220Y-1983818D01*
X6685245Y-1728843D01*
X7050001Y-1728843D01*
X7173462Y-1716683D01*
X7292179Y-1680671D01*
X7401589Y-1622190D01*
X7497488Y-1543488D01*
X7576190Y-1447589D01*
X7634671Y-1338179D01*
X7670683Y-1219462D01*
X7682843Y-1096001D01*
X7682843Y-445999D01*
X7670683Y-322538D01*
X7634671Y-203821D01*
X7576190Y-94411D01*
X7497488Y1488D01*
X7401589Y80190D01*
X7292179Y138671D01*
X7173462Y174683D01*
X7050001Y186843D01*
X6149999Y186843D01*
X6026538Y174683D01*
X5907821Y138671D01*
X5840000Y102420D01*
X5840000Y405580D01*
X5907821Y369329D01*
X6026538Y333317D01*
X6149999Y321157D01*
X7050001Y321157D01*
X7173462Y333317D01*
X7292179Y369329D01*
X7401589Y427810D01*
X7497488Y506512D01*
X7576190Y602411D01*
X7634671Y711821D01*
X7670683Y830538D01*
X7682843Y953999D01*
X7682843Y1604001D01*
X7670683Y1727462D01*
X7634671Y1846179D01*
X7576190Y1955589D01*
X7497488Y2051488D01*
X7401589Y2130190D01*
X7292179Y2188671D01*
X7173462Y2224683D01*
X7110000Y2230934D01*
X7110000Y2584409D01*
X7363596Y2838004D01*
X10347261Y2838004D01*
X10319000Y2695924D01*
X10319000Y2553594D01*
X9659780Y1894373D01*
X9640474Y1878529D01*
X9608900Y1840056D01*
X9451333Y1808714D01*
X9109013Y1666920D01*
X8800933Y1461068D01*
X8538932Y1199067D01*
X8333080Y890987D01*
X8191286Y548667D01*
X8119000Y185262D01*
X8119000Y-185262D01*
X8191286Y-548667D01*
X8333080Y-890987D01*
X8538932Y-1199067D01*
X8800933Y-1461068D01*
X9109013Y-1666920D01*
X9451333Y-1808714D01*
X9814738Y-1881000D01*
X10185262Y-1881000D01*
X10548667Y-1808714D01*
X10890987Y-1666920D01*
X11199067Y-1461068D01*
X11461068Y-1199067D01*
X11549000Y-1067467D01*
X11549000Y-1092922D01*
X11579013Y-1243809D01*
X11637887Y-1385942D01*
X11723358Y-1513859D01*
X11832141Y-1622642D01*
X11960058Y-1708113D01*
X12102191Y-1766987D01*
X12253078Y-1797000D01*
X12406922Y-1797000D01*
X12557809Y-1766987D01*
X12699942Y-1708113D01*
X12827859Y-1622642D01*
X12936642Y-1513859D01*
X13022113Y-1385942D01*
X13080987Y-1243809D01*
X13111000Y-1092922D01*
X13111000Y-939078D01*
X13080987Y-788191D01*
X13022113Y-646058D01*
X12936642Y-518141D01*
X12836000Y-417499D01*
X12836000Y2437152D01*
X12838448Y2462006D01*
X12828678Y2561199D01*
X12799745Y2656581D01*
X12779312Y2694808D01*
X12752759Y2744485D01*
X12689527Y2821533D01*
X12670220Y2837378D01*
X11823378Y3684219D01*
X11807529Y3703531D01*
X11730481Y3766763D01*
X11642577Y3813749D01*
X11547195Y3842682D01*
X11472856Y3850004D01*
X11472848Y3850004D01*
X11448002Y3852451D01*
X11423156Y3850004D01*
X7178849Y3850004D01*
X7154003Y3852451D01*
X7129157Y3850004D01*
X7129150Y3850004D01*
X7064698Y3843656D01*
X7054810Y3842682D01*
X6965630Y3815630D01*
X6959429Y3813749D01*
X6871525Y3766763D01*
X6794477Y3703531D01*
X6778632Y3684224D01*
X6604000Y3509592D01*
X4407355Y5706236D01*
X4391506Y5725548D01*
X4314458Y5788780D01*
X4226554Y5835766D01*
X4131172Y5864699D01*
X4056833Y5872021D01*
X4056825Y5872021D01*
X4031979Y5874468D01*
X4007133Y5872021D01*
X2558833Y5872021D01*
X2533979Y5874469D01*
X2509125Y5872021D01*
X-4712734Y5872021D01*
X-4737580Y5874468D01*
X-4762426Y5872021D01*
X-4762434Y5872021D01*
X-4836773Y5864699D01*
X-4932155Y5835766D01*
X-5020059Y5788780D01*
X-5097107Y5725548D01*
X-5112952Y5706241D01*
X-8468219Y2350973D01*
X-8487526Y2335128D01*
X-8550758Y2258080D01*
X-8562109Y2236843D01*
X-8597745Y2170175D01*
X-8626678Y2074793D01*
X-8636447Y1975601D01*
X-8633999Y1950745D01*
X-8633999Y1294134D01*
X-8800933Y1461068D01*
X-9109013Y1666920D01*
X-9451333Y1808714D01*
X-9814738Y1881000D01*
X-10185262Y1881000D01*
X-10548667Y1808714D01*
X-10890987Y1666920D01*
X-11199067Y1461068D01*
X-11461068Y1199067D01*
X-11666920Y890987D01*
X-11808714Y548667D01*
X-11881000Y185262D01*
X-11881000Y-185262D01*
X-11837081Y-406057D01*
X-11960058Y-323887D01*
X-12102191Y-265013D01*
X-12253078Y-235000D01*
X-12406922Y-235000D01*
X-12557809Y-265013D01*
X-12699942Y-323887D01*
X-12827859Y-409358D01*
X-12936642Y-518141D01*
X-13022113Y-646058D01*
X-13080987Y-788191D01*
X-13111000Y-939078D01*
X-13111000Y-1092922D01*
X-13080987Y-1243809D01*
X-13022113Y-1385942D01*
X-12936642Y-1513859D01*
X-12827859Y-1622642D01*
X-12699942Y-1708113D01*
X-12557809Y-1766987D01*
X-12406922Y-1797000D01*
X-12253078Y-1797000D01*
X-12102191Y-1766987D01*
X-11960058Y-1708113D01*
X-11832141Y-1622642D01*
X-11723358Y-1513859D01*
X-11699398Y-1478000D01*
X-11173726Y-1478000D01*
X-10890987Y-1666920D01*
X-10548667Y-1808714D01*
X-10185262Y-1881000D01*
X-9814738Y-1881000D01*
X-9451333Y-1808714D01*
X-9109013Y-1666920D01*
X-8826274Y-1478000D01*
X-8633999Y-1478000D01*
X-8634000Y-5124344D01*
X-8636447Y-5149190D01*
X-8634000Y-5174036D01*
X-8634000Y-5174043D01*
X-8626678Y-5248382D01*
X-8597745Y-5343764D01*
X-8550759Y-5431669D01*
X-8487527Y-5508717D01*
X-8468215Y-5524566D01*
X-7663552Y-6329230D01*
X-7647707Y-6348537D01*
X-7570659Y-6411769D01*
X-7495475Y-6451956D01*
X-7482755Y-6458755D01*
X-7387373Y-6487688D01*
X-7288180Y-6497458D01*
X-7263326Y-6495010D01*
X-6887628Y-6495010D01*
X-10219000Y-9826383D01*
X-10219000Y-9723078D01*
X-10249013Y-9572191D01*
X-10307887Y-9430058D01*
X-10393358Y-9302141D01*
X-10494000Y-9201499D01*
X-10494000Y-5424845D01*
X-10491553Y-5399999D01*
X-10494000Y-5375153D01*
X-10494000Y-5375146D01*
X-10501322Y-5300807D01*
X-10502207Y-5297887D01*
X-10509927Y-5272438D01*
X-10530255Y-5205425D01*
X-10577241Y-5117521D01*
X-10640473Y-5040473D01*
X-10659780Y-5024628D01*
X-13694000Y-1990409D01*
X-13694000Y2590409D01*
X-9722701Y6561708D01*
X-8934277Y6561708D01*
X-8831165Y5966318D01*
X-8810952Y5894041D01*
X-8777025Y5827096D01*
X-8730690Y5768057D01*
X-8673729Y5719191D01*
X-8608327Y5682378D01*
X-8537001Y5659030D01*
X-8462490Y5650046D01*
X-8387659Y5655771D01*
X-7916010Y5740807D01*
X-7838747Y5851150D01*
X-8009834Y6821432D01*
X-8857014Y6672051D01*
X-8934277Y6561708D01*
X-9722701Y6561708D01*
X-9053744Y7230665D01*
X-8967531Y6750299D01*
X-8857188Y6673036D01*
X-8014613Y6821605D01*
X-8008849Y6821605D01*
X-7837762Y5851324D01*
X-7727419Y5774061D01*
X-7255130Y5855467D01*
X-7182853Y5875680D01*
X-7115908Y5909607D01*
X-7056869Y5955942D01*
X-7008003Y6012903D01*
X-6971190Y6078305D01*
X-6947841Y6149631D01*
X-6938858Y6224142D01*
X-6944583Y6298973D01*
X-7051325Y6893723D01*
X-7161668Y6970986D01*
X-8008849Y6821605D01*
X-8014613Y6821605D01*
X-8010007Y6822417D01*
X-8181094Y7792698D01*
X-8181342Y7792872D01*
X-8180109Y7792872D01*
X-8009022Y6822590D01*
X-7161842Y6971971D01*
X-7084579Y7082314D01*
X-7187691Y7677704D01*
X-7207904Y7749981D01*
X-7241831Y7816926D01*
X-7288166Y7875965D01*
X-7345127Y7924831D01*
X-7410529Y7961644D01*
X-7481855Y7984992D01*
X-7556366Y7993976D01*
X-7631197Y7988251D01*
X-8102846Y7903215D01*
X-8180109Y7792872D01*
X-8181342Y7792872D01*
X-8291437Y7869961D01*
X-8440066Y7844343D01*
X-2489781Y13794627D01*
X-2470474Y13810472D01*
X-2407242Y13887520D01*
X-2360256Y13975424D01*
X-2331323Y14070806D01*
X-2324001Y14145145D01*
X-2321553Y14169999D01*
X-2324001Y14194853D01*
X-2324001Y18420810D01*
X-682437Y20062374D01*
X-573462Y20029317D01*
X-450001Y20017157D01*
X450001Y20017157D01*
X573462Y20029317D01*
X692179Y20065329D01*
X801589Y20123810D01*
X897488Y20202512D01*
X976190Y20298411D01*
X1034671Y20407821D01*
X1070683Y20526538D01*
X1082843Y20649999D01*
X1082843Y20748308D01*
X1112651Y20804074D01*
X1138068Y20887863D01*
X1146650Y20975000D01*
X1138068Y21062137D01*
X1112651Y21145926D01*
X1082843Y21201692D01*
X1082843Y21300001D01*
X1070683Y21423462D01*
X1034671Y21542179D01*
X976190Y21651589D01*
X897488Y21747488D01*
X801589Y21826190D01*
X692179Y21884671D01*
X573462Y21920683D01*
X450001Y21932843D01*
X-450001Y21932843D01*
X-573462Y21920683D01*
X-692179Y21884671D01*
X-801589Y21826190D01*
X-897488Y21747488D01*
X-976190Y21651589D01*
X-1034671Y21542179D01*
X-1070683Y21423462D01*
X-1082843Y21300001D01*
X-1082843Y21093151D01*
X-2874407Y19301586D01*
X-1708409Y22450000D01*
X-1082843Y22450000D01*
X-1075487Y22375311D01*
X-1053701Y22303492D01*
X-1018322Y22237304D01*
X-970711Y22179289D01*
X-912696Y22131678D01*
X-846508Y22096299D01*
X-774689Y22074513D01*
X-700000Y22067157D01*
X-95750Y22069000D01*
X-500Y22164250D01*
X-500Y23024500D01*
X500Y23024500D01*
X500Y22164250D01*
X95750Y22069000D01*
X700000Y22067157D01*
X774689Y22074513D01*
X846508Y22096299D01*
X912696Y22131678D01*
X970711Y22179289D01*
X1018322Y22237304D01*
X1053701Y22303492D01*
X1075487Y22375311D01*
X1082843Y22450000D01*
X1081000Y22929250D01*
X985750Y23024500D01*
X500Y23024500D01*
X-500Y23024500D01*
X-985750Y23024500D01*
X-1081000Y22929250D01*
X-1082843Y22450000D01*
X-1708409Y22450000D01*
X-1282513Y23600000D01*
X-1082843Y23600000D01*
X-1081000Y23120750D01*
X-985750Y23025500D01*
X-500Y23025500D01*
X-500Y23885750D01*
X500Y23885750D01*
X500Y23025500D01*
X985750Y23025500D01*
X1081000Y23120750D01*
X1082843Y23600000D01*
X1075487Y23674689D01*
X1053701Y23746508D01*
X1018322Y23812696D01*
X970711Y23870711D01*
X912696Y23918322D01*
X846508Y23953701D01*
X774689Y23975487D01*
X700000Y23982843D01*
X95750Y23981000D01*
X500Y23885750D01*
X-500Y23885750D01*
X-95750Y23981000D01*
X-700000Y23982843D01*
X-774689Y23975487D01*
X-846508Y23953701D01*
X-912696Y23918322D01*
X-970711Y23870711D01*
X-1018322Y23812696D01*
X-1053701Y23746508D01*
X-1075487Y23674689D01*
X-1082843Y23600000D01*
X-1282513Y23600000D01*
X-1071420Y24169990D01*
X-885482Y24322722D01*
X-611703Y24469521D01*
X-314624Y24560347D01*
X-5553Y24591741D01*
X303720Y24562506D01*
G37*
G04 #@! TD.AperFunction*
D15*
X16903481Y-2252072D02*
X16312424Y-2252072D01*
X16287570Y-2249624D01*
X16262716Y-2252072D01*
X16188377Y-2259394D01*
X16092995Y-2288327D01*
X16005091Y-2335313D01*
X15993992Y-2344422D01*
X16868904Y-1469510D01*
X17686042Y-1469510D01*
X16903481Y-2252072D01*
G04 #@! TA.AperFunction,Conductor*
D16*
G36*
X16903481Y-2252072D02*
G01*
X16312424Y-2252072D01*
X16287570Y-2249624D01*
X16262716Y-2252072D01*
X16188377Y-2259394D01*
X16092995Y-2288327D01*
X16005091Y-2335313D01*
X15993992Y-2344422D01*
X16868904Y-1469510D01*
X17686042Y-1469510D01*
X16903481Y-2252072D01*
G37*
G04 #@! TD.AperFunction*
D15*
X24169990Y1071420D02*
X24322722Y885482D01*
X24469521Y611703D01*
X24560347Y314624D01*
X24591741Y5553D01*
X24562506Y-303720D01*
X24473756Y-601427D01*
X24328869Y-876230D01*
X24171157Y-1070988D01*
X22193047Y-1803570D01*
X22439393Y-1557224D01*
X22456350Y-1543308D01*
X22481782Y-1512319D01*
X22511897Y-1475625D01*
X22553172Y-1398405D01*
X22556853Y-1386269D01*
X22578589Y-1314616D01*
X22585021Y-1249309D01*
X22585021Y-1249300D01*
X22587170Y-1227480D01*
X22585021Y-1205660D01*
X22585021Y-1082324D01*
X22929250Y-1081000D01*
X23024500Y-985750D01*
X23024500Y-500D01*
X23025500Y-500D01*
X23025500Y-985750D01*
X23120750Y-1081000D01*
X23600000Y-1082843D01*
X23674689Y-1075487D01*
X23746508Y-1053701D01*
X23812696Y-1018322D01*
X23870711Y-970711D01*
X23918322Y-912696D01*
X23953701Y-846508D01*
X23975487Y-774689D01*
X23982843Y-700000D01*
X23981000Y-95750D01*
X23885750Y-500D01*
X23025500Y-500D01*
X23024500Y-500D01*
X23004500Y-500D01*
X23004500Y500D01*
X23024500Y500D01*
X23024500Y985750D01*
X23025500Y985750D01*
X23025500Y500D01*
X23885750Y500D01*
X23981000Y95750D01*
X23982843Y700000D01*
X23975487Y774689D01*
X23953701Y846508D01*
X23918322Y912696D01*
X23870711Y970711D01*
X23812696Y1018322D01*
X23746508Y1053701D01*
X23674689Y1075487D01*
X23600000Y1082843D01*
X23120750Y1081000D01*
X23025500Y985750D01*
X23024500Y985750D01*
X22929250Y1081000D01*
X22571989Y1082374D01*
X22553172Y1144405D01*
X22546830Y1156270D01*
X22511897Y1221625D01*
X22477001Y1264145D01*
X22456350Y1289308D01*
X22439391Y1303226D01*
X22329291Y1413326D01*
X22313745Y1464575D01*
X22266758Y1552479D01*
X22219370Y1610222D01*
X21927782Y1901810D01*
X24169990Y1071420D01*
G04 #@! TA.AperFunction,Conductor*
D16*
G36*
X24169990Y1071420D02*
G01*
X24322722Y885482D01*
X24469521Y611703D01*
X24560347Y314624D01*
X24591741Y5553D01*
X24562506Y-303720D01*
X24473756Y-601427D01*
X24328869Y-876230D01*
X24171157Y-1070988D01*
X22193047Y-1803570D01*
X22439393Y-1557224D01*
X22456350Y-1543308D01*
X22481782Y-1512319D01*
X22511897Y-1475625D01*
X22553172Y-1398405D01*
X22556853Y-1386269D01*
X22578589Y-1314616D01*
X22585021Y-1249309D01*
X22585021Y-1249300D01*
X22587170Y-1227480D01*
X22585021Y-1205660D01*
X22585021Y-1082324D01*
X22929250Y-1081000D01*
X23024500Y-985750D01*
X23024500Y-500D01*
X23025500Y-500D01*
X23025500Y-985750D01*
X23120750Y-1081000D01*
X23600000Y-1082843D01*
X23674689Y-1075487D01*
X23746508Y-1053701D01*
X23812696Y-1018322D01*
X23870711Y-970711D01*
X23918322Y-912696D01*
X23953701Y-846508D01*
X23975487Y-774689D01*
X23982843Y-700000D01*
X23981000Y-95750D01*
X23885750Y-500D01*
X23025500Y-500D01*
X23024500Y-500D01*
X23004500Y-500D01*
X23004500Y500D01*
X23024500Y500D01*
X23024500Y985750D01*
X23025500Y985750D01*
X23025500Y500D01*
X23885750Y500D01*
X23981000Y95750D01*
X23982843Y700000D01*
X23975487Y774689D01*
X23953701Y846508D01*
X23918322Y912696D01*
X23870711Y970711D01*
X23812696Y1018322D01*
X23746508Y1053701D01*
X23674689Y1075487D01*
X23600000Y1082843D01*
X23120750Y1081000D01*
X23025500Y985750D01*
X23024500Y985750D01*
X22929250Y1081000D01*
X22571989Y1082374D01*
X22553172Y1144405D01*
X22546830Y1156270D01*
X22511897Y1221625D01*
X22477001Y1264145D01*
X22456350Y1289308D01*
X22439391Y1303226D01*
X22329291Y1413326D01*
X22313745Y1464575D01*
X22266758Y1552479D01*
X22219370Y1610222D01*
X21927782Y1901810D01*
X24169990Y1071420D01*
G37*
G04 #@! TD.AperFunction*
D15*
X-3336000Y14379592D02*
X-14540215Y3175376D01*
X-14559527Y3159527D01*
X-14622759Y3082479D01*
X-14669745Y2994574D01*
X-14698678Y2899192D01*
X-14706000Y2824853D01*
X-14706000Y2824846D01*
X-14708447Y2800000D01*
X-14706000Y2775154D01*
X-14705999Y-1614820D01*
X-15303500Y-1017319D01*
X-15303500Y-241805D01*
X-15278255Y-194575D01*
X-15249322Y-99193D01*
X-15239552Y0D01*
X-15249322Y99193D01*
X-15278255Y194575D01*
X-15325241Y282479D01*
X-15388473Y359527D01*
X-15465521Y422759D01*
X-15553425Y469745D01*
X-15648807Y498678D01*
X-15723146Y506000D01*
X-20022672Y506000D01*
X-20029317Y573462D01*
X-20065329Y692179D01*
X-20123810Y801589D01*
X-20202512Y897488D01*
X-20298411Y976190D01*
X-20407821Y1034671D01*
X-20526538Y1070683D01*
X-20616057Y1079500D01*
X-17173201Y1079500D01*
X-17151381Y1077351D01*
X-17129561Y1079500D01*
X-17129551Y1079500D01*
X-17064244Y1085932D01*
X-16980455Y1111349D01*
X-16903236Y1152624D01*
X-16835552Y1208171D01*
X-16821634Y1225130D01*
X-12791328Y5255436D01*
X-12774376Y5269348D01*
X-12760463Y5286301D01*
X-12760460Y5286304D01*
X-12718829Y5337031D01*
X-12677554Y5414251D01*
X-12674458Y5424457D01*
X-12652137Y5498040D01*
X-12645705Y5563347D01*
X-12645705Y5563357D01*
X-12643556Y5585177D01*
X-12645705Y5606997D01*
X-12645705Y13068386D01*
X-12643556Y13090206D01*
X-12645705Y13112026D01*
X-12645705Y13112035D01*
X-12652137Y13177342D01*
X-12677554Y13261131D01*
X-12718829Y13338350D01*
X-12739490Y13363525D01*
X-12760461Y13389079D01*
X-12760463Y13389081D01*
X-12774376Y13406034D01*
X-12791329Y13419947D01*
X-13839610Y14468227D01*
X-13835720Y14472117D01*
X-13757018Y14568016D01*
X-13698537Y14677426D01*
X-13662525Y14796143D01*
X-13650365Y14919604D01*
X-13662525Y15043065D01*
X-13698537Y15161782D01*
X-13757018Y15271192D01*
X-13835720Y15367091D01*
X-14295341Y15826712D01*
X-14391240Y15905414D01*
X-14500650Y15963895D01*
X-14619367Y15999907D01*
X-14742828Y16012067D01*
X-14866289Y15999907D01*
X-14985006Y15963895D01*
X-15094416Y15905414D01*
X-15190315Y15826712D01*
X-15826712Y15190315D01*
X-15905414Y15094416D01*
X-15963895Y14985006D01*
X-15999907Y14866289D01*
X-16012067Y14742828D01*
X-15999907Y14619367D01*
X-15963895Y14500650D01*
X-15905414Y14391240D01*
X-15826712Y14295341D01*
X-15367091Y13835720D01*
X-15271192Y13757018D01*
X-15161782Y13698537D01*
X-15043065Y13662525D01*
X-14919604Y13650365D01*
X-14796143Y13662525D01*
X-14677426Y13698537D01*
X-14568016Y13757018D01*
X-14472117Y13835720D01*
X-14468227Y13839610D01*
X-13534704Y12906086D01*
X-13534705Y6940338D01*
X-17504117Y15583400D01*
X-16977461Y15583400D01*
X-16977461Y15448696D01*
X-16639883Y15108512D01*
X-16581869Y15060900D01*
X-16515680Y15025522D01*
X-16443861Y15003736D01*
X-16369172Y14996380D01*
X-16294483Y15003736D01*
X-16222665Y15025522D01*
X-16156476Y15060900D01*
X-16098461Y15108512D01*
X-15672495Y15537084D01*
X-15672495Y15671788D01*
X-16280784Y16280077D01*
X-16977461Y15583400D01*
X-17504117Y15583400D01*
X-17783805Y16192396D01*
X-17565188Y16192396D01*
X-17557832Y16117707D01*
X-17536046Y16045888D01*
X-17500668Y15979699D01*
X-17453056Y15921685D01*
X-17112872Y15584107D01*
X-16978168Y15584107D01*
X-16281491Y16280784D01*
X-16280077Y16280784D01*
X-15671788Y15672495D01*
X-15537084Y15672495D01*
X-15108512Y16098461D01*
X-15060900Y16156476D01*
X-15025522Y16222665D01*
X-15003736Y16294483D01*
X-14996380Y16369172D01*
X-15003736Y16443861D01*
X-15025522Y16515680D01*
X-15060900Y16581869D01*
X-15108512Y16639883D01*
X-15448696Y16977461D01*
X-15583400Y16977461D01*
X-16280077Y16280784D01*
X-16281491Y16280784D01*
X-16889780Y16889073D01*
X-17024484Y16889073D01*
X-17453056Y16463107D01*
X-17500668Y16405092D01*
X-17536046Y16338903D01*
X-17557832Y16267085D01*
X-17565188Y16192396D01*
X-17783805Y16192396D01*
X-17848223Y16332660D01*
X-17824733Y16572229D01*
X-17734925Y16869688D01*
X-17652619Y17024484D01*
X-16889073Y17024484D01*
X-16889073Y16889780D01*
X-16280784Y16281491D01*
X-15584107Y16978168D01*
X-15584107Y17112872D01*
X-15921685Y17453056D01*
X-15979699Y17500668D01*
X-16045888Y17536046D01*
X-16117707Y17557832D01*
X-16192396Y17565188D01*
X-16267085Y17557832D01*
X-16338903Y17536046D01*
X-16405092Y17500668D01*
X-16463107Y17453056D01*
X-16889073Y17024484D01*
X-17652619Y17024484D01*
X-17589055Y17144028D01*
X-17392675Y17384813D01*
X-17153264Y17582873D01*
X-16879947Y17730654D01*
X-16583128Y17822535D01*
X-16333790Y17848742D01*
X-6657324Y13404728D01*
X-6644242Y13400213D01*
X-6642868Y13399692D01*
X-6642244Y13399523D01*
X-6600666Y13385172D01*
X-6592237Y13384019D01*
X-6401884Y13333167D01*
X-6365519Y13327175D01*
X-6329356Y13320696D01*
X-6323713Y13320286D01*
X-6323702Y13320284D01*
X-6323692Y13320284D01*
X-6115161Y13306591D01*
X-6078415Y13307773D01*
X-6041589Y13308444D01*
X-6035962Y13309139D01*
X-5828732Y13336213D01*
X-5792848Y13344526D01*
X-5756926Y13352321D01*
X-5751542Y13354095D01*
X-5553518Y13420903D01*
X-5519927Y13436030D01*
X-5486203Y13450654D01*
X-5481266Y13453440D01*
X-5299990Y13557440D01*
X-5270020Y13578773D01*
X-5239740Y13599695D01*
X-5235438Y13603388D01*
X-5077815Y13740616D01*
X-5052550Y13767372D01*
X-5026916Y13793773D01*
X-5023413Y13798230D01*
X-4895446Y13963463D01*
X-4875867Y13994606D01*
X-4855844Y14025490D01*
X-4853274Y14030543D01*
X-4853273Y14030544D01*
X-4853271Y14030548D01*
X-4776737Y14183672D01*
X-4775422Y14185404D01*
X-4749197Y14239300D01*
X-3336001Y18055196D01*
X-3336000Y14379592D01*
G04 #@! TA.AperFunction,Conductor*
D16*
G36*
X-3336000Y14379592D02*
G01*
X-14540215Y3175376D01*
X-14559527Y3159527D01*
X-14622759Y3082479D01*
X-14669745Y2994574D01*
X-14698678Y2899192D01*
X-14706000Y2824853D01*
X-14706000Y2824846D01*
X-14708447Y2800000D01*
X-14706000Y2775154D01*
X-14705999Y-1614820D01*
X-15303500Y-1017319D01*
X-15303500Y-241805D01*
X-15278255Y-194575D01*
X-15249322Y-99193D01*
X-15239552Y0D01*
X-15249322Y99193D01*
X-15278255Y194575D01*
X-15325241Y282479D01*
X-15388473Y359527D01*
X-15465521Y422759D01*
X-15553425Y469745D01*
X-15648807Y498678D01*
X-15723146Y506000D01*
X-20022672Y506000D01*
X-20029317Y573462D01*
X-20065329Y692179D01*
X-20123810Y801589D01*
X-20202512Y897488D01*
X-20298411Y976190D01*
X-20407821Y1034671D01*
X-20526538Y1070683D01*
X-20616057Y1079500D01*
X-17173201Y1079500D01*
X-17151381Y1077351D01*
X-17129561Y1079500D01*
X-17129551Y1079500D01*
X-17064244Y1085932D01*
X-16980455Y1111349D01*
X-16903236Y1152624D01*
X-16835552Y1208171D01*
X-16821634Y1225130D01*
X-12791328Y5255436D01*
X-12774376Y5269348D01*
X-12760463Y5286301D01*
X-12760460Y5286304D01*
X-12718829Y5337031D01*
X-12677554Y5414251D01*
X-12674458Y5424457D01*
X-12652137Y5498040D01*
X-12645705Y5563347D01*
X-12645705Y5563357D01*
X-12643556Y5585177D01*
X-12645705Y5606997D01*
X-12645705Y13068386D01*
X-12643556Y13090206D01*
X-12645705Y13112026D01*
X-12645705Y13112035D01*
X-12652137Y13177342D01*
X-12677554Y13261131D01*
X-12718829Y13338350D01*
X-12739490Y13363525D01*
X-12760461Y13389079D01*
X-12760463Y13389081D01*
X-12774376Y13406034D01*
X-12791329Y13419947D01*
X-13839610Y14468227D01*
X-13835720Y14472117D01*
X-13757018Y14568016D01*
X-13698537Y14677426D01*
X-13662525Y14796143D01*
X-13650365Y14919604D01*
X-13662525Y15043065D01*
X-13698537Y15161782D01*
X-13757018Y15271192D01*
X-13835720Y15367091D01*
X-14295341Y15826712D01*
X-14391240Y15905414D01*
X-14500650Y15963895D01*
X-14619367Y15999907D01*
X-14742828Y16012067D01*
X-14866289Y15999907D01*
X-14985006Y15963895D01*
X-15094416Y15905414D01*
X-15190315Y15826712D01*
X-15826712Y15190315D01*
X-15905414Y15094416D01*
X-15963895Y14985006D01*
X-15999907Y14866289D01*
X-16012067Y14742828D01*
X-15999907Y14619367D01*
X-15963895Y14500650D01*
X-15905414Y14391240D01*
X-15826712Y14295341D01*
X-15367091Y13835720D01*
X-15271192Y13757018D01*
X-15161782Y13698537D01*
X-15043065Y13662525D01*
X-14919604Y13650365D01*
X-14796143Y13662525D01*
X-14677426Y13698537D01*
X-14568016Y13757018D01*
X-14472117Y13835720D01*
X-14468227Y13839610D01*
X-13534704Y12906086D01*
X-13534705Y6940338D01*
X-17504117Y15583400D01*
X-16977461Y15583400D01*
X-16977461Y15448696D01*
X-16639883Y15108512D01*
X-16581869Y15060900D01*
X-16515680Y15025522D01*
X-16443861Y15003736D01*
X-16369172Y14996380D01*
X-16294483Y15003736D01*
X-16222665Y15025522D01*
X-16156476Y15060900D01*
X-16098461Y15108512D01*
X-15672495Y15537084D01*
X-15672495Y15671788D01*
X-16280784Y16280077D01*
X-16977461Y15583400D01*
X-17504117Y15583400D01*
X-17783805Y16192396D01*
X-17565188Y16192396D01*
X-17557832Y16117707D01*
X-17536046Y16045888D01*
X-17500668Y15979699D01*
X-17453056Y15921685D01*
X-17112872Y15584107D01*
X-16978168Y15584107D01*
X-16281491Y16280784D01*
X-16280077Y16280784D01*
X-15671788Y15672495D01*
X-15537084Y15672495D01*
X-15108512Y16098461D01*
X-15060900Y16156476D01*
X-15025522Y16222665D01*
X-15003736Y16294483D01*
X-14996380Y16369172D01*
X-15003736Y16443861D01*
X-15025522Y16515680D01*
X-15060900Y16581869D01*
X-15108512Y16639883D01*
X-15448696Y16977461D01*
X-15583400Y16977461D01*
X-16280077Y16280784D01*
X-16281491Y16280784D01*
X-16889780Y16889073D01*
X-17024484Y16889073D01*
X-17453056Y16463107D01*
X-17500668Y16405092D01*
X-17536046Y16338903D01*
X-17557832Y16267085D01*
X-17565188Y16192396D01*
X-17783805Y16192396D01*
X-17848223Y16332660D01*
X-17824733Y16572229D01*
X-17734925Y16869688D01*
X-17652619Y17024484D01*
X-16889073Y17024484D01*
X-16889073Y16889780D01*
X-16280784Y16281491D01*
X-15584107Y16978168D01*
X-15584107Y17112872D01*
X-15921685Y17453056D01*
X-15979699Y17500668D01*
X-16045888Y17536046D01*
X-16117707Y17557832D01*
X-16192396Y17565188D01*
X-16267085Y17557832D01*
X-16338903Y17536046D01*
X-16405092Y17500668D01*
X-16463107Y17453056D01*
X-16889073Y17024484D01*
X-17652619Y17024484D01*
X-17589055Y17144028D01*
X-17392675Y17384813D01*
X-17153264Y17582873D01*
X-16879947Y17730654D01*
X-16583128Y17822535D01*
X-16333790Y17848742D01*
X-6657324Y13404728D01*
X-6644242Y13400213D01*
X-6642868Y13399692D01*
X-6642244Y13399523D01*
X-6600666Y13385172D01*
X-6592237Y13384019D01*
X-6401884Y13333167D01*
X-6365519Y13327175D01*
X-6329356Y13320696D01*
X-6323713Y13320286D01*
X-6323702Y13320284D01*
X-6323692Y13320284D01*
X-6115161Y13306591D01*
X-6078415Y13307773D01*
X-6041589Y13308444D01*
X-6035962Y13309139D01*
X-5828732Y13336213D01*
X-5792848Y13344526D01*
X-5756926Y13352321D01*
X-5751542Y13354095D01*
X-5553518Y13420903D01*
X-5519927Y13436030D01*
X-5486203Y13450654D01*
X-5481266Y13453440D01*
X-5299990Y13557440D01*
X-5270020Y13578773D01*
X-5239740Y13599695D01*
X-5235438Y13603388D01*
X-5077815Y13740616D01*
X-5052550Y13767372D01*
X-5026916Y13793773D01*
X-5023413Y13798230D01*
X-4895446Y13963463D01*
X-4875867Y13994606D01*
X-4855844Y14025490D01*
X-4853274Y14030543D01*
X-4853273Y14030544D01*
X-4853271Y14030548D01*
X-4776737Y14183672D01*
X-4775422Y14185404D01*
X-4749197Y14239300D01*
X-3336001Y18055196D01*
X-3336000Y14379592D01*
G37*
G04 #@! TD.AperFunction*
M02*
