G04 #@! TF.GenerationSoftware,KiCad,Pcbnew,5.1.7-a382d34a8~88~ubuntu20.04.1*
G04 #@! TF.CreationDate,2020-12-13T21:22:30-08:00*
G04 #@! TF.ProjectId,smd-sun,736d642d-7375-46e2-9e6b-696361645f70,rev?*
G04 #@! TF.SameCoordinates,Original*
G04 #@! TF.FileFunction,Legend,Bot*
G04 #@! TF.FilePolarity,Positive*
%FSLAX46Y46*%
G04 Gerber Fmt 4.6, Leading zero omitted, Abs format (unit mm)*
G04 Created by KiCad (PCBNEW 5.1.7-a382d34a8~88~ubuntu20.04.1) date 2020-12-13 21:22:30*
%MOMM*%
%LPD*%
G01*
G04 APERTURE LIST*
%ADD10C,0.300000*%
%ADD11C,0.015000*%
G04 APERTURE END LIST*
D10*
X9238095Y-8404761D02*
X9238095Y-9833333D01*
X9333333Y-10119047D01*
X9523809Y-10309523D01*
X9809523Y-10404761D01*
X9999999Y-10404761D01*
X7333333Y-10404761D02*
X8285714Y-10404761D01*
X8285714Y-8404761D01*
X5523809Y-10214285D02*
X5619047Y-10309523D01*
X5904761Y-10404761D01*
X6095238Y-10404761D01*
X6380952Y-10309523D01*
X6571428Y-10119047D01*
X6666666Y-9928571D01*
X6761904Y-9547619D01*
X6761904Y-9261904D01*
X6666666Y-8880952D01*
X6571428Y-8690476D01*
X6380952Y-8500000D01*
X6095238Y-8404761D01*
X5904761Y-8404761D01*
X5619047Y-8500000D01*
X5523809Y-8595238D01*
X4095238Y-8404761D02*
X4095238Y-9833333D01*
X4190476Y-10119047D01*
X4380952Y-10309523D01*
X4666666Y-10404761D01*
X4857142Y-10404761D01*
X2190476Y-10404761D02*
X3142857Y-10404761D01*
X3142857Y-8404761D01*
X380952Y-10214285D02*
X476190Y-10309523D01*
X761904Y-10404761D01*
X952380Y-10404761D01*
X1238095Y-10309523D01*
X1428571Y-10119047D01*
X1523809Y-9928571D01*
X1619047Y-9547619D01*
X1619047Y-9261904D01*
X1523809Y-8880952D01*
X1428571Y-8690476D01*
X1238095Y-8500000D01*
X952380Y-8404761D01*
X761904Y-8404761D01*
X476190Y-8500000D01*
X380952Y-8595238D01*
X-1047619Y-8404761D02*
X-1047619Y-9833333D01*
X-952380Y-10119047D01*
X-761904Y-10309523D01*
X-476190Y-10404761D01*
X-285714Y-10404761D01*
X-2952380Y-10404761D02*
X-2000000Y-10404761D01*
X-2000000Y-8404761D01*
X-4761904Y-10214285D02*
X-4666666Y-10309523D01*
X-4380952Y-10404761D01*
X-4190476Y-10404761D01*
X-3904761Y-10309523D01*
X-3714285Y-10119047D01*
X-3619047Y-9928571D01*
X-3523809Y-9547619D01*
X-3523809Y-9261904D01*
X-3619047Y-8880952D01*
X-3714285Y-8690476D01*
X-3904761Y-8500000D01*
X-4190476Y-8404761D01*
X-4380952Y-8404761D01*
X-4666666Y-8500000D01*
X-4761904Y-8595238D01*
X-6190476Y-8404761D02*
X-6190476Y-9833333D01*
X-6095238Y-10119047D01*
X-5904761Y-10309523D01*
X-5619047Y-10404761D01*
X-5428571Y-10404761D01*
X-8095238Y-10404761D02*
X-7142857Y-10404761D01*
X-7142857Y-8404761D01*
X-9904761Y-10214285D02*
X-9809523Y-10309523D01*
X-9523809Y-10404761D01*
X-9333333Y-10404761D01*
X-9047619Y-10309523D01*
X-8857142Y-10119047D01*
X-8761904Y-9928571D01*
X-8666666Y-9547619D01*
X-8666666Y-9261904D01*
X-8761904Y-8880952D01*
X-8857142Y-8690476D01*
X-9047619Y-8500000D01*
X-9333333Y-8404761D01*
X-9523809Y-8404761D01*
X-9809523Y-8500000D01*
X-9904761Y-8595238D01*
X6047619Y10395238D02*
X6047619Y12395238D01*
X5571428Y12395238D01*
X5285714Y12300000D01*
X5095238Y12109523D01*
X4999999Y11919047D01*
X4904761Y11538095D01*
X4904761Y11252380D01*
X4999999Y10871428D01*
X5095238Y10680952D01*
X5285714Y10490476D01*
X5571428Y10395238D01*
X6047619Y10395238D01*
X3285714Y10490476D02*
X3476190Y10395238D01*
X3857142Y10395238D01*
X4047619Y10490476D01*
X4142857Y10680952D01*
X4142857Y11442857D01*
X4047619Y11633333D01*
X3857142Y11728571D01*
X3476190Y11728571D01*
X3285714Y11633333D01*
X3190476Y11442857D01*
X3190476Y11252380D01*
X4142857Y11061904D01*
X1476190Y10490476D02*
X1666666Y10395238D01*
X2047619Y10395238D01*
X2238095Y10490476D01*
X2333333Y10585714D01*
X2428571Y10776190D01*
X2428571Y11347619D01*
X2333333Y11538095D01*
X2238095Y11633333D01*
X2047619Y11728571D01*
X1666666Y11728571D01*
X1476190Y11633333D01*
X714285Y12204761D02*
X619047Y12300000D01*
X428571Y12395238D01*
X-47619Y12395238D01*
X-238095Y12300000D01*
X-333333Y12204761D01*
X-428571Y12014285D01*
X-428571Y11823809D01*
X-333333Y11538095D01*
X809523Y10395238D01*
X-428571Y10395238D01*
X-1666666Y12395238D02*
X-1857142Y12395238D01*
X-2047619Y12300000D01*
X-2142857Y12204761D01*
X-2238095Y12014285D01*
X-2333333Y11633333D01*
X-2333333Y11157142D01*
X-2238095Y10776190D01*
X-2142857Y10585714D01*
X-2047619Y10490476D01*
X-1857142Y10395238D01*
X-1666666Y10395238D01*
X-1476190Y10490476D01*
X-1380952Y10585714D01*
X-1285714Y10776190D01*
X-1190476Y11157142D01*
X-1190476Y11633333D01*
X-1285714Y12014285D01*
X-1380952Y12204761D01*
X-1476190Y12300000D01*
X-1666666Y12395238D01*
X-3095238Y12204761D02*
X-3190476Y12300000D01*
X-3380952Y12395238D01*
X-3857142Y12395238D01*
X-4047619Y12300000D01*
X-4142857Y12204761D01*
X-4238095Y12014285D01*
X-4238095Y11823809D01*
X-4142857Y11538095D01*
X-3000000Y10395238D01*
X-4238095Y10395238D01*
X-5476190Y12395238D02*
X-5666666Y12395238D01*
X-5857142Y12300000D01*
X-5952380Y12204761D01*
X-6047619Y12014285D01*
X-6142857Y11633333D01*
X-6142857Y11157142D01*
X-6047619Y10776190D01*
X-5952380Y10585714D01*
X-5857142Y10490476D01*
X-5666666Y10395238D01*
X-5476190Y10395238D01*
X-5285714Y10490476D01*
X-5190476Y10585714D01*
X-5095238Y10776190D01*
X-5000000Y11157142D01*
X-5000000Y11633333D01*
X-5095238Y12014285D01*
X-5190476Y12204761D01*
X-5285714Y12300000D01*
X-5476190Y12395238D01*
X12476190Y7390476D02*
X12285714Y7295238D01*
X11904761Y7295238D01*
X11714285Y7390476D01*
X11619047Y7580952D01*
X11619047Y7676190D01*
X11714285Y7866666D01*
X11904761Y7961904D01*
X12190476Y7961904D01*
X12380952Y8057142D01*
X12476190Y8247619D01*
X12476190Y8342857D01*
X12380952Y8533333D01*
X12190476Y8628571D01*
X11904761Y8628571D01*
X11714285Y8533333D01*
X10761904Y7295238D02*
X10761904Y8628571D01*
X10761904Y8438095D02*
X10666666Y8533333D01*
X10476190Y8628571D01*
X10190476Y8628571D01*
X10000000Y8533333D01*
X9904761Y8342857D01*
X9904761Y7295238D01*
X9904761Y8342857D02*
X9809523Y8533333D01*
X9619047Y8628571D01*
X9333333Y8628571D01*
X9142857Y8533333D01*
X9047619Y8342857D01*
X9047619Y7295238D01*
X7238095Y7295238D02*
X7238095Y9295238D01*
X7238095Y7390476D02*
X7428571Y7295238D01*
X7809523Y7295238D01*
X8000000Y7390476D01*
X8095238Y7485714D01*
X8190476Y7676190D01*
X8190476Y8247619D01*
X8095238Y8438095D01*
X8000000Y8533333D01*
X7809523Y8628571D01*
X7428571Y8628571D01*
X7238095Y8533333D01*
X6285714Y8057142D02*
X4761904Y8057142D01*
X3904761Y7390476D02*
X3714285Y7295238D01*
X3333333Y7295238D01*
X3142857Y7390476D01*
X3047619Y7580952D01*
X3047619Y7676190D01*
X3142857Y7866666D01*
X3333333Y7961904D01*
X3619047Y7961904D01*
X3809523Y8057142D01*
X3904761Y8247619D01*
X3904761Y8342857D01*
X3809523Y8533333D01*
X3619047Y8628571D01*
X3333333Y8628571D01*
X3142857Y8533333D01*
X1333333Y8628571D02*
X1333333Y7295238D01*
X2190476Y8628571D02*
X2190476Y7580952D01*
X2095238Y7390476D01*
X1904761Y7295238D01*
X1619047Y7295238D01*
X1428571Y7390476D01*
X1333333Y7485714D01*
X380952Y8628571D02*
X380952Y7295238D01*
X380952Y8438095D02*
X285714Y8533333D01*
X95238Y8628571D01*
X-190476Y8628571D01*
X-380952Y8533333D01*
X-476190Y8342857D01*
X-476190Y7295238D01*
X-1428571Y7485714D02*
X-1523809Y7390476D01*
X-1428571Y7295238D01*
X-1333333Y7390476D01*
X-1428571Y7485714D01*
X-1428571Y7295238D01*
X-2095238Y8628571D02*
X-2857142Y8628571D01*
X-2380952Y9295238D02*
X-2380952Y7580952D01*
X-2476190Y7390476D01*
X-2666666Y7295238D01*
X-2857142Y7295238D01*
X-3809523Y7295238D02*
X-3619047Y7390476D01*
X-3523809Y7485714D01*
X-3428571Y7676190D01*
X-3428571Y8247619D01*
X-3523809Y8438095D01*
X-3619047Y8533333D01*
X-3809523Y8628571D01*
X-4095238Y8628571D01*
X-4285714Y8533333D01*
X-4380952Y8438095D01*
X-4476190Y8247619D01*
X-4476190Y7676190D01*
X-4380952Y7485714D01*
X-4285714Y7390476D01*
X-4095238Y7295238D01*
X-3809523Y7295238D01*
X-5333333Y7295238D02*
X-5333333Y8628571D01*
X-5333333Y8438095D02*
X-5428571Y8533333D01*
X-5619047Y8628571D01*
X-5904761Y8628571D01*
X-6095238Y8533333D01*
X-6190476Y8342857D01*
X-6190476Y7295238D01*
X-6190476Y8342857D02*
X-6285714Y8533333D01*
X-6476190Y8628571D01*
X-6761904Y8628571D01*
X-6952380Y8533333D01*
X-7047619Y8342857D01*
X-7047619Y7295238D01*
X-7999999Y7295238D02*
X-7999999Y9295238D01*
X-8190476Y8057142D02*
X-8761904Y7295238D01*
X-8761904Y8628571D02*
X-7999999Y7866666D01*
X-9619047Y7485714D02*
X-9714285Y7390476D01*
X-9619047Y7295238D01*
X-9523809Y7390476D01*
X-9619047Y7485714D01*
X-9619047Y7295238D01*
X-10571428Y7295238D02*
X-10571428Y8628571D01*
X-10571428Y9295238D02*
X-10476190Y9200000D01*
X-10571428Y9104761D01*
X-10666666Y9200000D01*
X-10571428Y9295238D01*
X-10571428Y9104761D01*
X-11523809Y8628571D02*
X-11523809Y7295238D01*
X-11523809Y8438095D02*
X-11619047Y8533333D01*
X-11809523Y8628571D01*
X-12095238Y8628571D01*
X-12285714Y8533333D01*
X-12380952Y8342857D01*
X-12380952Y7295238D01*
D11*
X-6904285Y-11549571D02*
X-7047142Y-11597190D01*
X-7094761Y-11644809D01*
X-7142380Y-11740047D01*
X-7142380Y-11882904D01*
X-7094761Y-11978142D01*
X-7047142Y-12025761D01*
X-6951904Y-12073380D01*
X-6570952Y-12073380D01*
X-6570952Y-11073380D01*
X-6904285Y-11073380D01*
X-6999523Y-11121000D01*
X-7047142Y-11168619D01*
X-7094761Y-11263857D01*
X-7094761Y-11359095D01*
X-7047142Y-11454333D01*
X-6999523Y-11501952D01*
X-6904285Y-11549571D01*
X-6570952Y-11549571D01*
X-7428095Y-11073380D02*
X-7999523Y-11073380D01*
X-7713809Y-12073380D02*
X-7713809Y-11073380D01*
X-8856666Y-12073380D02*
X-8285238Y-12073380D01*
X-8570952Y-12073380D02*
X-8570952Y-11073380D01*
X-8475714Y-11216238D01*
X-8380476Y-11311476D01*
X-8285238Y-11359095D01*
M02*
